<svg xmlns="http://www.w3.org/2000/svg" width="14.363" height="12.182" viewBox="0 0 14.363 12.182">
  <g id="briefcase" transform="translate(0 -42.666)">
    <g id="Group_1242" data-name="Group 1242" transform="translate(0 42.666)">
      <g id="Group_1241" data-name="Group 1241" transform="translate(0 0)">
        <path id="Path_340" data-name="Path 340" d="M13.166,44.493H10.174v-.609a1.209,1.209,0,0,0-1.2-1.218H5.386a1.209,1.209,0,0,0-1.2,1.218v.609H1.2A1.209,1.209,0,0,0,0,45.711v1.827a1.209,1.209,0,0,0,1.2,1.218H5.985v-.3a.3.3,0,0,1,.3-.3h1.8a.3.3,0,0,1,.3.3v.3h4.788a1.209,1.209,0,0,0,1.2-1.218V45.711A1.209,1.209,0,0,0,13.166,44.493Zm-4.189,0H5.386v-.609H8.977Z" transform="translate(0 -42.666)" fill="#52afff"/>
        <path id="Path_341" data-name="Path 341" d="M14.2,266.416a.3.3,0,0,0-.314.03,1.168,1.168,0,0,1-.717.25H8.379v.914a.3.3,0,0,1-.3.3h-1.8a.3.3,0,0,1-.3-.3V266.7H1.2a1.168,1.168,0,0,1-.717-.25.293.293,0,0,0-.314-.03.305.305,0,0,0-.166.273v4.271a1.209,1.209,0,0,0,1.2,1.218H13.166a1.209,1.209,0,0,0,1.2-1.218v-4.271A.305.305,0,0,0,14.2,266.416Z" transform="translate(0 -259.996)" fill="#52afff"/>
      </g>
    </g>
  </g>
</svg>
