<svg xmlns="http://www.w3.org/2000/svg" width="15.563" height="15.152" viewBox="0 0 15.563 15.152">
  <g id="download-folder" transform="translate(0.1 21.552) rotate(-90)">
    <path id="Path_372" data-name="Path 372" d="M20.6,285a.85.85,0,0,1,.854.854V290.5a.85.85,0,0,1-.854.854H7.385A.877.877,0,0,1,6.5,290.5v-4.647A.877.877,0,0,1,7.385,285a.85.85,0,0,1,.854.854v3.762H19.745v-3.762A.85.85,0,0,1,20.6,285Z" transform="translate(0 -275.991)" fill="red" stroke="red" stroke-width="0.2"/>
    <path id="Path_373" data-name="Path 373" d="M109.988,10.938,106.511,7.46a.849.849,0,0,1,1.2-1.2l2.023,1.992V.854a.854.854,0,1,1,1.707,0v7.4l1.992-1.992a.859.859,0,0,1,1.233,0,.822.822,0,0,1,0,1.2l-3.477,3.477a.84.84,0,0,1-1.2,0Z" transform="translate(-96.597)" fill="red" stroke="red" stroke-width="0.2"/>
  </g>
</svg>
