<svg xmlns="http://www.w3.org/2000/svg" width="23.586" height="23.303" viewBox="0 0 23.586 23.303">
  <g id="edit" transform="translate(0.2 0.2)">
    <path id="Path_357" data-name="Path 357" d="M21.245,51.314a.573.573,0,0,0-.573.573v5.09a1.722,1.722,0,0,1-1.72,1.72H2.866a1.722,1.722,0,0,1-1.72-1.72V42.038a1.722,1.722,0,0,1,1.72-1.72h5.09a.573.573,0,0,0,0-1.147H2.866A2.87,2.87,0,0,0,0,42.038V56.978a2.87,2.87,0,0,0,2.866,2.866H18.952a2.87,2.87,0,0,0,2.866-2.866v-5.09A.573.573,0,0,0,21.245,51.314Zm0,0" transform="translate(0 -36.941)" fill="#1d86e0" stroke="#1d86e0" stroke-width="0.4"/>
    <path id="Path_358" data-name="Path 358" d="M123.579,1.016a2.58,2.58,0,0,0-3.648,0L109.7,11.244a.573.573,0,0,0-.147.252l-1.345,4.856a.573.573,0,0,0,.705.706l4.856-1.345a.573.573,0,0,0,.252-.147L124.252,5.337a2.583,2.583,0,0,0,0-3.648Zm-12.627,10.6,8.371-8.371,2.7,2.7-8.371,8.371Zm-.539,1.082,2.157,2.157-2.983.827Zm13.028-8.172-.608.608-2.7-2.7.608-.608a1.433,1.433,0,0,1,2.027,0l.673.673A1.435,1.435,0,0,1,123.441,4.527Zm0,0" transform="translate(-101.987 -0.261)" fill="#1d86e0" stroke="#1d86e0" stroke-width="0.4"/>
  </g>
</svg>
