<svg xmlns="http://www.w3.org/2000/svg" width="13.094" height="13.626" viewBox="0 0 13.094 13.626">
  <g id="event" transform="translate(-0.074 0)">
    <path id="Path_335" data-name="Path 335" d="M12.158,42.852h-.551a1.23,1.23,0,0,1-2.446,0H4.082a1.23,1.23,0,0,1-2.447,0H1.084a1,1,0,0,0-1.01.994v2.136H13.168V43.846a1,1,0,0,0-1.009-.994Zm0,0" transform="translate(0 -41.27)" fill="#52afff"/>
    <path id="Path_336" data-name="Path 336" d="M256.99,2.168a.693.693,0,0,0,.693-.693V.7A.693.693,0,1,0,256.3.688v.788a.693.693,0,0,0,.693.693Zm0,0" transform="translate(-246.599)" fill="#52afff"/>
    <path id="Path_337" data-name="Path 337" d="M56.267,2.183a.693.693,0,0,0,.693-.693V.713A.693.693,0,0,0,55.574.7v.788a.693.693,0,0,0,.693.693Zm0,0" transform="translate(-53.415 -0.015)" fill="#52afff"/>
    <path id="Path_339" data-name="Path 339" d="M.082,148.921a1,1,0,0,0,1.009.994H12.166a1,1,0,0,0,1.009-.994v-7.3H.082Z" transform="translate(-0.008 -136.289)" fill="#52afff"/>
  </g>
</svg>
