<svg width="22" height="21" viewBox="0 0 22 21" fill="none" xmlns="http://www.w3.org/2000/svg">
<path d="M3.4566 0.785645L0 7.00588H3.86146L6.50451 0.785645H3.4566ZM8.34549 0.785645L5.70243 7.00588H16.2976L13.6545 0.785645H8.34549ZM18.5434 0.785645H15.4955L18.1385 7.00588H22L18.5434 0.785645ZM22 8.24993H18.1538L13.4559 18.0351C13.3986 18.1557 13.559 18.2645 13.6469 18.1634L22 8.24993ZM16.3396 8.24993H5.66042L10.8931 20.6204C10.9313 20.7137 11.0649 20.7137 11.1031 20.6204L16.3396 8.24993ZM8.5441 18.0351L3.84618 8.24993H0L8.35313 18.1595C8.44097 18.2645 8.60139 18.1557 8.5441 18.0351Z" fill="#8BA3B9"/>
</svg>
