<svg width="24" height="19" viewBox="0 0 24 19" fill="none" xmlns="http://www.w3.org/2000/svg">
<path d="M24 7.00151C24 8.10893 23.032 9.05585 21.9 9.05585H17.2195C17.9854 9.85498 18.0795 11.3886 16.9242 12.3814C17.594 13.4515 17.0249 14.8665 16.1531 15.3024C16.5738 17.6059 15.1244 18.6428 12.75 18.6428C12.6213 18.6428 12.1277 18.6333 12 18.6337C9.09511 18.6416 8.39559 17.1775 6.20011 16.8377C5.65294 16.753 5.25 16.2803 5.25 15.7265V7.68631L5.25009 7.68626C5.25061 6.82535 5.7473 6.00396 6.58434 5.63103C7.93838 5.02193 11.0568 3.33237 11.625 2.00651C11.9905 1.15367 12.6274 0.643197 13.5 0.642822C15.1042 0.642166 16.2071 2.28804 15.5681 3.77914C15.4001 4.17096 15.1785 4.56054 14.9047 4.94717H21.9C22.9992 4.94717 24 5.91012 24 7.00151V7.00151ZM4.5 7.01782V16.0178C4.5 16.6392 3.99633 17.1428 3.375 17.1428H1.125C0.503672 17.1428 0 16.6392 0 16.0178V7.01782C0 6.39649 0.503672 5.89282 1.125 5.89282H3.375C3.99633 5.89282 4.5 6.39649 4.5 7.01782ZM3.1875 14.8928C3.1875 14.375 2.76778 13.9553 2.25 13.9553C1.73222 13.9553 1.3125 14.375 1.3125 14.8928C1.3125 15.4106 1.73222 15.8303 2.25 15.8303C2.76778 15.8303 3.1875 15.4106 3.1875 14.8928Z" fill="#8BA3B9"/>
</svg>
