<svg xmlns="http://www.w3.org/2000/svg" width="15.438" height="11.82" viewBox="0 0 15.438 11.82">
  <path id="hank" d="M14.037,53.3a.446.446,0,0,0-.622-.024c-3.3,2.838-6.575,3.076-9.384,3.076-.592,0-1.185-.013-1.778-.026-.441-.009-.882-.019-1.323-.024a.42.42,0,0,0-.329.139,3.992,3.992,0,0,0,0,4.213A.508.508,0,0,0,.93,60.8c.293,0,.583-.01.873-.017a3.272,3.272,0,0,0-.046.521c0,2.066,1.906,3.684,4.34,3.684A4.132,4.132,0,0,0,10.38,61.89a13.424,13.424,0,0,1,3.04,1.938.456.456,0,0,0,.292.11.461.461,0,0,0,.324-.139c1.034-1.016,1.4-3.41,1.4-5.313C15.438,56.1,14.914,54.165,14.037,53.3ZM6.1,63.642c-1.744,0-3.218-1.072-3.218-2.341a1.667,1.667,0,0,1,.095-.542c.382-.008.764-.018,1.145-.018a15.483,15.483,0,0,1,5.186.722C9.185,62.66,7.767,63.642,6.1,63.642Z" transform="translate(0 -53.164)" fill="#52afff"/>
</svg>
