<svg xmlns="http://www.w3.org/2000/svg" width="19.971" height="27.428" viewBox="0 0 19.971 27.428">
  <g id="padlock" transform="translate(0.1 0.1)">
    <g id="Group_1311" data-name="Group 1311" transform="translate(7.183 14.713)">
      <g id="Group_1310" data-name="Group 1310">
        <path id="Path_359" data-name="Path 359" d="M207.893,276.673a2.7,2.7,0,0,0-1.859,4.664v2.44a1.859,1.859,0,0,0,3.718,0v-2.44a2.7,2.7,0,0,0-1.859-4.664Zm.956,3.716a1.287,1.287,0,0,0-.406.932v2.455a.55.55,0,1,1-1.1,0v-2.455a1.288,1.288,0,0,0-.406-.932,1.381,1.381,0,0,1-.438-1.015,1.393,1.393,0,1,1,2.787,0A1.381,1.381,0,0,1,208.849,280.389Z" transform="translate(-205.191 -276.673)" fill="#1d86e0" stroke="#1d86e0" stroke-width="0.2"/>
      </g>
    </g>
    <g id="Group_1313" data-name="Group 1313" transform="translate(0)">
      <g id="Group_1312" data-name="Group 1312">
        <path id="Path_360" data-name="Path 360" d="M87.918,11.161H85.955V5.96a5.96,5.96,0,1,0-11.92,0v5.2H72.073a1.965,1.965,0,0,0-1.963,1.963V25.265a1.965,1.965,0,0,0,1.963,1.963H87.918a1.965,1.965,0,0,0,1.963-1.963V13.124A1.965,1.965,0,0,0,87.918,11.161ZM75.344,5.96a4.651,4.651,0,1,1,9.3,0v5.2h-9.3Zm13.228,19.3h0a.655.655,0,0,1-.654.654H72.073a.655.655,0,0,1-.654-.654V13.124a.655.655,0,0,1,.654-.654H87.918a.655.655,0,0,1,.654.654Z" transform="translate(-70.11)" fill="#1d86e0" stroke="#1d86e0" stroke-width="0.2"/>
      </g>
    </g>
  </g>
</svg>
