<svg width="32" height="32" viewBox="0 0 32 32" fill="none" xmlns="http://www.w3.org/2000/svg">
<path d="M16 0C7.17706 0 0 7.17706 0 16C0 24.8229 7.17706 32 16 32C24.8229 32 32 24.8217 32 16C32 7.17831 24.8229 0 16 0ZM16 29.5213C8.54531 29.5213 2.47869 23.4559 2.47869 16C2.47869 8.54406 8.54531 2.47869 16 2.47869C23.4547 2.47869 29.5213 8.54406 29.5213 16C29.5213 23.4559 23.4559 29.5213 16 29.5213Z" fill="#50CBFF"/>
<path d="M22.1964 14.6489H17.239V9.69152C17.239 9.0074 16.685 8.45215 15.9996 8.45215C15.3142 8.45215 14.7602 9.0074 14.7602 9.69152V14.6489H9.80285C9.11748 14.6489 8.56348 15.2041 8.56348 15.8883C8.56348 16.5724 9.11748 17.1276 9.80285 17.1276H14.7602V22.085C14.7602 22.7691 15.3142 23.3244 15.9996 23.3244C16.685 23.3244 17.239 22.7691 17.239 22.085V17.1276H22.1964C22.8817 17.1276 23.4357 16.5724 23.4357 15.8883C23.4357 15.2041 22.8817 14.6489 22.1964 14.6489Z" fill="#50CBFF"/>
</svg>
