<svg width="32" height="32" viewBox="0 0 32 32" fill="none" xmlns="http://www.w3.org/2000/svg">
<g clip-path="url(#clip0)">
<path d="M31.8965 6.75246C31.8279 6.58709 31.7284 6.43922 31.6048 6.31547C31.5967 6.30741 31.5886 6.30603 31.5819 6.29935C31.4609 6.18504 31.3224 6.0896 31.1665 6.02504C31.0387 5.9726 30.9043 5.95648 30.7698 5.94435C30.7295 5.94166 30.6959 5.92285 30.6555 5.92285H19.8994C19.1559 5.92285 18.5548 6.52384 18.5548 7.26739C18.5548 8.01094 19.1558 8.61194 19.8994 8.61194H27.4233L16.7801 19.3156L12.7304 14.1312C12.4964 13.8314 12.1482 13.6458 11.7718 13.6175C11.3805 13.5893 11.0201 13.7224 10.7459 13.9819L0.42 23.7579C-0.11918 24.2689 -0.141992 25.1199 0.367563 25.6591C0.633809 25.9374 0.988741 26.0772 1.34505 26.0772C1.67717 26.0772 2.00922 25.9549 2.26872 25.7102L11.5203 16.9506L15.5983 22.1714C15.8363 22.4765 16.1926 22.6635 16.5784 22.6863C16.9643 22.7078 17.3394 22.5653 17.6124 22.2923L29.311 10.5265V18.0235C29.311 18.767 29.912 19.3681 30.6555 19.3681C31.399 19.3681 32.0001 18.7671 32.0001 18.0235V7.26746V7.26608C31.9987 7.08996 31.9637 6.91652 31.8965 6.75246Z" fill="#50CBFF"/>
</g>
<defs>
<clipPath id="clip0">
<rect width="32" height="32" fill="white"/>
</clipPath>
</defs>
</svg>
