<svg width="32" height="32" viewBox="0 0 32 32" fill="none" xmlns="http://www.w3.org/2000/svg">
<path d="M31.681 12.8417C30.8372 8.65196 28.4137 5.04216 24.8559 2.67733C21.4567 0.417871 17.3709 -0.452612 13.3438 0.223187C13.3171 0.227187 13.2905 0.231187 13.2638 0.235187C4.5725 1.74553 -1.26882 10.045 0.24146 18.7336C0.361458 19.4295 0.530705 20.124 0.740013 20.7905C1.62112 23.6525 1.40388 26.7198 0.129462 29.4285C-0.0931582 29.8977 -0.0198471 30.4549 0.314771 30.8535C0.64939 31.2521 1.17988 31.4161 1.68643 31.2815L7.66107 29.6498C10.1911 31.1988 13.0478 31.9999 15.9645 31.9999C17.0243 31.9999 18.092 31.8946 19.1558 31.68C23.3455 30.8362 26.9553 28.4128 29.3201 24.8549C31.685 21.297 32.5235 17.0314 31.681 12.8417ZM27.0994 23.3779C25.1278 26.3439 22.1192 28.3648 18.6293 29.0673C15.1421 29.7658 11.5842 29.07 8.61823 27.0984C8.39693 26.9518 8.13968 26.8758 7.87975 26.8758C7.76244 26.8758 7.64382 26.8918 7.52919 26.9225L3.45946 28.0329C4.14732 25.4108 4.09663 22.6341 3.28615 19.996C3.10884 19.4335 2.96753 18.8576 2.8676 18.2778C1.61318 11.0554 6.45071 4.1583 13.6584 2.87326C13.6824 2.87057 13.7064 2.86657 13.7304 2.86257C17.1043 2.28002 20.5303 3.00388 23.3803 4.89678C26.3463 6.86831 28.3658 9.877 29.0683 13.3669C29.7708 16.8581 29.0709 20.4133 27.0994 23.3779Z" fill="#50CBFF"/>
<path d="M21.3293 11.999H10.6651C9.92789 11.999 9.33203 12.5949 9.33203 13.3321C9.33203 14.0692 9.92789 14.6651 10.6651 14.6651H21.3293C22.0652 14.6651 22.6623 14.0692 22.6623 13.3321C22.6623 12.5949 22.0665 11.999 21.3293 11.999Z" fill="#50CBFF"/>
<path d="M21.3293 17.3311H10.6651C9.92789 17.3311 9.33203 17.9269 9.33203 18.6641C9.33203 19.4013 9.92789 19.9971 10.6651 19.9971H21.3293C22.0652 19.9971 22.6623 19.4013 22.6623 18.6641C22.6623 17.9269 22.0665 17.3311 21.3293 17.3311Z" fill="#50CBFF"/>
</svg>
