<svg width="48" height="48" viewBox="0 0 48 48" fill="none" xmlns="http://www.w3.org/2000/svg">
<g clip-path="url(#clip0)">
<path d="M24.0001 3.95009e-07C14.8544 -0.0016542 6.50266 5.19481 2.46337 13.4002C-1.57592 21.6056 -0.60057 31.3935 4.97852 38.6405C10.5576 45.8874 19.7706 49.3336 28.7361 47.5272C29.1737 47.8324 29.6938 47.9971 30.2273 47.9992C31.0985 47.9992 31.1753 47.8456 35.5145 45.5392C35.818 45.3772 36.1823 45.3772 36.4857 45.5392L40.5345 47.688C41.4171 48.1586 42.4903 48.0873 43.3028 47.504C44.1153 46.9208 44.5262 45.9267 44.3625 44.94L43.5761 40.3088C43.5205 39.9821 43.6284 39.6489 43.8649 39.4168L47.2169 36.1176C47.8062 35.539 48.0866 34.7156 47.9729 33.8976C47.8592 33.0797 47.3648 32.3639 46.6401 31.968C49.2108 24.6245 48.0668 16.4908 43.57 10.1413C39.0733 3.79191 31.7806 0.012734 24.0001 3.95009e-07ZM33.6665 26.2208C33.6083 25.3043 33.6893 24.3843 33.9065 23.492C33.9288 23.3981 33.9406 23.3021 33.9417 23.2056C33.9417 22.6144 33.9121 22.0504 33.9001 21.5016C33.9001 21.372 34.0113 20.792 34.9401 20.792C34.9697 20.792 35.0329 20.8 35.0793 20.8008C35.3193 21.1136 35.3761 22.5064 35.1001 23.8824C35.0589 24.2967 34.9587 24.7029 34.8025 25.0888C34.3143 25.3373 33.9168 25.7334 33.6665 26.2208ZM35.0489 19.2C34.9961 19.2 34.9425 19.1904 34.8889 19.2C34.4954 19.2 34.1057 19.2781 33.7425 19.4296C33.0321 13.1096 30.6841 11.6232 30.4009 11.4672C30.0264 11.2605 29.5556 11.3849 29.3321 11.7496C27.2241 15.1896 22.1625 15.6856 22.1825 15.6872H18.0081C15.5385 15.6872 14.0081 16.896 13.9129 18.9168C13.9065 19.0352 13.9033 19.1704 13.9017 19.3168C13.8217 19.2952 13.7417 19.2704 13.6617 19.2544C13.1129 17.6661 12.822 16.0003 12.8001 14.32C12.8001 9.3376 17.6465 4.8 22.9681 4.8C28.3993 4.8 30.5409 8.3328 30.6273 8.48C30.7702 8.72752 31.0343 8.87999 31.3201 8.88H31.5345C31.7169 8.8912 36.0001 9.2 36.0001 15.04C35.9912 16.4796 35.6665 17.8996 35.0489 19.2ZM12.9369 20.7864C13.3825 20.852 13.9225 20.8128 13.9769 21.3128C14.0241 21.7688 14.0569 22.4936 14.2025 24.0032C14.3511 24.8679 14.3917 25.7477 14.3233 26.6224C13.5323 25.958 13.0273 25.0147 12.9129 23.988C12.9105 23.9538 12.9057 23.9199 12.8985 23.8864C12.6065 22.428 12.6905 20.9472 12.9369 20.7832V20.7864ZM15.7969 23.9168C15.7913 23.8368 15.4361 20.3968 15.5113 18.9928C15.5305 18.5696 15.5913 17.2816 18.0081 17.2816H22.2537C22.4785 17.2624 27.4137 16.7888 30.1361 13.3816C30.8225 14.248 31.9761 16.3536 32.2737 20.944C32.3065 21.4512 32.3681 23.0336 32.3377 23.1904C31.5953 26.9856 32.7137 28.1088 31.6121 30.4208C31.4644 30.7306 31.1712 30.9457 30.8313 30.9936L26.2481 31.6664C25.2641 31.8079 24.4453 32.4947 24.1347 33.439C23.8241 34.3833 24.0754 35.4221 24.7833 36.12L25.4649 36.7912C24.5245 36.8556 23.5809 36.8586 22.6401 36.8C20.4345 36.8 20.5505 34.6344 17.7289 32.0712C14.7841 29.4032 16.3913 27.4024 15.7969 23.9136V23.9168ZM18.1537 38.98C18.3117 38.8285 18.4008 38.6189 18.4001 38.4V35.2856C19.5793 36.96 20.3305 38.4 22.6401 38.4C25.4129 38.4 25.9561 38.48 26.8329 38.1344L28.1353 39.4144C28.3718 39.6465 28.4797 39.9797 28.4241 40.3064L28.0065 42.768C23.8154 43.6705 19.4425 43.135 15.5929 41.248C16.8417 40.2352 18.0873 39.04 18.1537 38.9768V38.98ZM46.0945 34.98L42.7433 38.2792C42.1339 38.878 41.8555 39.7368 41.9977 40.5792L42.7841 45.2104C42.847 45.5963 42.685 45.9844 42.3664 46.2111C42.0478 46.4378 41.6281 46.4636 41.2841 46.2776L37.2361 44.128C36.4632 43.7175 35.537 43.7175 34.7641 44.128L30.7201 46.2752C30.3759 46.4635 29.9544 46.4389 29.6345 46.2118C29.3145 45.9848 29.1521 45.5951 29.2161 45.208L30.0025 40.5768C30.1447 39.7344 29.8663 38.8756 29.2569 38.2768L25.9057 34.9768C25.6292 34.7053 25.5314 34.3 25.6536 33.9322C25.7759 33.5644 26.0969 33.2984 26.4809 33.2464L31.0641 32.5736C31.7934 32.4575 32.4432 32.0478 32.8625 31.44C32.9977 31.2544 32.9233 31.3808 35.0745 26.9768C35.2479 26.6238 35.6069 26.4002 36.0001 26.4002C36.3934 26.4002 36.7524 26.6238 36.9257 26.9768L38.9553 31.1312C39.3386 31.9078 40.0792 32.4462 40.9361 32.5712L45.5193 33.244C45.9044 33.2956 46.2263 33.5623 46.3487 33.931C46.471 34.2998 46.3724 34.706 46.0945 34.9776V34.98ZM45.0873 31.568L41.1673 30.9928C40.8325 30.9447 40.5425 30.7355 40.3913 30.4328L38.3617 26.2792C38.01 25.5556 37.3429 25.0357 36.5553 24.8712C36.6141 24.6366 36.6561 24.3982 36.6809 24.1576C36.8409 23.3576 37.1609 21.2016 36.4409 19.9976C38.9513 14.7248 37.4009 7.9928 31.7561 7.3072C30.9713 6.2072 28.3121 3.2 22.9681 3.2C16.6993 3.2 11.2001 8.4 11.2001 14.32C11.2198 16.064 11.5052 17.7948 12.0465 19.4528C10.7161 20.3936 11.1361 23.2176 11.3185 24.1536C11.5105 26.0047 12.6292 27.6317 14.2889 28.4736C14.3865 30.6872 15.2617 31.944 16.8001 33.4016V38.0552C15.8048 39.0029 14.7559 39.8927 13.6585 40.72C13.4358 40.8776 13.3088 41.1379 13.3216 41.4105C13.3344 41.6831 13.4852 41.9303 13.7217 42.0664C17.959 44.4892 22.9153 45.3391 27.7177 44.4664C27.5727 44.997 27.5669 45.5561 27.7009 46.0896C17.7285 47.758 7.87472 42.5388 3.65194 33.3518C-0.570836 24.1649 1.88438 13.2879 9.6441 6.80568C17.4038 0.323472 28.5441 -0.156772 36.8329 5.6336C45.1217 11.424 48.5038 22.0493 45.0873 31.5656V31.568Z" fill="#50CBFF"/>
</g>
<defs>
<clipPath id="clip0">
<rect width="48" height="48" fill="white"/>
</clipPath>
</defs>
</svg>
