<svg width="14" height="15" viewBox="0 0 14 15" fill="none" xmlns="http://www.w3.org/2000/svg">
<path d="M13.9831 5.54378C13.9831 5.32179 13.8262 5.18371 13.5126 5.12957L9.29427 4.47169L7.40362 0.36897C7.2969 0.122219 7.15954 -0.000769889 6.99153 3.62586e-06C6.82352 0.000777141 6.68615 0.123766 6.57943 0.36897L4.68878 4.47169L0.4705 5.12957C0.156833 5.18371 0 5.32179 0 5.54378C0.0182263 5.71073 0.0928822 5.86471 0.209832 5.97657L3.26862 9.16732L2.54611 13.675C2.53689 13.7345 2.53111 13.7945 2.5288 13.8548C2.52551 13.969 2.55661 14.0813 2.6175 14.1751C2.64793 14.2189 2.68814 14.2539 2.73443 14.2768C2.78072 14.2997 2.83162 14.3098 2.88249 14.3062C3.00125 14.3008 3.11688 14.2637 3.21887 14.1983L6.99153 12.0703L10.7653 14.1983C10.8667 14.2652 10.9826 14.3024 11.1016 14.3062C11.1512 14.3091 11.2006 14.2986 11.2454 14.2757C11.2902 14.2528 11.3289 14.2182 11.358 14.1751C11.4184 14.0811 11.4491 13.9689 11.4456 13.8548C11.4464 13.7947 11.4435 13.7346 11.4369 13.675L10.7144 9.16732L13.7646 5.97657C13.8874 5.86854 13.9658 5.71316 13.9831 5.54378Z" fill="#50CBFF"/>
</svg>
