<svg width="48" height="48" viewBox="0 0 48 48" fill="none" xmlns="http://www.w3.org/2000/svg">
<path d="M16.6531 46.251C20.9322 49.5913 27.534 47.5647 32.1668 44.6964C42.6569 38.199 46.3105 28.386 42.4974 17.0225C44.4885 15.1644 45.6287 12.4551 45.6177 9.60815C45.49 6.75187 44.47 4.42524 43.4472 2.18102C42.9878 1.17612 42.8342 0.850486 42.7596 0.722474C42.4317 0.181006 41.8349 -0.0929655 41.2477 0.0284404C40.6605 0.149846 40.1988 0.642691 40.078 1.27693C39.7346 2.79708 39.0972 5.63576 35.3248 6.083C35.0463 6.11581 34.7893 6.16781 34.5308 6.22222C31.946 5.18211 20.7372 3.44594 11.5063 8.89608C1.21999 14.9687 0.94452 26.1826 7.09873 29.5205C9.96055 31.0703 12.2685 31.5575 13.4117 32.4192L3.59734 43.8579C2.77326 44.8355 2.80567 46.3427 3.67087 47.2776C4.53608 48.2126 5.92738 48.2439 6.82769 47.3487L13.9213 40.2072C13.8535 42.5872 14.8761 44.8496 16.6531 46.251ZM31.4312 43.3075C24.8398 47.3879 19.9219 46.8318 17.5143 44.9524C15.7507 43.5763 15.0483 41.3337 15.5357 38.579L33.7945 20.198C36.242 21.2093 39.1467 19.8476 41.2907 18.1178C44.5284 28.4348 41.0543 37.3493 31.4312 43.3075ZM35.4843 7.67356C40.2848 7.1047 41.1459 3.28673 41.5122 1.58016C41.5861 1.70897 41.9472 2.50665 42.123 2.89069C43.0942 5.0189 44.0269 7.1015 44.1421 9.68496C44.2559 12.2084 42.9176 14.5502 41.1562 16.1928C40.3394 16.9553 37.6113 19.2579 35.0264 18.8819C36.4902 16.3832 32.9903 12.1532 30.3456 13.0717C30.545 9.99859 32.2436 8.0544 35.4843 7.67356ZM7.75898 28.0804C5.70002 26.9376 4.42811 24.6172 4.48727 22.1118C4.4304 18.6394 6.43035 13.715 12.2138 10.301C19.4094 6.0534 27.9461 6.44144 31.9999 7.19831C28.9719 9.0921 28.7784 12.7461 28.8678 14.399L14.4213 31.2383C13.0004 30.0606 10.7707 29.7157 7.75898 28.0804ZM5.82623 46.1726C5.50903 46.491 5.01642 46.4818 4.70963 46.1515C4.40283 45.8213 4.39108 45.2877 4.68298 44.942C31.9105 13.1941 30.641 14.6599 30.7148 14.6166C31.1491 14.3766 32.1277 14.6663 32.9489 15.5559C33.7702 16.4456 34.0368 17.5041 33.8241 17.9562C33.7768 18.0514 35.1749 16.6312 5.82623 46.1726Z" fill="#50CBFF"/>
<path d="M22.9385 7.99805C21.307 7.99805 19.9844 9.43088 19.9844 11.1984C19.9844 12.9659 21.307 14.3987 22.9385 14.3987C24.57 14.3987 25.8927 12.9659 25.8927 11.1984C25.8927 10.3496 25.5814 9.53558 25.0274 8.9354C24.4734 8.33522 23.722 7.99805 22.9385 7.99805ZM22.9385 12.7985C22.1228 12.7985 21.4614 12.0821 21.4614 11.1984C21.4614 10.3146 22.1228 9.59821 22.9385 9.59821C23.7543 9.59821 24.4156 10.3146 24.4156 11.1984C24.4156 12.0821 23.7543 12.7985 22.9385 12.7985Z" fill="#50CBFF"/>
<path d="M15.5528 11.1992C13.9212 11.1992 12.5986 12.6321 12.5986 14.3995C12.5986 16.167 13.9212 17.5999 15.5528 17.5999C17.1843 17.5999 18.5069 16.167 18.5069 14.3995C18.5069 12.6321 17.1843 11.1992 15.5528 11.1992ZM15.5528 15.9997C14.737 15.9997 14.0757 15.2833 14.0757 14.3995C14.0757 13.5158 14.737 12.7994 15.5528 12.7994C16.3685 12.7994 17.0299 13.5158 17.0299 14.3995C17.0299 15.2833 16.3685 15.9997 15.5528 15.9997Z" fill="#50CBFF"/>
<path d="M9.64359 17.5996C8.01207 17.5996 6.68945 19.0324 6.68945 20.7999C6.68945 22.5674 8.01207 24.0003 9.64359 24.0003C11.2751 24.0003 12.5977 22.5674 12.5977 20.7999C12.5977 19.0324 11.2751 17.5996 9.64359 17.5996ZM9.64359 22.4001C8.82783 22.4001 8.16652 21.6837 8.16652 20.7999C8.16652 19.9162 8.82783 19.1998 9.64359 19.1998C10.4594 19.1998 11.1207 19.9162 11.1207 20.7999C11.1207 21.6837 10.4594 22.4001 9.64359 22.4001Z" fill="#50CBFF"/>
<path d="M22.2002 37.6016C20.5687 37.6016 19.2461 39.0344 19.2461 40.8019C19.2461 42.5694 20.5687 44.0022 22.2002 44.0022C23.8318 44.0022 25.1544 42.5694 25.1544 40.8019C25.1544 39.0344 23.8318 37.6016 22.2002 37.6016ZM22.2002 42.402C21.3845 42.402 20.7232 41.6856 20.7232 40.8019C20.7232 39.9181 21.3845 39.2017 22.2002 39.2017C23.016 39.2017 23.6773 39.9181 23.6773 40.8019C23.6773 41.6856 23.016 42.402 22.2002 42.402Z" fill="#50CBFF"/>
<path d="M29.585 34.4004C27.9535 34.4004 26.6309 35.8332 26.6309 37.6007C26.6309 39.3682 27.9535 40.801 29.585 40.801C31.2165 40.801 32.5392 39.3682 32.5392 37.6007C32.5392 35.8332 31.2165 34.4004 29.585 34.4004ZM29.585 39.2009C28.7692 39.2009 28.1079 38.4845 28.1079 37.6007C28.1079 36.717 28.7692 36.0006 29.585 36.0006C30.4008 36.0006 31.0621 36.717 31.0621 37.6007C31.0621 38.4845 30.4008 39.2009 29.585 39.2009Z" fill="#50CBFF"/>
<path d="M35.4932 28C33.8617 28 32.5391 29.4328 32.5391 31.2003C32.5391 32.9678 33.8617 34.4006 35.4932 34.4006C37.1247 34.4006 38.4474 32.9678 38.4474 31.2003C38.4474 29.4328 37.1247 28 35.4932 28ZM35.4932 32.8005C34.6774 32.8005 34.0161 32.0841 34.0161 31.2003C34.0161 30.3166 34.6774 29.6002 35.4932 29.6002C36.309 29.6002 36.9703 30.3166 36.9703 31.2003C36.9703 32.0841 36.309 32.8005 35.4932 32.8005Z" fill="#50CBFF"/>
</svg>
