<svg xmlns="http://www.w3.org/2000/svg" viewBox="0 0 413 93.6">
  <defs>
    <style>
      .a {
        fill: #000;
      }

      .b {
        opacity: 0.75;
      }
    </style>
  </defs>
  <title>Web_logo_white_1</title>
  <g>
    <g>
      <path class="a" d="M26.4,29.7H10.3V43.3H29.4v8.6H0V.7H29.3V9.3h-19V21.4H26.4Z"/>
      <path class="a" d="M71.1,51.9H60.8L45.7,18.3V51.9H35.3V.7H45.7L60.8,34.3V.7H71.1Z"/>
      <path class="a" d="M96.3.7h10.3V36.1q0,7.5-4.2,12a13.7,13.7,0,0,1-10.6,4.5c-4.7,0-8.4-1.4-11-4.2s-3.9-6.7-3.9-11.6H87.3q0,7.2,4.5,7.2t4.5-8.4Z"/>
      <path class="a" d="M150.7,30.9c0,6.9-1.6,12.2-4.8,16s-7.8,5.7-13.5,5.7-10.3-1.9-13.6-5.6-4.9-9.1-5-15.9V22.4c0-7,1.7-12.5,4.9-16.5S126.5,0,132.3,0s10.2,1.9,13.5,5.8,4.9,9.3,4.9,16.3Zm-10.3-8.6c0-4.6-.7-8-2-10.3a7.2,7.2,0,0,0-12.2-.1c-1.3,2.2-2,5.5-2,9.9v9.1c0,4.5.6,7.8,2,9.9a6.8,6.8,0,0,0,6.2,3.2,6.7,6.7,0,0,0,6-3.1c1.3-2.1,2-5.3,2-9.7Z"/>
      <path class="a" d="M172.1,23.7l7.7-23H191L177.3,33.3V51.9H166.9V33.3L153.1.7h11.3Z"/>
      <g>
        <path class="a" d="M246.5,9.3H233.8V51.9H223.4V9.3H211V.7h35.5Z"/>
        <path class="a" d="M287.5,30.9c0,6.9-1.7,12.2-4.9,16s-7.8,5.7-13.5,5.7-10.3-1.9-13.6-5.6-4.9-9.1-5-15.9V22.4c0-7,1.7-12.5,4.9-16.5S263.2,0,269,0s10.2,1.9,13.5,5.8,4.9,9.3,5,16.3Zm-10.4-8.6c0-4.6-.7-8-2-10.3a7.2,7.2,0,0,0-12.2-.1c-1.3,2.2-2,5.5-2,9.9v9.1c0,4.5.6,7.8,2,9.9a6.8,6.8,0,0,0,6.2,3.2,6.7,6.7,0,0,0,6-3.1c1.3-2.1,2-5.3,2-9.7Z"/>
        <path class="a" d="M328.2.7V36.1c-.1,5.4-1.5,9.4-4.4,12.3s-7,4.2-12.4,4.2-9.7-1.4-12.6-4.3-4.3-7-4.3-12.4V.7h10.4V35.9c0,2.9.4,5,1.4,6.3s2.6,1.8,5.1,1.8,4.1-.6,5-1.8,1.4-3.3,1.4-6.1V.7Z"/>
        <path class="a" d="M370.7,34.8c-.2,5.9-1.9,10.3-4.9,13.3s-7.3,4.5-12.8,4.5-10.2-1.9-13.3-5.7-4.6-9.3-4.6-16.3V22c0-7.1,1.6-12.5,4.7-16.3S347.5,0,353.1,0s9.8,1.6,12.7,4.7,4.6,7.6,5,13.4H360.4c-.1-3.6-.6-6.1-1.7-7.5s-2.9-2-5.6-2-4.7.9-5.8,2.9-1.8,5.1-1.9,9.5v9.7c0,5.1.6,8.6,1.7,10.5S350.2,44,353,44s4.6-.6,5.6-2,1.6-3.7,1.8-7.2Z"/>
        <path class="a" d="M413,51.9H402.7V30H387.4V51.9H377.1V.7h10.3V21.4h15.3V.7H413Z"/>
      </g>
    </g>
    <g class="b">
      <path class="a" d="M14.5,78.7a7.5,7.5,0,0,1-.5,2.6,6.9,6.9,0,0,1-1.3,2,7.1,7.1,0,0,1-2.6,1.6,9.9,9.9,0,0,1-3.7.6H3.7v7.7H.9V72.5H6.5a14.5,14.5,0,0,1,3.2.3,6,6,0,0,1,2.3,1,4.7,4.7,0,0,1,1.8,1.9A5.6,5.6,0,0,1,14.5,78.7Zm-2.9.1a4.1,4.1,0,0,0-.4-1.9,3.3,3.3,0,0,0-1.1-1.3A9.4,9.4,0,0,0,8.6,75l-2.2-.2H3.7v8.3H6a10.1,10.1,0,0,0,2.7-.3,3.9,3.9,0,0,0,1.7-.9,3.3,3.3,0,0,0,.9-1.4A4.7,4.7,0,0,0,11.6,78.8Z"/>
      <path class="a" d="M36.4,93.2h-3l-2-5.8H22.5l-2.1,5.8H17.6l7.6-20.7h3.6ZM30.6,85,26.9,74.9,23.3,85Z"/>
      <path class="a" d="M53.2,83.2a3.3,3.3,0,0,1,1.1,1.5,5.2,5.2,0,0,1,.5,2.3,6,6,0,0,1-.6,2.7,10.6,10.6,0,0,1-1.7,2,6.9,6.9,0,0,1-2.7,1.4,12.1,12.1,0,0,1-3.4.5,22.2,22.2,0,0,1-3.8-.4l-2.8-.8V89.3H40a14.4,14.4,0,0,0,3.1,1.3,10.5,10.5,0,0,0,3.3.6l2.2-.3a4.8,4.8,0,0,0,1.9-.9,3.6,3.6,0,0,0,1.1-1.4,4.7,4.7,0,0,0,.3-1.7,3,3,0,0,0-.4-1.8,3.2,3.2,0,0,0-1.1-1.2l-1.7-.6-2.3-.2H43.6V80.8h2.5a7.5,7.5,0,0,0,3.9-.9,2.7,2.7,0,0,0,1.4-2.5,3.2,3.2,0,0,0-.3-1.4,2.8,2.8,0,0,0-1-.9l-1.4-.5H46.8l-2,.2-1.7.5-1.4.6-1,.5h-.2v-3a13.6,13.6,0,0,1,2.8-.8,13.9,13.9,0,0,1,3.5-.4,12.3,12.3,0,0,1,2.9.3,6.3,6.3,0,0,1,2.3.8,5.5,5.5,0,0,1,1.7,1.7,4.8,4.8,0,0,1,.5,2.2,4.3,4.3,0,0,1-1.1,3,5.9,5.9,0,0,1-2.9,1.6v.2a5.3,5.3,0,0,1,1.6.4A4.2,4.2,0,0,1,53.2,83.2Z"/>
      <path class="a" d="M74.5,78.7a7.5,7.5,0,0,1-.5,2.6,5.3,5.3,0,0,1-1.3,2,6.7,6.7,0,0,1-2.5,1.6,10.2,10.2,0,0,1-3.7.6H63.7v7.7H61V72.5h5.6a13.5,13.5,0,0,1,3.1.3,5.4,5.4,0,0,1,2.3,1,5.8,5.8,0,0,1,1.9,1.9A6.7,6.7,0,0,1,74.5,78.7Zm-2.9.1a5.8,5.8,0,0,0-.3-1.9,4.9,4.9,0,0,0-1.2-1.3,5.2,5.2,0,0,0-1.5-.6l-2.2-.2H63.7v8.3H66a9.6,9.6,0,0,0,2.7-.3,3.9,3.9,0,0,0,1.7-.9,5.3,5.3,0,0,0,1-1.4A4.7,4.7,0,0,0,71.6,78.8Z"/>
      <path class="a" d="M96.4,93.2H93.5l-2.1-5.8H82.5l-2,5.8H77.7l7.5-20.7h3.7ZM90.6,85,87,74.9,83.3,85Z"/>
      <path class="a" d="M117.1,86.8a6,6,0,0,1-.6,2.7,5,5,0,0,1-1.5,2,8.5,8.5,0,0,1-2.5,1.3,11.6,11.6,0,0,1-3.5.4h-7.5V72.5h13.9v2.4H104.3v5.7h4.8l3.4.2a6.8,6.8,0,0,1,2.6,1.2,4.3,4.3,0,0,1,1.5,2A6.4,6.4,0,0,1,117.1,86.8Zm-2.8,0a4.8,4.8,0,0,0-.4-1.8,2.8,2.8,0,0,0-1.1-1.3,4.9,4.9,0,0,0-1.7-.6h-6.8v7.8H111a7.5,7.5,0,0,0,1.8-.7,3.3,3.3,0,0,0,1.1-1.3A4.9,4.9,0,0,0,114.3,86.8Z"/>
      <path class="a" d="M138.4,74.8a10,10,0,0,1,2,3.5,15.3,15.3,0,0,1,.6,4.5,13.1,13.1,0,0,1-.7,4.6,8.6,8.6,0,0,1-1.9,3.4,8.1,8.1,0,0,1-3,2.1,10.2,10.2,0,0,1-4,.7,10.5,10.5,0,0,1-4-.7,8.1,8.1,0,0,1-3-2.1,9.4,9.4,0,0,1-1.9-3.4,12.7,12.7,0,0,1-.7-4.6,12.5,12.5,0,0,1,.7-4.5,10.8,10.8,0,0,1,1.9-3.5,6.9,6.9,0,0,1,3-2,11,11,0,0,1,4-.8,10.2,10.2,0,0,1,4,.8A7.9,7.9,0,0,1,138.4,74.8Zm-.2,8a9.5,9.5,0,0,0-1.8-6.2,6.1,6.1,0,0,0-5-2.2,5.9,5.9,0,0,0-4.9,2.2,9.5,9.5,0,0,0-1.8,6.2,9.7,9.7,0,0,0,1.8,6.3,6.2,6.2,0,0,0,4.9,2.1,6.1,6.1,0,0,0,4.9-2.1C137.6,87.6,138.2,85.6,138.2,82.8Z"/>
      <path class="a" d="M162.1,74.9h-7.4V93.2H152V74.9h-7.4V72.5h17.5Z"/>
      <path class="a" d="M183.5,93.2H180l-8.5-9.5h-1.8v9.5h-2.8V72.5h2.8v9.3l1.3-.2,1.2-.4,1.1-1a3.4,3.4,0,0,0,.9-1.4,9.3,9.3,0,0,0,.5-1l.5-1.2a7.5,7.5,0,0,1,2.2-3.2,6.7,6.7,0,0,1,3.8-.9h1.1v2.4h-1.1l-1.6.2-.9.6a2,2,0,0,0-.7,1,9.8,9.8,0,0,0-.6,1.4,10.8,10.8,0,0,1-1.5,2.7,6.2,6.2,0,0,1-2,1.5Z"/>
      <path class="a" d="M204.9,93.2h-3l-2-5.8h-9l-2,5.8h-2.8l7.6-20.7h3.6ZM199.1,85l-3.7-10.1L191.8,85Z"/>
      <path class="a" d="M246,72.5l-5.4,20.7h-3.1L233.2,76l-4.3,17.2h-3l-5.5-20.7h2.8l4.4,17.2,4.3-17.2h2.8L239,89.9l4.3-17.4Z"/>
      <path class="a" d="M265.7,93.2H252V72.5h13.7v2.4H254.8v5.7h10.9V83H254.8v7.7h10.9Z"/>
      <path class="a" d="M287.6,86.8a5.7,5.7,0,0,1-.6,2.7,6.2,6.2,0,0,1-1.5,2,9.1,9.1,0,0,1-2.6,1.3,11.9,11.9,0,0,1-3.6.4H272V72.5h9.5a8.1,8.1,0,0,1,2.2.7,3.5,3.5,0,0,1,1.6,1.6,3.8,3.8,0,0,1,.5,2.2,4.1,4.1,0,0,1-.7,2.5,5.5,5.5,0,0,1-2,1.7h0a5.9,5.9,0,0,1,3.3,1.8A5.6,5.6,0,0,1,287.6,86.8ZM283,77.5a2.8,2.8,0,0,0-.3-1.3,1.5,1.5,0,0,0-.8-.8,3.4,3.4,0,0,0-1.6-.5h-5.6v6h5.7a4.2,4.2,0,0,0,1.4-.6,2.4,2.4,0,0,0,.9-1.1A3.3,3.3,0,0,0,283,77.5Zm1.7,9.4a5.6,5.6,0,0,0-.3-2,2.8,2.8,0,0,0-1.4-1.2l-1.6-.5h-6.7v7.7h3.7a13.2,13.2,0,0,0,3-.2,4.2,4.2,0,0,0,1.8-.6,3.7,3.7,0,0,0,1.2-1.3A4.2,4.2,0,0,0,284.7,86.9Z"/>
      <path class="a" d="M301.6,85.4h-8.7V82.9h8.7Z"/>
      <path class="a" d="M324.5,91.7l-1.4.6-1.6.6-1.9.5-2.2.2a11,11,0,0,1-4.1-.7,8.3,8.3,0,0,1-3.2-2,9.9,9.9,0,0,1-2.1-3.3,14.3,14.3,0,0,1-.7-4.8,12.5,12.5,0,0,1,.7-4.5,8.9,8.9,0,0,1,2.1-3.4,9.9,9.9,0,0,1,3.2-2.1,11.2,11.2,0,0,1,4.2-.7,12.4,12.4,0,0,1,3.3.4,19.4,19.4,0,0,1,3.7,1.4v3.3h-.2a11.6,11.6,0,0,0-3.4-2.1,10.5,10.5,0,0,0-3.6-.7,6.8,6.8,0,0,0-2.9.6,6.2,6.2,0,0,0-2.2,1.5,8.7,8.7,0,0,0-1.5,2.7,10.1,10.1,0,0,0-.5,3.6,10.4,10.4,0,0,0,.6,3.8,8.1,8.1,0,0,0,1.5,2.6,5.1,5.1,0,0,0,2.3,1.5,7.6,7.6,0,0,0,2.7.5,9,9,0,0,0,3.7-.7,11.2,11.2,0,0,0,3.3-2h.2Z"/>
      <path class="a" d="M346.7,93.2h-3l-2-5.8h-9l-2,5.8h-2.8l7.5-20.7h3.7ZM340.8,85l-3.6-10.1L333.6,85Z"/>
      <path class="a" d="M367.6,93.2h-2.8V76.6L354.5,93.2h-2.8V72.5h2.8V88.8l10.2-16.3h2.9ZM365,66.3a4.2,4.2,0,0,1-1.4,3.4,5.8,5.8,0,0,1-3.8,1.2,5.5,5.5,0,0,1-3.7-1.2,4.5,4.5,0,0,1-1.5-3.4h2.6a2.9,2.9,0,0,0,.7,2.2,2.4,2.4,0,0,0,1.9.7,2.4,2.4,0,0,0,2-.7,2.8,2.8,0,0,0,.7-2.2Z"/>
      <path class="a" d="M389.8,74.9h-7.4V93.2h-2.7V74.9h-7.4V72.5h17.5Z"/>
      <path class="a" d="M410.9,93.2H408l-2.1-5.8H397l-2.1,5.8h-2.8l7.6-20.7h3.7ZM405.1,85l-3.6-10.1L397.8,85Z"/>
    </g>
  </g>
</svg>
