<svg width="99" height="64" viewBox="0 0 99 64" fill="none" xmlns="http://www.w3.org/2000/svg">
<path d="M22.3652 14.5696C22.1537 14.5656 21.9436 14.6048 21.7478 14.6849C21.552 14.765 21.3746 14.8843 21.2266 15.0354C21.0786 15.1805 20.9611 15.3537 20.8811 15.5448C20.8011 15.7359 20.7602 15.9411 20.7607 16.1483V20.2372C19.8483 19.7099 18.8126 19.4331 17.7587 19.435C16.9382 19.4269 16.1251 19.5909 15.3718 19.9163C14.6185 20.2417 13.9417 20.7213 13.3851 21.3242C12.238 22.5274 11.5981 24.126 11.5981 25.7884C11.5981 27.4508 12.238 29.0493 13.3851 30.2526C13.945 30.8495 14.623 31.3234 15.3759 31.6442C16.1289 31.965 16.9403 32.1256 17.7587 32.1159C18.885 32.1282 19.9908 31.8136 20.9419 31.2101C21.0328 31.4228 21.1751 31.6095 21.3559 31.7536C21.6323 32.0013 21.9944 32.1313 22.3652 32.1159C22.5724 32.1164 22.7776 32.0755 22.9687 31.9955C23.1599 31.9155 23.333 31.798 23.4781 31.6501C23.6253 31.5099 23.7425 31.3413 23.8225 31.1544C23.9026 30.9676 23.9439 30.7664 23.9439 30.5631V16.1483C23.9439 15.7296 23.7776 15.328 23.4815 15.032C23.1855 14.7359 22.7839 14.5696 22.3652 14.5696ZM17.7587 28.9586C17.363 28.9621 16.9712 28.8808 16.6096 28.7201C16.248 28.5593 15.925 28.323 15.6625 28.027C15.3663 27.7384 15.133 27.3917 14.9772 27.0087C14.8213 26.6257 14.7462 26.2147 14.7567 25.8013C14.7468 25.3803 14.8219 24.9616 14.9775 24.5703C15.1331 24.179 15.3661 23.8231 15.6625 23.5239C15.9263 23.2312 16.2501 22.9988 16.6118 22.8425C16.9736 22.6862 17.3647 22.6097 17.7587 22.6181C18.1529 22.608 18.5446 22.6837 18.9066 22.8401C19.2686 22.9966 19.5922 23.2299 19.8549 23.5239C20.1563 23.8194 20.3926 24.1747 20.5486 24.5669C20.7045 24.9591 20.7768 25.3795 20.7607 25.8013C20.7777 26.2155 20.7056 26.6285 20.5493 27.0124C20.3931 27.3964 20.1563 27.7423 19.8549 28.027C19.5935 28.3243 19.2707 28.5616 18.9089 28.7224C18.547 28.8832 18.1546 28.9638 17.7587 28.9586Z" fill="white"/>
<path d="M35.7969 19.4352C35.4309 19.4309 35.0778 19.5703 34.8135 19.8234C34.6398 19.9744 34.4988 20.1593 34.3994 20.3669C33.2485 19.6151 31.8662 19.3009 30.5034 19.4814C29.1406 19.6618 27.8876 20.3249 26.972 21.3503C26.3999 21.9386 25.9517 22.6356 25.6539 23.4002C25.3561 24.1648 25.2147 24.9814 25.2381 25.8016C25.204 27.4641 25.8271 29.0729 26.972 30.2788C27.5244 30.8696 28.1942 31.3383 28.9386 31.6547C29.6829 31.9712 30.4852 32.1284 31.2939 32.1162C32.3959 32.1285 33.4768 31.8132 34.3994 31.2104C34.492 31.4294 34.6337 31.6242 34.8135 31.7798C35.0896 32.0075 35.4392 32.1271 35.7969 32.1162C36.2023 32.1145 36.5915 31.957 36.8839 31.6762C37.0309 31.5318 37.146 31.3581 37.2217 31.1664C37.2975 30.9748 37.3323 30.7694 37.3238 30.5634V21.0139C37.3292 20.8083 37.293 20.6038 37.2174 20.4126C37.1418 20.2214 37.0284 20.0474 36.8839 19.9011C36.7437 19.7539 36.575 19.6367 36.3882 19.5566C36.2014 19.4765 36.0002 19.4352 35.7969 19.4352ZM31.2939 29.0107C30.9051 29.0274 30.5174 28.9571 30.1592 28.8048C29.801 28.6526 29.4814 28.4223 29.2235 28.1308C28.9313 27.8203 28.705 27.4539 28.5582 27.0536C28.4114 26.6533 28.3472 26.2274 28.3695 25.8016C28.3472 25.3758 28.4114 24.9499 28.5582 24.5496C28.705 24.1493 28.9313 23.7829 29.2235 23.4724C29.4738 23.1701 29.7915 22.9307 30.151 22.7734C30.5106 22.6161 30.902 22.5453 31.2939 22.5667C31.685 22.5512 32.0746 22.6247 32.4332 22.7816C32.7918 22.9385 33.1101 23.1747 33.3643 23.4724C33.9319 24.1155 34.2452 24.9438 34.2452 25.8016C34.2452 26.6594 33.9319 27.4877 33.3643 28.1308C33.102 28.4167 32.7815 28.6432 32.4244 28.795C32.0673 28.9468 31.6818 29.0203 31.2939 29.0107Z" fill="white"/>
<path d="M40.792 14.5696C40.5883 14.5665 40.3861 14.6064 40.1989 14.6866C40.0116 14.7669 39.8433 14.8858 39.7051 15.0354C39.5571 15.1805 39.4397 15.3537 39.3597 15.5448C39.2797 15.7359 39.2387 15.9411 39.2392 16.1483V16.6659C39.2358 16.8732 39.2733 17.0791 39.3494 17.272C39.4256 17.4648 39.539 17.6408 39.6832 17.7898C39.8274 17.9388 39.9996 18.0579 40.1898 18.1404C40.3801 18.2228 40.5847 18.267 40.792 18.2704C41.0052 18.2695 41.216 18.2256 41.4117 18.141C41.6074 18.0565 41.7839 17.9333 41.9307 17.7787C42.074 17.6315 42.1867 17.4574 42.2622 17.2663C42.3377 17.0753 42.3746 16.8712 42.3706 16.6659V16.1483C42.3746 15.9429 42.3377 15.7388 42.2622 15.5478C42.1867 15.3568 42.074 15.1826 41.9307 15.0354C41.7826 14.8843 41.6053 14.765 41.4094 14.6849C41.2136 14.6048 41.0035 14.5656 40.792 14.5696Z" fill="white"/>
<path d="M40.7921 19.4612C40.5844 19.4576 40.3783 19.4972 40.1868 19.5774C39.9952 19.6575 39.8224 19.7766 39.6792 19.927C39.5289 20.0744 39.4118 20.2523 39.3359 20.4487C39.2601 20.6451 39.2271 20.8555 39.2393 21.0657V30.5635C39.2393 30.7667 39.2806 30.9679 39.3606 31.1547C39.4407 31.3416 39.5579 31.5102 39.7051 31.6504C39.8434 31.8001 40.0116 31.919 40.1989 31.9992C40.3862 32.0795 40.5883 32.1194 40.7921 32.1162C41.2138 32.1199 41.621 31.9626 41.9308 31.6763C42.2178 31.3775 42.3758 30.9778 42.3707 30.5635V21.0657C42.3778 20.8553 42.3419 20.6456 42.2654 20.4495C42.1889 20.2533 42.0733 20.0748 41.9257 19.9247C41.778 19.7746 41.6014 19.6561 41.4065 19.5764C41.2116 19.4968 41.0026 19.4575 40.7921 19.4612Z" fill="white"/>
<path d="M45.8906 14.5696C45.679 14.5661 45.4687 14.6052 45.2725 14.6846C45.0762 14.764 44.898 14.882 44.7483 15.0317C44.5986 15.1814 44.4805 15.3597 44.4011 15.5559C44.3217 15.7522 44.2826 15.9624 44.2861 16.1741V30.5372C44.2826 30.7448 44.3221 30.9509 44.4023 31.1425C44.4825 31.334 44.6015 31.5068 44.7519 31.65C45.0565 31.9472 45.4651 32.1136 45.8906 32.1136C46.3161 32.1136 46.7248 31.9472 47.0293 31.65C47.181 31.5078 47.3009 31.3352 47.3812 31.1434C47.4615 30.9516 47.5003 30.745 47.4952 30.5372V16.1741C47.4987 15.9624 47.4596 15.7522 47.3802 15.5559C47.3008 15.3597 47.1827 15.1814 47.033 15.0317C46.8833 14.882 46.705 14.764 46.5088 14.6846C46.3125 14.6052 46.1023 14.5661 45.8906 14.5696Z" fill="white"/>
<path d="M58.5194 19.435C58.3178 19.4301 58.1173 19.4667 57.9304 19.5423C57.7434 19.618 57.574 19.7312 57.4325 19.875C57.2855 20.0194 57.1704 20.1931 57.0946 20.3847C57.0188 20.5764 56.9841 20.7818 56.9925 20.9878V26.733C56.9938 27.0258 56.9373 27.3159 56.8263 27.5868C56.7153 27.8577 56.5519 28.104 56.3455 28.3117C56.1366 28.5236 55.8864 28.6904 55.6104 28.8016C55.3344 28.9129 55.0385 28.9664 54.741 28.9586C54.4453 28.9621 54.1519 28.9072 53.8774 28.7972C53.6029 28.6872 53.3528 28.5242 53.1413 28.3175C52.9298 28.1109 52.7612 27.8646 52.6449 27.5927C52.5286 27.3208 52.467 27.0287 52.4636 26.733V20.9878C52.4687 20.5735 52.3107 20.1738 52.0237 19.875C51.8765 19.7317 51.7024 19.619 51.5113 19.5435C51.3203 19.468 51.1162 19.4311 50.9108 19.435C50.7112 19.4339 50.5136 19.4748 50.3308 19.555C50.148 19.6353 49.9841 19.7531 49.8498 19.9008C49.7001 20.0391 49.5812 20.2073 49.501 20.3946C49.4207 20.5819 49.3808 20.784 49.384 20.9878V26.733C49.3793 27.4366 49.5167 28.134 49.7879 28.7832C50.0592 29.4325 50.4587 30.0203 50.9626 30.5114C51.45 31.0202 52.0371 31.423 52.6873 31.6946C53.3374 31.9662 54.0365 32.1008 54.741 32.0901C55.3502 32.0969 55.9555 31.9916 56.5267 31.7795C56.3337 32.1024 56.0786 32.3839 55.7762 32.6077C55.2708 32.9938 54.6524 33.2029 54.0164 33.2029C53.5675 33.1957 53.1257 33.0897 52.7224 32.8923C52.5433 32.8023 52.348 32.749 52.148 32.7357C51.948 32.7223 51.7473 32.7492 51.5578 32.8147C51.3644 32.8651 51.1838 32.9557 51.0278 33.0806C50.8717 33.2054 50.7437 33.3617 50.6521 33.5393H50.6262C50.4666 33.9171 50.4482 34.3396 50.5744 34.7298C50.6367 34.9257 50.7406 35.1058 50.8791 35.2576C51.0176 35.4095 51.1874 35.5296 51.3767 35.6097C52.1974 36.0162 53.1005 36.2287 54.0164 36.2308C54.8158 36.2377 55.6085 36.085 56.3481 35.7815C57.0876 35.478 57.7591 35.0299 58.3232 34.4634C58.8873 33.8969 59.3325 33.2235 59.6329 32.4827C59.9332 31.7418 60.0826 30.9485 60.0722 30.1491V20.9878C60.0753 20.784 60.0354 20.5819 59.9552 20.3946C59.8749 20.2073 59.7561 20.0391 59.6064 19.9008C59.4662 19.7536 59.2975 19.6364 59.1107 19.5564C58.9239 19.4763 58.7227 19.435 58.5194 19.435Z" fill="white"/>
<path d="M71.8225 21.1184C70.6509 20.009 69.0894 19.4059 67.4763 19.4398C65.8632 19.4737 64.3285 20.1419 63.2046 21.2995C62.044 22.501 61.3953 24.1062 61.3953 25.7767C61.3953 27.4472 62.044 29.0524 63.2046 30.2538C63.7665 30.8482 64.4448 31.3205 65.1973 31.6411C65.9498 31.9617 66.7603 32.1237 67.5782 32.1171C69.3898 32.1171 70.8908 31.5737 72.1071 30.4609H72.133C72.3957 30.1712 72.5349 29.7905 72.5212 29.3998C72.4962 29.0783 72.3588 28.776 72.133 28.5458C72.006 28.3992 71.8457 28.2852 71.6656 28.2131C71.4856 28.1411 71.2909 28.1132 71.0978 28.1317C70.6667 28.1185 70.248 28.2767 69.9333 28.5717C69.338 29.0116 68.5616 29.1928 67.6041 29.141C67.1965 29.1261 66.7962 29.029 66.4271 28.8556C66.058 28.6821 65.7277 28.4359 65.4561 28.1317H65.4302C65.0975 27.8172 64.8637 27.4125 64.7574 26.9671H72.1589C72.5207 26.9805 72.8764 26.871 73.1682 26.6566C73.4419 26.4471 73.6267 26.1422 73.6858 25.8026C73.6858 25.7249 73.7117 25.6473 73.7117 25.5179V25.3885C73.6668 23.7723 72.9882 22.2386 71.8225 21.1184ZM65.5079 23.0852C66.0729 22.5675 66.8119 22.2811 67.5782 22.2829C68.3988 22.3287 69.1852 22.6269 69.8297 23.137C70.2393 23.4585 70.5747 23.8645 70.8132 24.3274H64.628C64.8086 23.8441 65.1118 23.416 65.5079 23.0852Z" fill="white"/>
<path d="M83.7268 26.3194C83.2901 25.6299 82.6471 25.0956 81.8894 24.7925C81.1701 24.4629 80.4143 24.2196 79.6378 24.0679H79.5343C78.7321 23.9385 78.1627 23.7573 77.8521 23.5244L77.6451 23.3691V23.2915C77.6451 23.188 77.8004 23.0327 77.9298 22.955C78.3056 22.6846 78.7612 22.5479 79.2238 22.5669C79.7586 22.5669 80.4574 22.8515 81.32 23.4209C81.4901 23.5434 81.6835 23.6296 81.8883 23.6741C82.0931 23.7187 82.3049 23.7206 82.5105 23.6797C82.7106 23.6378 82.9005 23.5568 83.0693 23.4413C83.238 23.3259 83.3823 23.1782 83.4939 23.0068C83.7065 22.6486 83.7715 22.2216 83.675 21.8163C83.6434 21.6193 83.5691 21.4315 83.4573 21.2661C83.3456 21.1007 83.1991 20.9617 83.028 20.8588C81.7082 19.9271 80.4142 19.4613 79.2238 19.4613C78.1098 19.4483 77.018 19.7731 76.0923 20.393C75.0572 21.1694 74.5396 22.1528 74.5396 23.2656C74.5308 23.8593 74.6925 24.4431 75.0054 24.9478C75.4498 25.6041 76.0681 26.1239 76.7911 26.4488C77.4816 26.766 78.2134 26.9838 78.965 27.0958H79.0167C79.8708 27.251 80.4919 27.4581 80.8542 27.7169C80.9338 27.764 81.004 27.8254 81.0612 27.898V27.9498C81.0871 27.9757 81.0871 27.9757 81.0871 28.0533C81.0726 28.159 81.0349 28.2602 80.9767 28.3497C80.9186 28.4392 80.8414 28.5147 80.7507 28.5709C80.2975 28.8432 79.7784 28.9864 79.2496 28.985C78.4215 29.0108 77.5675 28.6485 76.7652 27.9757C76.6056 27.8398 76.4201 27.7377 76.22 27.6754C76.0198 27.6131 75.8092 27.592 75.6006 27.6134C75.397 27.6269 75.1988 27.6849 75.0199 27.7833C74.8411 27.8816 74.686 28.018 74.5655 28.1827C74.4277 28.3352 74.3259 28.5167 74.2676 28.7138C74.2094 28.9109 74.1962 29.1185 74.229 29.3214C74.2458 29.5215 74.3025 29.7163 74.3958 29.8941C74.4892 30.0719 74.6173 30.2292 74.7725 30.3566C76.1959 31.4953 77.6969 32.0905 79.2496 32.0905C80.4314 32.1028 81.5881 31.7503 82.5622 31.0812C83.6492 30.2789 84.2185 29.2696 84.2185 28.0533C84.2103 27.4421 84.0407 26.8439 83.7268 26.3194Z" fill="white"/>
<path d="M98.2188 16.6664C97.5718 11.2835 95.5532 7.73797 91.8524 5.53821C88.6692 3.62313 79.3526 2.09624 79.3526 2.09624C71.6146 0.828144 56.3716 0 49.3065 0H49.1771C42.0861 0 26.869 0.828144 19.131 2.09624C19.131 2.09624 9.81439 3.62313 6.60533 5.53821C2.90456 7.73797 0.911839 11.2835 0.264851 16.6664C0.0319358 18.5815 -0.0198232 21.8941 0.00605634 25.2325C0.0319358 28.571 0.0319358 31.9094 0.264851 33.7986C0.911839 39.1816 2.90456 42.7271 6.60533 44.9268C9.81439 46.8419 19.131 48.3688 19.131 48.3688C26.869 49.6369 42.0861 50.465 49.1771 50.465H49.3065C53.2402 50.465 59.6583 50.2062 65.9211 49.7663L88.1257 64V46.4019C89.6268 45.962 90.9725 45.4703 91.8524 44.9268C95.5532 42.7271 97.5718 39.1816 98.2188 33.7986C98.4258 31.9094 98.4775 28.571 98.4517 25.2325C98.4258 21.8941 98.4258 18.5815 98.2188 16.6664ZM93.0687 33.1775C92.5511 37.5512 91.1536 39.6733 88.1257 41.019L87.7634 41.1743L87.6599 41.226L87.3494 41.3296L87.22 41.3813L86.9094 41.4848H86.8059L85.4084 41.9248H85.3049L84.8908 42.0283H84.7873L84.3473 42.1318H84.2438L83.7521 42.2353L83.3898 42.313H83.2086L82.4323 42.4683V47.67H82.484L82.4323 47.7218V54.1658L74.746 49.2746L74.3061 48.9123L68.0174 44.3316H67.7327L66.3352 44.4351L65.6106 44.4869L64.2648 44.5645L63.5143 44.6163L62.091 44.7198H61.5993L59.7101 44.8233C55.8799 45.0303 52.1791 45.1338 49.1771 45.1338C41.3356 45.1338 26.869 44.2281 19.9591 43.0894L19.4933 43.0117C9.71087 41.4072 6.29477 40.4755 5.41487 33.0222C5.20783 31.366 5.18196 25.1031 5.18196 25.0772C5.18196 25.0514 5.20783 18.7885 5.41487 17.1322C6.29477 9.83421 9.71087 8.90255 19.4933 7.29802L19.9591 7.22038C26.869 6.08168 41.9567 5.1759 49.3065 5.1759C56.6563 5.1759 71.537 6.08168 78.4986 7.22038L78.9903 7.29802C88.7727 8.90255 92.1888 9.83421 93.0687 17.2875C93.2758 18.9438 93.2758 25.2066 93.2758 25.2325C93.2758 25.2584 93.2758 31.5212 93.0687 33.1775Z" fill="#1D86E0"/>
</svg>
