<svg xmlns="http://www.w3.org/2000/svg" viewBox="0 0 380.5 247.3" width="97" height="60">
  <defs>
    <style>
      .cls-1 {
        fill: #7dbff8;
      }

      .cls-2 {
        fill: #1d86e0;
      }
    </style>
  </defs>
  <title>logo_color2</title>
  <g id="Слой_2" data-name="Слой 2">
    <g id="Слой_1-2" data-name="Слой 1">
      <g id="logo_color2">
        <g>
          <path class="cls-1" d="M86.4,56.3A6,6,0,0,0,82,58.1a6,6,0,0,0-1.8,4.3V78.2a23.1,23.1,0,0,0-11.6-3.1,22.7,22.7,0,0,0-16.9,7.3,25,25,0,0,0,0,34.5,22.8,22.8,0,0,0,16.9,7.2,22.5,22.5,0,0,0,12.3-3.5,5.4,5.4,0,0,0,1.6,2.1,5.5,5.5,0,0,0,3.9,1.4,6,6,0,0,0,4.3-1.8,5.8,5.8,0,0,0,1.8-4.2V62.4a6.1,6.1,0,0,0-6.1-6.1ZM68.6,111.9a10.7,10.7,0,0,1-8.1-3.6A11.6,11.6,0,0,1,57,99.7a12.1,12.1,0,0,1,3.5-8.8,10.6,10.6,0,0,1,8.1-3.5,10.5,10.5,0,0,1,8.1,3.5h0a11.7,11.7,0,0,1,3.5,8.8,11.2,11.2,0,0,1-3.5,8.6A10.6,10.6,0,0,1,68.6,111.9Z"/>
          <path class="cls-1" d="M138.3,75.1a5.4,5.4,0,0,0-3.8,1.5,6.5,6.5,0,0,0-1.6,2.1,22.2,22.2,0,0,0-28.7,3.8,23.7,23.7,0,0,0-6.7,17.2,24.4,24.4,0,0,0,6.7,17.3,22.4,22.4,0,0,0,16.7,7.1,21.5,21.5,0,0,0,12-3.5,6,6,0,0,0,1.6,2.2,5.7,5.7,0,0,0,3.8,1.3,6.1,6.1,0,0,0,4.2-1.7,5.7,5.7,0,0,0,1.7-4.3V81.2a5.9,5.9,0,0,0-1.7-4.3A5.8,5.8,0,0,0,138.3,75.1Zm-17.4,37a10.1,10.1,0,0,1-8-3.4,12.2,12.2,0,0,1-3.3-9,12.2,12.2,0,0,1,3.3-9,9.7,9.7,0,0,1,8-3.5,10,10,0,0,1,8,3.5,13.6,13.6,0,0,1,0,18A10.5,10.5,0,0,1,120.9,112.1Z"/>
          <path class="cls-1" d="M157.6,56.3a5.6,5.6,0,0,0-4.2,1.8,6,6,0,0,0-1.8,4.3v2a6.1,6.1,0,0,0,6,6.2,6.1,6.1,0,0,0,4.4-1.9,6,6,0,0,0,1.7-4.3v-2a6,6,0,0,0-1.7-4.3A6,6,0,0,0,157.6,56.3Z"/>
          <path class="cls-1" d="M157.6,75.2a5.8,5.8,0,0,0-4.3,1.8h0a5.7,5.7,0,0,0-1.7,4.4v36.7a5.8,5.8,0,0,0,1.8,4.2,5.6,5.6,0,0,0,4.2,1.8,6.4,6.4,0,0,0,4.4-1.7,6.1,6.1,0,0,0,1.7-4.3V81.4a6,6,0,0,0-6.1-6.2Z"/>
          <path class="cls-1" d="M177.3,56.3a6.1,6.1,0,0,0-6.2,6.2V118a5.8,5.8,0,0,0,1.8,4.3,6.3,6.3,0,0,0,8.8,0,5.7,5.7,0,0,0,1.8-4.3V62.5a6.1,6.1,0,0,0-6.2-6.2Z"/>
          <path class="cls-1" d="M226.1,75.1a5.7,5.7,0,0,0-4.2,1.7h0a5.7,5.7,0,0,0-1.7,4.3v22.2a8.6,8.6,0,0,1-2.5,6.1,8.4,8.4,0,0,1-6.2,2.5,8.7,8.7,0,0,1-8.8-8.6V81.1a6.1,6.1,0,0,0-1.7-4.3,6,6,0,0,0-4.3-1.7,5.5,5.5,0,0,0-4.1,1.8,5.6,5.6,0,0,0-1.8,4.2v22.2a20.2,20.2,0,0,0,6.1,14.6,19.8,19.8,0,0,0,14.6,6.1,19.2,19.2,0,0,0,6.9-1.2,11,11,0,0,1-2.9,3.2,11.2,11.2,0,0,1-6.8,2.3,11.8,11.8,0,0,1-5-1.2,5.8,5.8,0,0,0-4.5-.3,5.5,5.5,0,0,0-3.5,2.8h-.1a6.6,6.6,0,0,0-.2,4.6,5.5,5.5,0,0,0,3.1,3.4,23.1,23.1,0,0,0,10.2,2.4,23.2,23.2,0,0,0,23.4-23.5V81.1a5.6,5.6,0,0,0-1.8-4.2A5.8,5.8,0,0,0,226.1,75.1Z"/>
          <path class="cls-1" d="M277.5,81.6a23.7,23.7,0,0,0-33.3.7,24.9,24.9,0,0,0,0,34.6,23,23,0,0,0,16.9,7.2h0c7,0,12.8-2.1,17.5-6.4h.1a5.8,5.8,0,0,0,1.5-4.1,5.3,5.3,0,0,0-1.5-3.3,4.7,4.7,0,0,0-4-1.6,6.3,6.3,0,0,0-4.5,1.7c-2.3,1.7-5.3,2.4-9,2.2a11.7,11.7,0,0,1-8.3-3.9h-.1a9.1,9.1,0,0,1-2.6-4.5h28.6a6.2,6.2,0,0,0,3.9-1.2,5.3,5.3,0,0,0,2-3.3c0-.3.1-.6.1-1.1v-.5A23.8,23.8,0,0,0,277.5,81.6Zm-24.4,7.6a11.8,11.8,0,0,1,8-3.1,15.4,15.4,0,0,1,8.7,3.3,14,14,0,0,1,3.8,4.6H249.7A11.5,11.5,0,0,1,253.1,89.2Z"/>
          <path class="cls-1" d="M323.5,101.7a15,15,0,0,0-7.1-5.9,38.7,38.7,0,0,0-8.7-2.8h-.4c-3.1-.5-5.3-1.2-6.5-2.1l-.8-.6v-.3c0-.4.6-1,1.1-1.3a8,8,0,0,1,5-1.5q3.1,0,8.1,3.3a5.9,5.9,0,0,0,4.6,1,6,6,0,0,0,3.8-2.6,6.2,6.2,0,0,0,.7-4.6,5.3,5.3,0,0,0-2.5-3.7c-5.1-3.6-10.1-5.4-14.7-5.4A21.3,21.3,0,0,0,294,78.8c-4,3-6,6.8-6,11.1a12,12,0,0,0,1.8,6.5,16.5,16.5,0,0,0,6.9,5.8,31.1,31.1,0,0,0,8.4,2.5h.2c3.3.6,5.7,1.4,7.1,2.4a2.9,2.9,0,0,1,.8.7h0v.2c.1.1.1.1.1.4a2.8,2.8,0,0,1-1.3,2,11.2,11.2,0,0,1-5.8,1.6c-3.2.1-6.5-1.3-9.6-3.9a6,6,0,0,0-4.5-1.4,5.4,5.4,0,0,0-4,2.2,5.3,5.3,0,0,0-1.3,4.4,5.8,5.8,0,0,0,2.1,4h0c5.5,4.4,11.3,6.7,17.3,6.7a22.2,22.2,0,0,0,12.8-3.9c4.2-3.1,6.4-7,6.4-11.7A13.4,13.4,0,0,0,323.5,101.7Z"/>
        </g>
        <path class="cls-2" d="M379.5,64.4c-2.5-20.8-10.3-34.5-24.6-43C342.6,14,306.6,8.1,306.6,8.1,276.7,3.2,217.8,0,190.5,0H190C162.6,0,103.8,3.2,73.9,8.1c0,0-36,5.9-48.4,13.3C11.2,29.9,3.5,43.6,1,64.4.1,71.8-.1,84.6,0,97.5s.1,25.8,1,33.1c2.5,20.8,10.2,34.5,24.5,43,12.4,7.4,48.4,13.3,48.4,13.3,29.9,4.9,88.7,8.1,116.1,8.1h.5c15.2,0,40-1,64.2-2.7l85.8,55v-68c5.8-1.7,11-3.6,14.4-5.7,14.3-8.5,22.1-22.2,24.6-43,.8-7.3,1-20.2.9-33.1S380.3,71.8,379.5,64.4Zm-19.9,63.8c-2,16.9-7.4,25.1-19.1,30.3l-1.4.6-.4.2-1.2.4-.5.2-1.2.4h-.4L330,162h-.4l-1.6.4h-.4l-1.7.4h-.4l-1.9.4-1.4.3h-.7l-3,.6v20.1h.2l-.2.2v24.9l-29.7-18.9-1.7-1.4h0l-24.3-17.7h-1.1l-5.4.4-2.8.2-5.2.3-2.9.2-5.5.4H238l-7.3.4c-14.8.8-29.1,1.2-40.7,1.2-30.3,0-86.2-3.5-112.9-7.9l-1.8-.3c-37.8-6.2-51-9.8-54.4-38.6-.8-6.4-.9-30.6-.9-30.7s.1-24.3.9-30.7C24.3,38,37.5,34.4,75.3,28.2l1.8-.3c26.7-4.4,85-7.9,113.4-7.9s85.9,3.5,112.8,7.9l1.9.3c37.8,6.2,51,9.8,54.4,38.6.8,6.4.8,30.6.8,30.7S360.4,121.8,359.6,128.2Z"/>
      </g>
    </g>
  </g>
</svg>
