<svg width="89" height="52" viewBox="0 0 89 52" fill="none" xmlns="http://www.w3.org/2000/svg">
<path d="M18.3696 12.2276C18.1977 12.2252 18.027 12.2537 17.8674 12.3115C17.7078 12.3693 17.5625 12.4551 17.4399 12.5641C17.3174 12.673 17.22 12.8029 17.1535 12.9462C17.087 13.0895 17.0527 13.2432 17.0526 13.3986V16.4316C16.3038 16.0406 15.4539 15.8353 14.5891 15.8366C13.9156 15.8305 13.2482 15.9519 12.6299 16.193C12.0115 16.4341 11.4559 16.7896 10.9989 17.2366C10.0577 18.1292 9.53271 19.3147 9.53271 20.5476C9.53271 21.7804 10.0577 22.966 10.9989 23.8586C11.4585 24.3014 12.015 24.6529 12.6331 24.8908C13.2512 25.1287 13.9173 25.2478 14.5891 25.2406C15.5136 25.2497 16.4213 25.0163 17.202 24.5686C17.2771 24.7251 17.3938 24.8625 17.5418 24.9686C17.7687 25.1525 18.0661 25.249 18.3707 25.2376C18.5407 25.2388 18.7093 25.2093 18.8665 25.1507C19.0237 25.0921 19.1663 25.0057 19.286 24.8966C19.4067 24.7926 19.5028 24.6675 19.5684 24.529C19.634 24.3904 19.6679 24.2413 19.6678 24.0906V13.3966C19.6678 13.086 19.5312 12.7882 19.2882 12.5686C19.0452 12.349 18.7155 12.2256 18.3718 12.2256L18.3696 12.2276ZM14.5891 22.8966C14.2642 22.8992 13.9425 22.8389 13.6457 22.7197C13.3488 22.6005 13.0837 22.4252 12.8681 22.2056C12.6249 21.9915 12.4333 21.7344 12.3054 21.4503C12.1774 21.1662 12.1158 20.8612 12.1244 20.5546C12.1163 20.2423 12.178 19.9318 12.3058 19.6416C12.4336 19.3514 12.6248 19.0875 12.8681 18.8656C13.0859 18.6489 13.3515 18.4757 13.6478 18.3572C13.9441 18.2387 14.2645 18.1775 14.5885 18.1775C14.9125 18.1775 15.2329 18.2387 15.5292 18.3572C15.8255 18.4757 16.0911 18.6489 16.3089 18.8656C16.5563 19.0847 16.7502 19.3482 16.8783 19.6391C17.0064 19.9299 17.0658 20.2418 17.0526 20.5546C17.0665 20.8618 17.0073 21.1682 16.879 21.453C16.7507 21.7378 16.5563 21.9945 16.3089 22.2056C16.0943 22.4262 15.8293 22.6022 15.5322 22.7215C15.2352 22.8408 14.913 22.9005 14.5879 22.8966H14.5891Z" fill="#23252C"/>
<path d="M31.6496 16.1315C31.3493 16.1283 31.0596 16.2317 30.8428 16.4195C30.7006 16.5306 30.5849 16.6667 30.503 16.8195C29.5584 16.2621 28.424 16.0291 27.3055 16.1628C26.1871 16.2966 25.1588 16.7882 24.4072 17.5485C23.9378 17.9846 23.5699 18.5014 23.3255 19.0682C23.081 19.635 22.9649 20.2404 22.984 20.8485C22.9561 22.0813 23.4675 23.2743 24.4072 24.1685C24.8605 24.6067 25.4103 24.9543 26.0212 25.189C26.632 25.4238 27.2905 25.5404 27.9542 25.5315C28.8576 25.54 29.7435 25.3061 30.4997 24.8595C30.5757 25.0218 30.692 25.1662 30.8395 25.2815C31.0661 25.4502 31.3528 25.5386 31.6462 25.5305C31.9789 25.5293 32.2982 25.4126 32.5383 25.2045C32.6588 25.0974 32.7532 24.9686 32.8154 24.8265C32.8775 24.6844 32.906 24.5322 32.8991 24.3795V17.3025C32.9035 17.1501 32.8738 16.9985 32.8118 16.8568C32.7498 16.715 32.6568 16.586 32.5383 16.4775C32.4232 16.3684 32.2848 16.2816 32.1314 16.2223C31.9781 16.163 31.813 16.1325 31.6462 16.1325L31.6496 16.1315ZM27.9531 23.2315C27.634 23.2438 27.3159 23.1915 27.022 23.0785C26.7281 22.9656 26.4658 22.7947 26.2543 22.5785C25.7791 22.1056 25.5159 21.4898 25.5159 20.851C25.5159 20.2123 25.7791 19.5964 26.2543 19.1235C26.4597 18.8993 26.7203 18.7218 27.0153 18.6051C27.3104 18.4884 27.6315 18.4358 27.9531 18.4515C28.2741 18.4402 28.5937 18.4947 28.888 18.6111C29.1823 18.7275 29.4435 18.9027 29.6519 19.1235C30.118 19.6004 30.3752 20.2148 30.3752 20.851C30.3752 21.4873 30.118 22.1016 29.6519 22.5785C29.4367 22.7906 29.1738 22.9586 28.8808 23.0712C28.5878 23.1839 28.2715 23.2385 27.9531 23.2315Z" fill="#23252C"/>
<path d="M36.6724 11.9017C36.5052 11.8993 36.3394 11.9288 36.1857 11.9882C36.032 12.0477 35.8939 12.1357 35.7804 12.2466C35.6591 12.3542 35.5628 12.4826 35.4973 12.6243C35.4317 12.766 35.3981 12.9181 35.3986 13.0717V13.4556C35.3905 13.6905 35.4619 13.9221 35.6032 14.1194C35.7445 14.3166 35.949 14.4703 36.1895 14.56C36.4299 14.6496 36.6948 14.6708 36.949 14.6209C37.2031 14.571 37.4344 14.4523 37.612 14.2806C37.7295 14.1715 37.8219 14.0424 37.8838 13.9008C37.9457 13.7592 37.976 13.6079 37.9728 13.4556V13.0707C37.9762 12.916 37.9451 12.7623 37.8812 12.6189C37.8173 12.4754 37.722 12.345 37.6009 12.2357C37.4799 12.1263 37.3356 12.0401 37.1768 11.9824C37.018 11.9247 36.848 11.8965 36.6768 11.8996L36.6724 11.9017Z" fill="#23252C"/>
<path d="M36.6739 16.1515C36.5035 16.1489 36.3345 16.1782 36.1773 16.2375C36.0201 16.2969 35.8783 16.3851 35.7608 16.4965C35.6374 16.6059 35.5413 16.738 35.4791 16.8837C35.4169 17.0295 35.3899 17.1856 35.4 17.3415V24.3855C35.4 24.5362 35.4338 24.6854 35.4994 24.8239C35.565 24.9625 35.6611 25.0875 35.7818 25.1915C35.8954 25.3024 36.0335 25.3905 36.1872 25.4499C36.3409 25.5094 36.5067 25.5389 36.6739 25.5365C37.0198 25.5392 37.3538 25.4227 37.6079 25.2105C37.8433 24.9889 37.9728 24.6926 37.9687 24.3855V17.3415C37.9744 17.1855 37.945 17.03 37.8822 16.8845C37.8193 16.7391 37.7244 16.6067 37.6032 16.4954C37.482 16.3841 37.337 16.2962 37.1771 16.2371C37.0171 16.178 36.8455 16.1489 36.6728 16.1515H36.6739Z" fill="#23252C"/>
<path d="M41.2693 12.2277C41.0956 12.2251 40.9231 12.2542 40.762 12.313C40.6009 12.3719 40.4546 12.4595 40.3317 12.5705C40.2089 12.6815 40.112 12.8137 40.0468 12.9593C39.9816 13.1048 39.9495 13.2607 39.9523 13.4177V24.0697C39.9494 24.2236 39.9819 24.3763 40.0476 24.5183C40.1133 24.6603 40.2109 24.7885 40.3341 24.8947C40.5841 25.1151 40.9195 25.2385 41.2688 25.2385C41.618 25.2385 41.9535 25.1151 42.2034 24.8947C42.3278 24.7892 42.4261 24.6612 42.4919 24.5191C42.5577 24.3769 42.5895 24.2238 42.5852 24.0697V13.4177C42.5881 13.2607 42.5559 13.1048 42.4907 12.9593C42.4256 12.8137 42.3287 12.6815 42.2058 12.5705C42.0829 12.4595 41.9366 12.3719 41.7756 12.313C41.6145 12.2542 41.442 12.2251 41.2682 12.2277H41.2693Z" fill="#23252C"/>
<path d="M52.3893 16.2806C52.2238 16.277 52.0593 16.304 51.9059 16.3601C51.7525 16.4162 51.6134 16.5001 51.4973 16.6066C51.3767 16.7137 51.2823 16.8425 51.2202 16.9846C51.158 17.1267 51.1295 17.2789 51.1365 17.4316V21.6916C51.1375 21.9088 51.0911 22.124 51 22.3249C50.9088 22.5259 50.7747 22.7086 50.6053 22.8626C50.4338 23.0198 50.2284 23.1435 50.0019 23.2261C49.7753 23.3087 49.5324 23.3483 49.2883 23.3426C49.0454 23.3452 48.8044 23.3046 48.579 23.2231C48.3536 23.1415 48.1482 23.0206 47.9745 22.8673C47.8008 22.714 47.6622 22.5312 47.5667 22.3295C47.4712 22.1278 47.4206 21.911 47.4179 21.6916V17.4326C47.422 17.1255 47.2925 16.8292 47.0571 16.6076C46.9363 16.5014 46.7934 16.418 46.6367 16.362C46.48 16.306 46.3125 16.2787 46.1441 16.2816C45.9802 16.2807 45.818 16.3109 45.6679 16.3703C45.5179 16.4298 45.3833 16.5171 45.2731 16.6266C45.1503 16.7292 45.0529 16.854 44.9871 16.9928C44.9213 17.1317 44.8887 17.2816 44.8913 17.4326V21.6916C44.8878 22.2131 45.0007 22.7298 45.2234 23.2109C45.4461 23.6921 45.7739 24.1276 46.1872 24.4916C46.587 24.8687 47.0685 25.1673 47.6016 25.3688C48.1348 25.5702 48.7082 25.6703 49.286 25.6626C49.7859 25.6677 50.2826 25.5897 50.7513 25.4326C50.5928 25.6721 50.3833 25.8808 50.1349 26.0466C49.72 26.3327 49.2125 26.4877 48.6906 26.4876C48.3221 26.4824 47.9593 26.4039 47.6282 26.2576C47.4812 26.1907 47.3208 26.1511 47.1566 26.1411C46.9923 26.1312 46.8276 26.151 46.672 26.1996C46.5132 26.2369 46.3649 26.304 46.2368 26.3965C46.1086 26.489 46.0035 26.6049 45.9282 26.7366H45.9072C45.7764 27.0168 45.7614 27.3302 45.8652 27.6196C45.9168 27.7654 46.003 27.8994 46.1176 28.0121C46.2323 28.1249 46.3727 28.2138 46.5292 28.2726C47.2867 28.6134 48.1284 28.7725 48.9735 28.7348C49.8186 28.697 50.6389 28.4637 51.3554 28.057C52.072 27.6504 52.6609 27.0842 53.0656 26.4127C53.4703 25.7413 53.6772 24.9871 53.6664 24.2226V17.4326C53.669 17.2815 53.6362 17.1316 53.5702 16.9927C53.5042 16.8538 53.4065 16.729 53.2835 16.6266C53.1685 16.5175 53.0301 16.4306 52.8767 16.3713C52.7234 16.312 52.5583 16.2815 52.3915 16.2816L52.3893 16.2806Z" fill="#23252C"/>
<path d="M64.4669 17.3796C63.5054 16.5569 62.2239 16.1097 60.9 16.1348C59.5761 16.1599 58.3164 16.6552 57.3939 17.5136C56.4412 18.4046 55.9087 19.5951 55.9087 20.8341C55.9087 22.073 56.4412 23.2635 57.3939 24.1546C57.8551 24.5955 58.4119 24.9458 59.0296 25.1836C59.6473 25.4214 60.3127 25.5415 60.9841 25.5366C62.3526 25.5784 63.6856 25.1381 64.7016 24.3086H64.7226C64.938 24.0937 65.0524 23.8114 65.0413 23.5216C65.0207 23.2833 64.9079 23.0592 64.7226 22.8886C64.6184 22.7797 64.4868 22.695 64.3389 22.6416C64.191 22.5882 64.0311 22.5676 63.8726 22.5816C63.5191 22.5718 63.1756 22.689 62.9175 22.9076C62.3553 23.248 61.6777 23.3975 61.0051 23.3296C60.6706 23.3185 60.3419 23.2464 60.039 23.1177C59.736 22.989 59.465 22.8063 59.2421 22.5806H59.2211C58.9475 22.3474 58.7552 22.0471 58.6677 21.7166H64.7425C65.0396 21.7267 65.3318 21.6456 65.5714 21.4866C65.7961 21.3313 65.9478 21.1053 65.9964 20.8536C65.9964 20.7956 66.0174 20.7386 66.0174 20.6426V20.5426C65.981 19.3441 65.4245 18.2066 64.468 17.3756L64.4669 17.3796ZM59.2842 18.8396C59.7481 18.4555 60.3549 18.2431 60.9841 18.2446C61.6577 18.2783 62.3032 18.4994 62.8323 18.8776C63.1684 19.1161 63.4435 19.4173 63.6391 19.7606H58.5626C58.7111 19.4022 58.9601 19.0848 59.2853 18.8396H59.2842Z" fill="#23252C"/>
<path d="M76.4573 21.2376C76.0986 20.7264 75.5708 20.3303 74.9488 20.1056C74.3583 19.8613 73.738 19.681 73.1006 19.5686H73.012C72.5248 19.528 72.0534 19.3914 71.6309 19.1686L71.4615 19.0536V18.9956C71.4615 18.9186 71.5888 18.8036 71.6951 18.7456C72.0036 18.5449 72.3777 18.4435 72.7575 18.4576C73.3846 18.5219 73.98 18.7409 74.4785 19.0906C74.618 19.1815 74.7768 19.2455 74.9449 19.2785C75.1131 19.3116 75.2869 19.3129 75.4557 19.2826C75.6202 19.2514 75.7762 19.1912 75.9148 19.1054C76.0535 19.0196 76.172 18.9099 76.2636 18.7826C76.438 18.5168 76.4912 18.2002 76.4119 17.8996C76.3859 17.7534 76.3248 17.6142 76.2331 17.4916C76.1413 17.3689 76.0211 17.2659 75.8807 17.1896C74.983 16.5618 73.8926 16.1999 72.7586 16.1536C71.8444 16.144 70.9485 16.3849 70.1888 16.8446C69.8015 17.08 69.4831 17.3967 69.261 17.7677C69.039 18.1387 68.9198 18.5529 68.9139 18.9746C68.9066 19.4151 69.0395 19.8483 69.2968 20.2226C69.6614 20.7093 70.1688 21.0947 70.7621 21.3356C71.3287 21.5708 71.9294 21.7324 72.5461 21.8156H72.5882C73.1203 21.8754 73.6336 22.0322 74.0966 22.2766C74.1617 22.3115 74.2191 22.3569 74.266 22.4106V22.4486C74.287 22.4676 74.287 22.4676 74.287 22.5256C74.2749 22.604 74.2439 22.6791 74.1961 22.7455C74.1482 22.8119 74.0848 22.8679 74.0103 22.9096C73.6384 23.1114 73.2124 23.2176 72.7785 23.2166C72.0201 23.2021 71.2943 22.9354 70.74 22.4676C70.6089 22.3668 70.4566 22.2909 70.2923 22.2447C70.128 22.1985 69.955 22.1828 69.7837 22.1986C69.6166 22.2086 69.4538 22.2516 69.307 22.3245C69.1602 22.3974 69.0328 22.4985 68.9338 22.6206C68.8204 22.7336 68.7367 22.8683 68.6888 23.0146C68.6409 23.1609 68.6301 23.315 68.6571 23.4656C68.6703 23.6139 68.7163 23.7582 68.7923 23.8901C68.8684 24.022 68.9729 24.1388 69.0998 24.2336C70.1234 25.0336 71.4223 25.488 72.7752 25.5196C73.7453 25.5286 74.6949 25.2671 75.4944 24.7706C75.908 24.5262 76.2485 24.1933 76.4855 23.8015C76.7226 23.4097 76.849 22.9711 76.8535 22.5246C76.847 22.0713 76.708 21.6277 76.4506 21.2386L76.4573 21.2376Z" fill="#23252C"/>
<path d="M88.3338 13.542C87.7516 9.168 85.9377 6.287 82.6087 4.5C79.7456 2.944 71.3689 1.7 71.3689 1.7C62.4091 0.63996 53.3864 0.0722493 44.3505 0L44.2343 0C35.1984 0.071543 26.1756 0.639256 17.216 1.7C17.216 1.7 8.83921 2.944 5.95288 4.5C2.62498 6.287 0.830988 9.168 0.252174 13.542C0.0370819 15.8566 -0.0404998 18.1799 0.0197625 20.502C0.0430036 23.215 0.0430036 25.927 0.252174 27.462C0.830988 31.835 2.62498 34.716 5.95288 36.5C8.8381 38.056 17.216 39.3 17.216 39.3C26.1756 40.3607 35.1984 40.9284 44.2343 41H44.3505C47.892 41 53.6591 40.79 59.2912 40.432L79.2576 52V37.7C80.4248 37.4255 81.5502 37.0224 82.6087 36.5C85.9355 34.713 87.7516 31.832 88.3338 27.458C88.5197 25.923 88.5662 23.211 88.5429 20.498C88.5197 17.785 88.5186 15.1 88.3338 13.542ZM83.7021 26.957C83.2373 30.511 81.9801 32.235 79.2576 33.328L78.9322 33.454L78.8392 33.496L78.5592 33.58L78.443 33.622L78.1641 33.706H78.0711L76.8139 34.063H76.721L76.3491 34.147H76.2561L75.8599 34.231H75.767L75.3243 34.315L74.9989 34.378H74.8362L74.1379 34.504V38.73H74.1843L74.1379 38.772V44.01L67.2264 40.036L66.8302 39.742L61.176 36.02H60.9203L59.6631 36.104L59.0112 36.146L57.8016 36.209L57.1265 36.251L55.8471 36.335H55.4044L53.7056 36.419C50.2615 36.587 46.9336 36.671 44.2343 36.671C35.4471 36.6048 26.6726 36.0501 17.9608 35.01L17.5424 34.947C8.74624 33.647 5.67399 32.886 4.88269 26.831C4.69676 25.485 4.67352 20.397 4.67352 20.376C4.67352 20.355 4.69676 15.266 4.88269 13.921C5.67399 7.99 8.74624 7.233 17.5424 5.93L17.9608 5.867C26.7131 4.8407 35.5252 4.28572 44.3505 4.205C53.1294 4.28715 61.895 4.84213 70.6008 5.867L71.0435 5.93C79.8397 7.23 82.9119 7.991 83.7032 14.046C83.8892 15.392 83.8892 20.48 83.8892 20.501C83.8892 20.522 83.8881 25.611 83.7021 26.957Z" fill="#3566E3"/>
</svg>
