<svg xmlns="http://www.w3.org/2000/svg" width="13.146" height="18.425" viewBox="0 0 13.146 18.425">
  <g id="odnoklassniki" transform="translate(-76.59 0.25)">
    <g id="Group_506" data-name="Group 506" transform="translate(78.702)">
      <g id="Group_505" data-name="Group 505" transform="translate(0)">
        <path id="Path_196" data-name="Path 196" d="M132.463,0a4.461,4.461,0,1,0,4.461,4.461A4.465,4.465,0,0,0,132.463,0Zm0,6.691a2.23,2.23,0,1,1,2.23-2.23A2.233,2.233,0,0,1,132.463,6.691Z" transform="translate(-128.002)" fill="#fff" stroke="#fff" stroke-width="0.5"/>
      </g>
    </g>
    <g id="Group_508" data-name="Group 508" transform="translate(76.922 8.47)">
      <g id="Group_507" data-name="Group 507" transform="translate(0)">
        <path id="Path_197" data-name="Path 197" d="M89.077,243.391a1.114,1.114,0,0,0-1.577,0,6.142,6.142,0,0,1-8.675,0,1.115,1.115,0,0,0-1.577,1.578,8.313,8.313,0,0,0,4.959,2.384l-3.179,3.179a1.115,1.115,0,0,0,1.577,1.577l2.557-2.557,2.557,2.557a1.115,1.115,0,0,0,1.577-1.577l-3.179-3.179a8.313,8.313,0,0,0,4.959-2.384A1.116,1.116,0,0,0,89.077,243.391Z" transform="translate(-76.922 -243.064)" fill="#fff" stroke="#fff" stroke-width="0.5"/>
      </g>
    </g>
  </g>
</svg>