<svg id="Group_459" data-name="Group 459" xmlns="http://www.w3.org/2000/svg" width="20.08" height="11.363" viewBox="0 0 20.08 11.363">
  <path id="vk" d="M17.282,118.352a27.341,27.341,0,0,1,1.966,1.978,5.75,5.75,0,0,1,.7,1.016c.271.525.026,1.1-.445,1.134H16.583a2.258,2.258,0,0,1-1.862-.757c-.405-.413-.78-.852-1.17-1.278a2.772,2.772,0,0,0-.526-.468.611.611,0,0,0-.974.237,3.073,3.073,0,0,0-.308,1.365c-.031.689-.24.87-.931.9a7.481,7.481,0,0,1-4.186-.9,9.248,9.248,0,0,1-2.817-2.637A35.5,35.5,0,0,1,.1,112.334c-.234-.521-.063-.8.512-.81.954-.019,1.908-.017,2.864,0a.841.841,0,0,1,.794.595,17.754,17.754,0,0,0,1.941,3.6,3.068,3.068,0,0,0,.733.806A.446.446,0,0,0,7.7,116.3a2.5,2.5,0,0,0,.168-.754,11.235,11.235,0,0,0-.047-2.644,1.1,1.1,0,0,0-.939-1.008c-.28-.053-.238-.157-.1-.317a1.052,1.052,0,0,1,.9-.447h3.306c.52.1.636.337.707.86l0,3.672c-.006.2.1.8.466.939.292.1.485-.138.66-.324a11.387,11.387,0,0,0,1.861-2.861c.224-.452.417-.922.6-1.391a.708.708,0,0,1,.747-.512l3.182,0a1.676,1.676,0,0,1,.281.017c.536.091.683.322.517.846a7.944,7.944,0,0,1-1.265,2.194c-.531.734-1.1,1.443-1.624,2.182-.483.675-.445,1.014.155,1.6Z" transform="translate(0 -111.127)" fill="#fff"/>
</svg>
