<svg width="16" height="16" viewBox="0 0 16 16" fill="none" xmlns="http://www.w3.org/2000/svg">
<path d="M6.80281 1.04453L7.59558 0.251758C7.93126 -0.0839192 8.47405 -0.0839192 8.80616 0.251758L15.7482 7.19027C16.0839 7.52595 16.0839 8.06874 15.7482 8.40085L8.80616 15.3429C8.47048 15.6786 7.92769 15.6786 7.59558 15.3429L6.80281 14.5502C6.46356 14.2109 6.47071 13.6574 6.8171 13.3253L11.1202 9.22576H0.857047C0.3821 9.22576 0 8.84366 0 8.36871V7.22598C0 6.75103 0.3821 6.36893 0.857047 6.36893H11.1202L6.8171 2.26939C6.46714 1.93728 6.45999 1.38377 6.80281 1.04453Z" fill="#1D86E0"/>
</svg>
