<svg xmlns="http://www.w3.org/2000/svg" viewBox="0 0 251.6 278.7">
  <defs>
    <style>
      .cls-1 {
        fill: #1d86e0;
      }
    </style>
  </defs>
  <title>logo2_color1</title>
  <g id="Слой_2" data-name="Слой 2">
    <g id="Слой_1-2" data-name="Слой 1">
      <g id="logo2_color1">
        <path class="cls-1" d="M250.7,59.6c-2.5-20.8-10.3-34.5-24.6-43C213.8,9.2,177.8,3.3,177.8,3.3,164.6,1.2,146,.7,126.8,0h-2C105.6.7,87,1.2,73.9,3.3c0,0-36,5.9-48.4,13.3C11.2,25.1,3.5,38.8,1,59.6.1,67-.1,97.8,0,110.7s.1,43.8,1,51.1c2.5,20.8,10.2,34.5,24.5,43,12.4,7.4,48.4,13.3,48.4,13.3,13.1,2.1,31.8,4,50.9,5.3v.2h1.1l85.8,55.1V210.5c5.8-1.7,11-3.6,14.4-5.7,14.3-8.5,22.1-22.2,24.6-43,.8-7.3,1-38.2.9-51.1S251.5,67,250.7,59.6Zm-19.9,99.9c-2,16.8-7.4,25-19.1,30.2l-1.5.6-.4.2-1.1.4-.5.2-1.2.4-.4.2-5.5,1.5h-.3l-1.6.4h-.4l-1.7.4h-.4l-1.9.4-1.4.3-.7.2-3,.5v20.2h.2l-.2.2v24.9L160,222l-1.7-1.3h0L134,202.9h-1.2l-5.3.4h-1.4c-18.9-1.4-36.9-3.2-49-5.2l-1.8-.3c-37.8-6.1-51-9.7-54.4-38.5-.8-6.5-.9-48.7-.9-48.8s.1-42.3.9-48.7C24.3,33,37.5,29.4,75.3,23.2l1.8-.3A307.8,307.8,0,0,1,125.9,19a303.6,303.6,0,0,1,48.6,4.1l1.8.3c37.8,6.2,51.1,9.8,54.5,38.6.8,6.4.8,48.6.8,48.7S231.6,153,230.8,159.5Z"/>
        <path fill="black" d="M87.5,165.2a9.2,9.2,0,0,1-2.6-6.5v-97a9,9,0,0,1,8.8-9h19.7A55.3,55.3,0,0,1,154,69.5c11.1,11.3,16.7,24.8,16.7,40.6A56.2,56.2,0,0,1,154,150.9a55.4,55.4,0,0,1-40.6,16.9H94A9.4,9.4,0,0,1,87.5,165.2Zm15.7-94.3v78.6h10.2a39.3,39.3,0,0,0,.1-78.6H103.2Z"/>
      </g>
    </g>
  </g>
</svg>
