<svg width="39" height="39" viewBox="0 0 39 39" fill="none" xmlns="http://www.w3.org/2000/svg">
<path fill-rule="evenodd" clip-rule="evenodd" d="M19.5 39C8.73045 39 0 30.2696 0 19.5C0 8.73045 8.73045 0 19.5 0C30.2696 0 39 8.73045 39 19.5C39 30.2696 30.2696 39 19.5 39ZM19.5002 35.4545C28.3117 35.4545 35.4548 28.3114 35.4548 19.5C35.4548 10.6885 28.3117 3.54545 19.5002 3.54545C10.6888 3.54545 3.54568 10.6885 3.54568 19.5C3.54568 28.3114 10.6888 35.4545 19.5002 35.4545ZM19.5 27.1189C21.8391 27.1189 23.9837 28.2577 25.3051 30.1364L28.2051 28.0967C26.2267 25.2838 23.0057 23.5734 19.5 23.5734C15.9943 23.5734 12.7733 25.2838 10.7949 28.0967L13.6949 30.1364C15.0162 28.2577 17.1609 27.1189 19.5 27.1189ZM23.0457 19.5V15.9546H26.5911V19.5H23.0457ZM12.4093 15.9546V19.5H15.9547V15.9546H12.4093Z" fill="#1D86E0"/>
</svg>
