<svg id="round-information-button" xmlns="http://www.w3.org/2000/svg" width="26.078" height="26.079" viewBox="0 0 26.078 26.079">
  <g id="Group_10" data-name="Group 10">
    <path id="Path_11" data-name="Path 11" d="M13.039,0a13.039,13.039,0,1,0,13.04,13.039A13.054,13.054,0,0,0,13.039,0Zm0,24.369a11.329,11.329,0,1,1,11.33-11.329A11.342,11.342,0,0,1,13.039,24.369Z" fill="#fff"/>
    <path id="Path_12" data-name="Path 12" d="M179.945,93.272a1.14,1.14,0,1,0-1.14-1.14A1.14,1.14,0,0,0,179.945,93.272Z" transform="translate(-167.147 -85.06)" fill="#fff"/>
    <path id="Path_13" data-name="Path 13" d="M166.8,150.454h-.715V142.3a.855.855,0,0,0-.855-.855h-1.571a.855.855,0,0,0,0,1.71h.716v7.3h-.716a.855.855,0,0,0,0,1.71H166.8a.855.855,0,1,0,0-1.71Z" transform="translate(-152.187 -132.226)" fill="#fff"/>
  </g>
</svg>
