<svg xmlns="http://www.w3.org/2000/svg" width="127" height="26" viewBox="0 0 127 26">
  <g id="Group_539" data-name="Group 539" transform="translate(-123 -3391)">
    <text id="Eventpoint" transform="translate(158 3412)" fill="#1d86e0" font-size="18" font-family="SegoeUI-Bold, Segoe UI" font-weight="700"><tspan x="0" y="0">Eventpoint</tspan></text>
    <path id="Subtraction_4" data-name="Subtraction 4" d="M14.682-248.589a11.606,11.606,0,0,1-8.261-3.421A11.6,11.6,0,0,1,3-260.27a9.718,9.718,0,0,1,1.478-4.867,18.14,18.14,0,0,1,3.736-4.417,20.476,20.476,0,0,1,4.946-3.208A12.712,12.712,0,0,1,18.268-274c2.946,0,5.4,1.537,7.1,4.446a18.962,18.962,0,0,1,2.26,9.284,9.969,9.969,0,0,1-1.116,4.547,12.33,12.33,0,0,1-2.938,3.713A13.79,13.79,0,0,1,14.682-248.589ZM16.4-272.342A12.148,12.148,0,0,0,9.065-269.1a13.237,13.237,0,0,0-2.726,3.223,7.091,7.091,0,0,0-1.079,3.551,8.533,8.533,0,0,0,8.523,8.524,10.063,10.063,0,0,0,6.489-2.5,8.015,8.015,0,0,0,2.958-6.027A13.837,13.837,0,0,0,21.58-269.1,5.876,5.876,0,0,0,16.4-272.342Z" transform="translate(120 3665)" fill="#1d86e0"/>
  </g>
</svg>
