<svg xmlns="http://www.w3.org/2000/svg" width="24.627" height="25.411" viewBox="0 0 24.627 25.411">
  <path id="Subtraction_5" data-name="Subtraction 5" d="M11.681,25.412A11.681,11.681,0,0,1,0,13.73,9.718,9.718,0,0,1,1.478,8.863,18.14,18.14,0,0,1,5.215,4.446,20.476,20.476,0,0,1,10.16,1.238,12.71,12.71,0,0,1,15.268,0c2.946,0,5.4,1.537,7.1,4.446a18.963,18.963,0,0,1,2.26,9.284,9.971,9.971,0,0,1-1.116,4.547,12.33,12.33,0,0,1-2.938,3.713A13.79,13.79,0,0,1,11.681,25.412ZM13.4,1.658A12.148,12.148,0,0,0,6.065,4.9,13.236,13.236,0,0,0,3.339,8.125,7.093,7.093,0,0,0,2.26,11.677,8.533,8.533,0,0,0,10.783,20.2a10.063,10.063,0,0,0,6.489-2.5,8.013,8.013,0,0,0,2.958-6.027A13.838,13.838,0,0,0,18.58,4.9,5.876,5.876,0,0,0,13.4,1.658Z" fill="#fff"/>
</svg>
