<svg width="25" height="25" viewBox="0 0 25 25" fill="none" xmlns="http://www.w3.org/2000/svg">
<path fill-rule="evenodd" clip-rule="evenodd" d="M12.5 20.1C16.6974 20.1 20.1 16.6974 20.1 12.5C20.1 8.30264 16.6974 4.9 12.5 4.9C8.30264 4.9 4.9 8.30264 4.9 12.5C4.9 16.6974 8.30264 20.1 12.5 20.1ZM12.5 21.5C17.4706 21.5 21.5 17.4706 21.5 12.5C21.5 7.52944 17.4706 3.5 12.5 3.5C7.52944 3.5 3.5 7.52944 3.5 12.5C3.5 17.4706 7.52944 21.5 12.5 21.5Z" fill="white"/>
<path fill-rule="evenodd" clip-rule="evenodd" d="M8.5 12.5C8.5 12.1134 8.8134 11.8 9.2 11.8H15.8C16.1866 11.8 16.5 12.1134 16.5 12.5C16.5 12.8866 16.1866 13.2 15.8 13.2H9.2C8.8134 13.2 8.5 12.8866 8.5 12.5Z" fill="white"/>
<path fill-rule="evenodd" clip-rule="evenodd" d="M12.4992 8.5C12.8858 8.5 13.1992 8.8134 13.1992 9.2V15.8C13.1992 16.1866 12.8858 16.5 12.4992 16.5C12.1126 16.5 11.7992 16.1866 11.7992 15.8V9.2C11.7992 8.8134 12.1126 8.5 12.4992 8.5Z" fill="white"/>
</svg>
