<svg xmlns="http://www.w3.org/2000/svg" width="26.414" height="26.412" viewBox="0 0 27 27">
  <path id="Subtraction_8" data-name="Subtraction 8" d="M16411.207,16417.414a13.213,13.213,0,1,1,9.336-3.869A13.142,13.142,0,0,1,16411.207,16417.414Zm0-9.121a3.776,3.776,0,0,1,3.264,1.889.781.781,0,0,0,.672.387.769.769,0,0,0,.668-1.158,5.309,5.309,0,0,0-9.207-.008.768.768,0,0,0,.279,1.055.777.777,0,0,0,1.059-.281A3.784,3.784,0,0,1,16411.2,16408.293Zm3.727-7.861a1.351,1.351,0,1,0,1.352,1.354A1.352,1.352,0,0,0,16414.93,16400.432Zm-7.8,0a1.351,1.351,0,1,0,1.352,1.354A1.352,1.352,0,0,0,16407.127,16400.432Z" transform="translate(-16398 -16391.002)" fill="#ffc400"/>
</svg>
