<svg id="sad1" xmlns="http://www.w3.org/2000/svg" width="26.414" height="26.413" viewBox="0 0 26.414 26.413">
  <path id="Path_300" data-name="Path 300" d="M13.207,26.413A13.207,13.207,0,0,1,3.868,3.868,13.207,13.207,0,0,1,22.545,22.545,13.12,13.12,0,0,1,13.207,26.413Zm0-24.866a11.659,11.659,0,0,0-8.244,19.9A11.659,11.659,0,1,0,21.451,4.963,11.582,11.582,0,0,0,13.207,1.548Zm0,0" transform="translate(0 0)" fill="#fff"/>
  <path id="Path_301" data-name="Path 301" d="M173.276,308.989a.774.774,0,0,1-.671-.388,3.769,3.769,0,0,0-6.532-.005.774.774,0,1,1-1.34-.775,5.317,5.317,0,0,1,9.212.007.774.774,0,0,1-.67,1.161Zm0,0" transform="translate(-156.137 -289.421)" fill="#fff"/>
  <path id="Path_302" data-name="Path 302" d="M139.069,170.821a1.35,1.35,0,1,1,1.35-1.35A1.351,1.351,0,0,1,139.069,170.821Z" transform="translate(-129.942 -158.688)" fill="#fff"/>
  <path id="Path_303" data-name="Path 303" d="M139.069,170.821a1.35,1.35,0,1,1,1.35-1.35A1.351,1.351,0,0,1,139.069,170.821Z" transform="translate(-122.138 -158.688)" fill="#fff"/>
</svg>
