<svg xmlns="http://www.w3.org/2000/svg" width="23.476" height="22.39" viewBox="0 0 23.476 22.39">
  <path id="Path_189" data-name="Path 189" d="M23.476,19.667q0-.522-.79-.649L15.6,17.988l-3.174-6.419q-.268-.578-.691-.578t-.691.578L7.872,17.988.79,19.017q-.79.127-.79.649a1.075,1.075,0,0,0,.353.677l5.135,4.994L4.275,32.392a2.291,2.291,0,0,0-.028.282.832.832,0,0,0,.148.5.512.512,0,0,0,.444.2,1.2,1.2,0,0,0,.564-.169l6.334-3.33,6.335,3.33a1.142,1.142,0,0,0,.564.169.5.5,0,0,0,.431-.2.833.833,0,0,0,.148-.5,2.131,2.131,0,0,0-.014-.282l-1.213-7.054,5.121-4.994A1.019,1.019,0,0,0,23.476,19.667Z" transform="translate(0 -10.99)" fill="#137cd6"/>
</svg>
