<svg xmlns="http://www.w3.org/2000/svg" width="19.918" height="23.736" viewBox="0 0 19.918 23.736">
  <path id="Path_206" data-name="Path 206" d="M21.083,11.583c-.422-.5-3.9-6.035-4.072-6.528a32.351,32.351,0,0,1,.083-3.879C17.086.394,14.621-.753,13.962.691c-.392.857-1.682,3.858-1.554,4.714s.432,2.957.744,4.533H5.876A1.727,1.727,0,0,0,4.027,11.58a2.474,2.474,0,0,0,1.127,2.213,1.659,1.659,0,0,0-.577,1.449A2.432,2.432,0,0,0,5.7,17.027a1.677,1.677,0,0,0-.553,1.414,2.422,2.422,0,0,0,1.127,1.827A1.715,1.715,0,0,0,5.838,21.6a2.451,2.451,0,0,0,2.62,2.131l11.489,0a2.918,2.918,0,0,0,1.536-.6,2.093,2.093,0,0,1,.611-.321h1.844V13A12.878,12.878,0,0,1,21.083,11.583Z" transform="translate(-4.02 0)" fill="#c9d5e0"/>
</svg>
