<svg xmlns="http://www.w3.org/2000/svg" width="19.918" height="23.736" viewBox="0 0 19.918 23.736">
  <g id="thumb-up-black-sign" transform="translate(19.918 23.736) rotate(180)">
    <path id="Path_206" data-name="Path 206" d="M2.855,11.582c.422-.5,3.9-6.035,4.072-6.528a32.351,32.351,0,0,0-.083-3.879C6.853.393,9.318-.753,9.977.691c.392.857,1.682,3.858,1.554,4.714s-.432,2.957-.744,4.533h7.276a1.727,1.727,0,0,1,1.849,1.643,2.474,2.474,0,0,1-1.127,2.213,1.659,1.659,0,0,1,.577,1.449,2.432,2.432,0,0,1-1.121,1.786,1.677,1.677,0,0,1,.553,1.414,2.422,2.422,0,0,1-1.127,1.827A1.715,1.715,0,0,1,18.1,21.6a2.451,2.451,0,0,1-2.62,2.131l-11.489,0a2.918,2.918,0,0,1-1.536-.6,2.093,2.093,0,0,0-.611-.321H0V13A12.878,12.878,0,0,0,2.855,11.582Z" fill="#fff"/>
  </g>
</svg>
