<svg width="32" height="32" viewBox="0 0 32 32" fill="none" xmlns="http://www.w3.org/2000/svg">
<g clip-path="url(#clip0)">
<path d="M24.8721 20.631C24.0124 20.631 23.3176 21.3259 23.3176 22.1855V27.0682C23.3176 27.9263 22.6212 28.6227 21.7631 28.6227H4.66348C3.80537 28.6227 3.10901 27.9263 3.10901 27.0682V6.85971C3.10901 6.0016 3.80543 5.30523 4.66348 5.30523H13.6951C14.5547 5.30523 15.2496 4.61037 15.2496 3.75076C15.2496 2.89115 14.5547 2.19629 13.6951 2.19629H4.66348C2.09234 2.19616 0 4.28856 0 6.85971V27.0682C0 29.6394 2.09234 31.7317 4.66348 31.7317H21.763C24.3341 31.7317 26.4265 29.6409 26.4265 27.0682V22.1856C26.4265 21.3259 25.7317 20.631 24.8721 20.631Z" fill="#50CBFF"/>
<path d="M30.2617 1.99861C29.1332 0.870067 27.6595 0.301077 26.1749 0.270015C24.6126 0.235828 23.041 0.801631 21.8596 1.98461L11.3356 12.5086C9.79977 14.0507 8.9541 16.0964 8.9541 18.2696V21.7516C8.9541 22.6112 9.64896 23.3061 10.5086 23.3061H13.9906C16.1639 23.3061 18.2096 22.4604 19.7532 20.923L30.2632 10.413C32.5794 8.09538 32.5794 4.31794 30.2617 1.99861ZM17.5568 18.7236C16.6038 19.6734 15.3354 20.1972 13.9908 20.1972H12.0631V18.2696C12.0631 16.925 12.587 15.6565 13.5352 14.7051L20.473 7.76738L24.4929 11.7873L17.5568 18.7236ZM28.0637 8.21663L26.691 9.58929L22.6711 5.56936L24.0437 4.19676C25.1536 3.08684 26.9568 3.08997 28.0636 4.19676C29.1704 5.30505 29.1704 7.10827 28.0637 8.21663Z" fill="#50CBFF"/>
</g>
<defs>
<clipPath id="clip0">
<rect width="32" height="32" fill="white"/>
</clipPath>
</defs>
</svg>
