<svg width="32" height="32" viewBox="0 0 32 32" fill="none" xmlns="http://www.w3.org/2000/svg">
<g clip-path="url(#clip0)">
<path d="M5.81818 25.1818V18.6364C5.81818 18.0364 5.32727 17.5455 4.72727 17.5455H1.09091C0.490909 17.5455 0 18.0364 0 18.6364V25.1818C0 25.7818 0.490909 26.2727 1.09091 26.2727H4.72727C5.32727 26.2727 5.81818 25.7818 5.81818 25.1818ZM23.2727 25.1818V12.8182C23.2727 12.2182 22.7818 11.7273 22.1818 11.7273H18.5455C17.9455 11.7273 17.4545 12.2182 17.4545 12.8182V25.1818C17.4545 25.7818 17.9455 26.2727 18.5455 26.2727H22.1818C22.7818 26.2727 23.2727 25.7818 23.2727 25.1818ZM14.5455 25.1818V7C14.5455 6.4 14.0545 5.90909 13.4545 5.90909H9.81818C9.21818 5.90909 8.72727 6.4 8.72727 7V25.1818C8.72727 25.7818 9.21818 26.2727 9.81818 26.2727H13.4545C14.0545 26.2727 14.5455 25.7818 14.5455 25.1818ZM32 25.1818V4.09091C32 3.49091 31.5091 3 30.9091 3H27.2727C26.6727 3 26.1818 3.49091 26.1818 4.09091V25.1818C26.1818 25.7818 26.6727 26.2727 27.2727 26.2727H30.9091C31.5091 26.2727 32 25.7818 32 25.1818Z" fill="#50CBFF"/>
</g>
<defs>
<clipPath id="clip0">
<rect width="32" height="32" fill="white"/>
</clipPath>
</defs>
</svg>
