<svg width="48" height="48" viewBox="0 0 48 48" fill="none" xmlns="http://www.w3.org/2000/svg">
<g clip-path="url(#clip0)">
<path d="M45.8168 16.107L36.7096 19.547C36.088 19.767 35.5937 20.2479 35.3565 20.8631C35.1193 21.4784 35.1629 22.1666 35.476 22.747L36.2808 24.2398L34.1208 25.0478C33.3724 25.3346 32.5297 25.2238 31.8808 24.7534L29.1608 22.8142C34.2872 20.3663 36.9929 14.6576 35.6418 9.13975C34.2908 3.62191 29.2538 -0.191063 23.5764 0.00634618C17.899 0.203755 13.1389 4.35738 12.1744 9.95573C11.2099 15.5541 14.3056 21.0611 19.5896 23.147L19.1368 24.1486C15.3272 24.475 15.9928 25.5238 12.1464 23.9086C12.5696 23.067 13.064 22.3086 12.6488 21.1934C12.4157 20.5646 11.9296 20.0623 11.3088 19.8086L2.2016 16.1174C1.70837 15.9173 1.1479 15.9755 0.706368 16.2728C0.264837 16.5701 6.3696e-05 17.0675 0 17.5998V39.1998C0 40.0835 0.716344 40.7998 1.6 40.7998H2.1984C3.0943 40.8002 3.91439 40.297 4.32 39.4982L4.9912 38.1622L6.3664 38.8158C6.02366 39.7496 6.259 40.7975 6.96808 41.495C7.67717 42.1925 8.72881 42.4106 9.6568 42.0526C10.2166 43.4759 11.8206 44.18 13.2472 43.6286C13.7456 45.0529 15.2907 45.818 16.7256 45.351C17.0201 46.1991 17.7633 46.8119 18.652 46.9394C19.5406 47.0668 20.4262 46.6877 20.9472 45.9566L22.8392 47.4766C23.5434 48.0074 24.468 48.1468 25.2975 47.8474C26.1269 47.5479 26.7492 46.85 26.952 45.9918C27.6498 46.1852 28.3974 46.0615 28.9957 45.6536C29.594 45.2458 29.9825 44.5952 30.0576 43.875C31.6379 44.0781 33.0878 42.9727 33.3104 41.395C34.4456 41.7845 35.7038 41.4725 36.5254 40.5976C37.3471 39.7228 37.5798 38.4476 37.12 37.339L42.2064 35.231L43.692 37.9862C44.1227 38.7437 44.9302 39.2083 45.8016 39.1998H46.4C47.268 39.2141 47.9838 38.523 48 37.655V17.5454C47.9859 17.0247 47.7184 16.5437 47.2834 16.2571C46.8484 15.9705 46.3008 15.9144 45.8168 16.107ZM13.6 11.9998C13.6 6.25604 18.2562 1.59981 24 1.59981C29.7438 1.59981 34.4 6.25604 34.4 11.9998C34.4 17.7436 29.7438 22.3998 24 22.3998C18.259 22.3932 13.6066 17.7408 13.6 11.9998ZM2.1984 39.1998H1.6V17.5998L10.7072 21.2958C10.9168 21.3838 11.0797 21.556 11.1558 21.7703C11.2319 21.9845 11.2143 22.2209 11.1072 22.4214L2.8968 38.7734C2.76266 39.0355 2.49284 39.2003 2.1984 39.1998ZM9.072 40.567C8.71429 40.697 8.31348 40.5997 8.05521 40.3201C7.79695 40.0406 7.73166 39.6333 7.8896 39.287L8.776 37.367C8.91614 37.0605 9.20945 36.8522 9.54505 36.821C9.88065 36.7897 10.2074 36.9402 10.4017 37.2156C10.596 37.491 10.6283 37.8493 10.4864 38.155C9.572 40.1382 9.5584 40.3878 9.072 40.567ZM12.672 42.1414C12.2168 42.3093 11.7053 42.1867 11.3758 41.8306C11.0463 41.4745 10.9637 40.955 11.1664 40.5142L12.5064 37.607C12.6815 37.2107 13.0567 36.9396 13.4879 36.8977C13.9192 36.8558 14.3395 37.0496 14.5877 37.4047C14.8359 37.7599 14.8733 38.2213 14.6856 38.6118L13.3424 41.5198C13.2096 41.8087 12.9668 42.0325 12.668 42.1414H12.672ZM15.3872 43.7798C15.0981 43.6467 14.8737 43.4042 14.7635 43.1056C14.6532 42.807 14.666 42.4769 14.7992 42.1878L15.804 40.0086C15.977 39.6091 16.3527 39.3347 16.7859 39.2914C17.2191 39.2481 17.6417 39.4428 17.8903 39.8002C18.1389 40.1576 18.1744 40.6215 17.9832 41.0126L16.9784 43.1926C16.8451 43.4824 16.602 43.7072 16.3027 43.8174C16.0034 43.9275 15.6725 43.914 15.3832 43.7798H15.3872ZM19.7296 44.895C19.541 45.295 19.0653 45.4682 18.6637 45.2831C18.2621 45.098 18.0848 44.6238 18.2664 44.2206L19.2664 42.0502C19.455 41.6502 19.9307 41.477 20.3323 41.6621C20.7339 41.8472 20.9112 42.3214 20.7296 42.7246L19.7296 44.895ZM35.3344 39.535C34.7895 40.077 33.9185 40.1063 33.3384 39.6022L28.5304 35.3942C28.2232 35.1284 27.7645 35.1388 27.4696 35.4182C27.4462 35.4339 27.4238 35.451 27.4024 35.4694C27.2681 35.6241 27.1987 35.8248 27.2088 36.0294C27.1552 36.4502 27.3944 36.5286 31.2888 39.9446C31.5714 40.1894 31.7385 40.5413 31.7496 40.915C31.7659 41.468 31.4436 41.9751 30.9361 42.1952C30.4286 42.4153 29.8382 42.304 29.4456 41.9142L26.1656 38.6342C25.8517 38.331 25.3527 38.3354 25.0441 38.644C24.7356 38.9525 24.7312 39.4515 25.0344 39.7654L28.224 42.955C28.5744 43.3054 28.5744 43.8734 28.224 44.2238C27.8736 44.5742 27.3056 44.5742 26.9552 44.2238L25.3656 42.6342C25.1368 42.4055 24.7928 42.3371 24.4939 42.4609C24.195 42.5847 24.0001 42.8763 24 43.1998C24 43.615 24.1672 43.6958 25.1312 44.6622C25.5023 45.037 25.5261 45.6331 25.1861 46.0363C24.846 46.4396 24.2545 46.5167 23.8224 46.2142L21.68 44.4798L22.1808 43.395C22.5487 42.5929 22.4478 41.6537 21.918 40.948C21.3882 40.2423 20.5145 39.8833 19.6416 40.0126C19.5128 39.2756 19.092 38.6217 18.4746 38.1991C17.8571 37.7766 17.0953 37.6211 16.3616 37.7678C16.234 36.7005 15.5039 35.8018 14.4853 35.4583C13.4668 35.1148 12.3415 35.3878 11.5936 36.1598C11.0421 35.4793 10.1782 35.1318 9.30905 35.2408C8.43989 35.3499 7.68867 35.9001 7.3224 36.6958L7.02 37.3518L5.712 36.731L11.4272 25.3478C15.2984 26.9942 15.52 26.3078 18.368 25.8534L17.0552 28.7582C16.468 30.0478 16.9142 31.5729 18.1039 32.3426C19.2935 33.1123 20.8675 32.8943 21.8032 31.8302L24.96 28.3198L35.2648 37.4094C35.5676 37.6761 35.7465 38.0563 35.759 38.4596C35.7714 38.8629 35.6162 39.2534 35.3304 39.5382L35.3344 39.535ZM36.1176 36.0206L24.5296 25.799C24.1982 25.5065 23.6925 25.538 23.4 25.8694C23.1075 26.2008 23.139 26.7065 23.4704 26.999L23.7624 27.2566L20.6056 30.7694C20.1935 31.2376 19.5008 31.3335 18.9769 30.995C18.4531 30.6565 18.256 29.9854 18.5136 29.4174C20.3752 25.299 21.0584 23.779 21.1288 23.6382C23.1846 24.1614 25.3438 24.1163 27.376 23.5078L30.9472 26.0558C31.6223 26.544 32.4341 26.8068 33.2672 26.807C34.2632 26.807 34.8064 26.5014 37.0472 25.6638L41.44 33.8158L36.1176 36.0206ZM46.4 37.5998H45.8016C45.5155 37.6071 45.247 37.4622 45.096 37.219L36.88 21.9814C36.7889 21.8072 36.7804 21.6013 36.8569 21.4202C36.9334 21.2391 37.0868 21.1016 37.2752 21.0454L46.4 17.5454V37.5998Z" fill="#50CBFF"/>
<path d="M23.1999 7.99961C23.1999 6.67413 22.1254 5.59961 20.7999 5.59961C19.4744 5.59961 18.3999 6.67413 18.3999 7.99961C18.3999 9.32509 19.4744 10.3996 20.7999 10.3996C22.1254 10.3996 23.1999 9.32509 23.1999 7.99961ZM19.9999 7.99961C19.9999 7.55778 20.3581 7.19961 20.7999 7.19961C21.2417 7.19961 21.5999 7.55778 21.5999 7.99961C21.5999 8.44144 21.2417 8.79961 20.7999 8.79961C20.3581 8.79961 19.9999 8.44144 19.9999 7.99961Z" fill="#50CBFF"/>
<path d="M27.1998 10.3996C28.5253 10.3996 29.5998 9.32509 29.5998 7.99961C29.5998 6.67413 28.5253 5.59961 27.1998 5.59961C25.8743 5.59961 24.7998 6.67413 24.7998 7.99961C24.7998 9.32509 25.8743 10.3996 27.1998 10.3996ZM27.1998 7.19961C27.6416 7.19961 27.9998 7.55778 27.9998 7.99961C27.9998 8.44144 27.6416 8.79961 27.1998 8.79961C26.758 8.79961 26.3998 8.44144 26.3998 7.99961C26.3998 7.55778 26.758 7.19961 27.1998 7.19961Z" fill="#50CBFF"/>
<path d="M27.3974 16.9934C28.2393 16.1551 28.7392 15.0335 28.7998 13.847C28.8116 13.5735 28.7112 13.307 28.5218 13.1093C28.3324 12.9116 28.0704 12.7998 27.7966 12.7998H20.2046C19.93 12.7988 19.667 12.9106 19.477 13.109C19.2871 13.3074 19.1869 13.5751 19.1998 13.8494C19.3047 15.742 20.5111 17.3965 22.2808 18.0753C24.0506 18.754 26.0539 18.3304 27.3974 16.9934ZM20.8966 14.3998H27.1038C26.737 15.8136 25.4609 16.8008 24.0002 16.8008C22.5396 16.8008 21.2635 15.8136 20.8966 14.3998Z" fill="#50CBFF"/>
</g>
<defs>
<clipPath id="clip0">
<rect width="48" height="48" fill="white"/>
</clipPath>
</defs>
</svg>
