<svg width="24" height="22" viewBox="0 0 24 22" fill="none" xmlns="http://www.w3.org/2000/svg">
<path d="M3.77083 0L0 6.78571H4.2125L7.09583 0H3.77083ZM9.10417 0L6.22083 6.78571H17.7792L14.8958 0H9.10417ZM20.2292 0H16.9042L19.7875 6.78571H24L20.2292 0ZM24 8.14286H19.8042L14.6792 18.8176C14.6167 18.9491 14.7917 19.0679 14.8875 18.9576L24 8.14286ZM17.825 8.14286H6.175L11.8833 21.6379C11.925 21.7397 12.0708 21.7397 12.1125 21.6379L17.825 8.14286ZM9.32083 18.8176L4.19583 8.14286H0L9.1125 18.9533C9.20833 19.0679 9.38333 18.9491 9.32083 18.8176Z" fill="#1D86E0"/>
</svg>
