<svg width="48" height="48" viewBox="0 0 48 48" fill="none" xmlns="http://www.w3.org/2000/svg">
<g clip-path="url(#clip0)">
<path d="M14.6329 17.7649C14.7889 17.9209 14.9937 17.9993 15.1985 17.9993C15.4033 17.9993 15.6081 17.9209 15.7641 17.7649L16.5002 17.0289C16.8466 17.1993 17.221 17.2945 17.5986 17.2945C17.9762 17.2945 18.3507 17.1985 18.6971 17.0289L19.4331 17.7649C19.5891 17.9209 19.7939 17.9993 19.9987 17.9993C20.2036 17.9993 20.4084 17.9209 20.5644 17.7649C20.8772 17.4521 20.8772 16.9465 20.5644 16.6337L19.8291 15.8984C20.17 15.2056 20.17 14.3935 19.8291 13.7007L20.5644 12.9655C20.8772 12.6527 20.8772 12.147 20.5644 11.8342C20.2516 11.5214 19.7459 11.5214 19.4331 11.8342L18.6971 12.5703C18.0042 12.2302 17.193 12.2302 16.4994 12.5703L15.7633 11.8342C15.4505 11.5214 14.9449 11.5214 14.6321 11.8342C14.3193 12.147 14.3193 12.6527 14.6321 12.9655L15.3681 13.7015C15.0273 14.3943 15.0273 15.2056 15.3681 15.8992L14.6321 16.6353C14.3201 16.9465 14.3201 17.4529 14.6329 17.7649ZM18.2331 14.1647C18.5827 14.5152 18.5827 15.0832 18.2331 15.4336C17.8826 15.784 17.3146 15.784 16.9642 15.4336C16.6146 15.0832 16.6146 14.5152 16.9642 14.1647C17.1394 13.9895 17.369 13.9023 17.5986 13.9023C17.8282 13.9023 18.0578 13.9903 18.2331 14.1647Z" fill="#50CBFF"/>
<path d="M27.4337 17.7649C27.5897 17.9209 27.7945 17.9993 27.9993 17.9993C28.2041 17.9993 28.4089 17.9209 28.5649 17.7649L29.3009 17.0289C29.6474 17.1993 30.0218 17.2945 30.3994 17.2945C30.777 17.2945 31.1514 17.1985 31.4979 17.0289L32.2339 17.7649C32.3899 17.9209 32.5947 17.9993 32.7995 17.9993C33.0043 17.9993 33.2091 17.9209 33.3651 17.7649C33.678 17.4521 33.678 16.9465 33.3651 16.6337L32.6299 15.8984C32.9707 15.2056 32.9707 14.3935 32.6299 13.7007L33.3651 12.9655C33.678 12.6527 33.678 12.147 33.3651 11.8342C33.0523 11.5214 32.5467 11.5214 32.2339 11.8342L31.4979 12.5703C30.805 12.2302 29.9938 12.2302 29.3001 12.5703L28.5641 11.8342C28.2513 11.5214 27.7457 11.5214 27.4329 11.8342C27.12 12.147 27.12 12.6527 27.4329 12.9655L28.1689 13.7015C27.8281 14.3943 27.8281 15.2056 28.1689 15.8992L27.4329 16.6353C27.1208 16.9465 27.1208 17.4529 27.4337 17.7649ZM31.0338 14.1647C31.3835 14.5152 31.3835 15.0832 31.0338 15.4336C30.6834 15.784 30.1154 15.784 29.765 15.4336C29.4154 15.0832 29.4154 14.5152 29.765 14.1647C29.9402 13.9895 30.1698 13.9023 30.3994 13.9023C30.629 13.9023 30.8586 13.9903 31.0338 14.1647Z" fill="#50CBFF"/>
<path d="M47.6115 19.8552C47.1754 19.1935 46.4426 18.7991 45.6506 18.7991H43.2C43.2 9.09384 35.3045 1.19824 25.5992 1.19824H22.399C12.9617 1.19824 5.23815 8.66422 4.81813 17.9991H2.46041C1.64117 17.9991 0.879533 18.4047 0.42191 19.0847C-0.0349124 19.7648 -0.123717 20.6232 0.169898 21.3417L5.62457 37.1264C5.94619 38.3473 6.92863 39.2513 8.12469 39.5146L7.41666 46.8005H11.04L12.6401 39.6002H35.3581L36.9581 46.8005H40.5815L39.8735 39.5146C41.0687 39.2529 42.0488 38.3585 42.3528 37.1936L47.8099 22.0737C48.1211 21.3456 48.0475 20.5168 47.6115 19.8552ZM22.399 2.79832H25.5992C34.422 2.79832 41.6 9.97628 41.6 18.7991V18.8183C41.5736 18.8215 41.548 18.8295 41.5224 18.8335C41.4584 18.8431 41.396 18.8567 41.3336 18.8703C41.2479 18.8887 41.1631 18.9095 41.0799 18.9351C41.0175 18.9543 40.9575 18.9775 40.8967 19.0007C40.8167 19.0319 40.7391 19.0663 40.6631 19.1039C40.6047 19.1327 40.5487 19.1631 40.4927 19.1959C40.4191 19.2391 40.3487 19.2855 40.2791 19.3351C40.2271 19.3728 40.1751 19.4096 40.1255 19.4504C40.0583 19.5056 39.9959 19.5648 39.9335 19.6256C39.8887 19.6696 39.8431 19.712 39.8007 19.7592C39.7399 19.8264 39.6863 19.8992 39.6319 19.9728C39.5967 20.0208 39.5583 20.0664 39.5255 20.1176C39.4703 20.2032 39.4239 20.2944 39.3775 20.3864C39.3543 20.4312 39.3279 20.4736 39.307 20.52C39.2446 20.6616 39.191 20.8088 39.151 20.9624L37.5694 27.6772C37.5574 27.7276 37.5366 27.7732 37.5222 27.822C36.5157 26.2267 34.754 25.1986 32.8003 25.1986H15.1994C13.3554 25.1986 11.6481 26.1427 10.6176 27.6188L8.74232 19.2999L8.63992 19.1631C7.91908 18.2007 7.16625 17.9983 6.66222 17.9983H6.41821C6.83583 9.54666 13.8442 2.79832 22.399 2.79832ZM13.0129 29.9485C13.0001 29.9461 12.9889 29.9413 12.9761 29.9389C12.4441 29.8317 11.9481 29.5829 11.5425 29.21C12.1729 27.7716 13.6178 26.7995 15.1978 26.7995H32.7987C34.4484 26.7995 35.9165 27.8228 36.5149 29.3372C35.9837 29.7621 35.3189 29.9997 34.6348 29.9997H13.5626C13.377 29.9997 13.1929 29.9821 13.0129 29.9485ZM9.75677 45.2004H9.17995L9.72477 39.6002H11.0016L9.75677 45.2004ZM38.2414 45.2004L36.9965 39.6002H38.2734L38.8182 45.2004H38.2414ZM46.3218 21.4873L40.8263 36.7184C40.6271 37.4737 39.9431 38.0009 39.163 38.0009H35.002H12.9953H8.83433C8.05429 38.0009 7.37026 37.4737 7.15425 36.6616L1.66757 20.7792C1.55797 20.5112 1.58837 20.2184 1.75078 19.9784C1.91238 19.7376 2.1716 19.6 2.46121 19.6H4.79813H6.66142C6.82863 19.6 7.04224 19.7432 7.25825 19.9984L9.06234 28.0028C9.19115 28.5748 9.42716 29.094 9.73518 29.5565L9.73037 29.5733L9.94879 29.8397C10.3728 30.3797 10.908 30.8149 11.5241 31.1173C11.6057 31.1581 11.6881 31.1933 11.7721 31.2293C11.8913 31.2797 12.0097 31.3293 12.1337 31.3693C12.3081 31.427 12.4865 31.4726 12.6673 31.5086C12.7361 31.5222 12.8049 31.5334 12.8745 31.5438C13.1017 31.5782 13.3306 31.6022 13.5642 31.6022H34.6364C34.8676 31.6022 35.0956 31.579 35.3221 31.5438C35.3829 31.535 35.4429 31.5262 35.5029 31.515C35.6997 31.4774 35.8925 31.4278 36.0821 31.3645C36.1693 31.3357 36.2533 31.3013 36.3381 31.2677C36.4509 31.2229 36.5613 31.1725 36.6701 31.1189C36.8117 31.0493 36.9469 30.9733 37.0805 30.8901C37.1749 30.8309 37.2685 30.7709 37.3582 30.7053C37.451 30.6373 37.5398 30.5677 37.627 30.4933C37.7126 30.4205 37.7934 30.3421 37.8734 30.2621C37.951 30.1853 38.031 30.1125 38.103 30.0301L38.3214 29.7941L38.3118 29.7573C38.6862 29.2588 38.9758 28.6876 39.127 28.0468L40.7039 21.3521C40.8511 20.792 41.3584 20.4016 41.9376 20.4016H43.2016H45.6522C45.9082 20.4016 46.1362 20.524 46.277 20.7376C46.417 20.9496 46.4394 21.208 46.3218 21.4873Z" fill="#50CBFF"/>
</g>
<defs>
<clipPath id="clip0">
<rect width="48" height="48" fill="white"/>
</clipPath>
</defs>
</svg>
