<svg width="48" height="48" viewBox="0 0 48 48" fill="none" xmlns="http://www.w3.org/2000/svg">
<g clip-path="url(#clip0)">
<path d="M28.9766 3.75494C28.5455 3.65696 28.1167 3.92708 28.0187 4.35809C27.9207 4.7891 28.1909 5.21805 28.6219 5.31602C39.1917 7.71794 46.1486 17.83 44.6131 28.56C43.0776 39.2899 33.5641 47.0452 22.7448 46.3864C11.9256 45.7277 3.42329 36.8754 3.20108 26.0384C2.97887 15.2014 11.1112 6.00806 21.8945 4.90639L19.2843 7.42476C18.9678 7.73182 18.9593 8.23718 19.2656 8.55455C19.5718 8.87192 20.077 8.88177 20.3954 8.5764L24.5209 4.59558C24.6201 4.51007 24.6965 4.40122 24.7428 4.27868C24.7569 4.2317 24.7666 4.18351 24.7717 4.13476C24.7849 4.09078 24.794 4.04569 24.7989 4.00012C24.7989 3.99027 24.7937 3.98221 24.7933 3.97246C24.7931 3.95015 24.8041 3.92961 24.802 3.90711C24.7899 3.84757 24.771 3.78972 24.7454 3.73469C24.7379 3.71359 24.7339 3.69184 24.7247 3.67159C24.6878 3.58814 24.6365 3.51201 24.573 3.44657L24.5547 3.42753C24.5221 3.38581 24.4853 3.34756 24.445 3.31334L19.6094 0.131909C19.2404 -0.11102 18.7444 -0.00891635 18.5014 0.360119C18.2585 0.72906 18.3606 1.22514 18.7296 1.46807L21.5664 3.33462C10.2104 4.58874 1.61131 14.1774 1.59668 25.6024C1.59949 37.3255 10.64 47.064 22.3306 47.9369C34.0213 48.8099 44.4079 40.522 46.1517 28.9293C47.8956 17.3366 40.4068 6.35984 28.9766 3.75494Z" fill="#50CBFF"/>
<path d="M16.0757 11.7183C16.0493 11.7256 16.0233 11.7344 15.9979 11.7446C15.9708 11.7654 15.9451 11.7881 15.921 11.8124C13.5625 13.1999 11.5966 15.1658 10.2091 17.5243C10.1847 17.5485 10.162 17.5743 10.1411 17.6014C10.131 17.6268 10.1223 17.6525 10.115 17.6789C7.29109 22.5837 7.29109 28.6208 10.115 33.5257C10.1223 33.5519 10.131 33.5778 10.1411 33.6031C10.1695 33.649 10.2026 33.6917 10.2398 33.7308C11.6256 36.0671 13.58 38.0146 15.921 39.3922C15.9451 39.4164 15.9707 39.4391 15.9979 39.4599C16.0326 39.4774 16.0685 39.4922 16.1054 39.5043C20.9952 42.3037 27.002 42.3037 31.8919 39.5043C31.9288 39.4922 31.9648 39.4774 31.9994 39.4599C32.0265 39.4391 32.0522 39.4164 32.0763 39.3922C34.4173 38.0146 36.3717 36.0671 37.7575 33.7308C37.7946 33.6917 37.8277 33.649 37.8562 33.6031C37.8663 33.5778 37.875 33.552 37.8823 33.5257C40.7062 28.6208 40.7062 22.5837 37.8823 17.6789C37.8751 17.6526 37.8664 17.6268 37.8562 17.6014C37.8355 17.5744 37.8129 17.5488 37.7886 17.5249C36.4011 15.1661 34.4351 13.2 32.0763 11.8124C32.0394 11.7616 31.9838 11.7277 31.9218 11.7184C27.0172 8.89471 20.9805 8.89462 16.0757 11.7183ZM24.7988 12.0009V11.2413C26.7801 11.3478 28.7175 11.8661 30.4874 12.763L30.1063 13.4228C29.8857 13.8055 30.0169 14.2947 30.3995 14.5156C30.7821 14.7365 31.2713 14.6054 31.4923 14.2229L31.875 13.5604C33.5338 14.6494 34.9515 16.067 36.0404 17.7258L35.3779 18.1084C34.9954 18.3295 34.8644 18.8186 35.0853 19.2013C35.3062 19.5839 35.7953 19.7151 36.178 19.4944L36.8378 19.1133C37.7347 20.8832 38.253 22.8206 38.3595 24.8019H37.6C37.1581 24.8019 36.7999 25.1602 36.7999 25.602C36.7999 26.0439 37.1581 26.402 37.6 26.402H38.3595C38.253 28.3834 37.7347 30.3208 36.8378 32.0907L36.178 31.7095C35.9304 31.5665 35.6252 31.5664 35.3776 31.7094C35.13 31.8523 34.9774 32.1166 34.9775 32.4026C34.9775 32.6886 35.1302 32.9528 35.378 33.0957L36.0405 33.4783C34.9516 35.1371 33.5338 36.5548 31.8751 37.6437L31.4924 36.9812C31.3495 36.7334 31.0854 36.5808 30.7994 36.5807C30.5134 36.5806 30.2491 36.7332 30.1061 36.9809C29.9631 37.2286 29.9632 37.5337 30.1063 37.7813L30.4874 38.4411C28.7175 39.338 26.7801 39.8563 24.7988 39.9628V39.2032C24.7988 38.7613 24.4406 38.4032 23.9987 38.4032C23.5569 38.4032 23.1987 38.7613 23.1987 39.2032V39.9628C21.2174 39.8563 19.28 39.338 17.5101 38.4411L17.8912 37.7813C18.1118 37.3986 17.9806 36.9094 17.598 36.6885C17.2154 36.4676 16.7262 36.5987 16.5052 36.9811L16.1225 37.6436C14.4637 36.5547 13.046 35.137 11.9571 33.4782L12.6196 33.0956C12.8673 32.9528 13.02 32.6886 13.0201 32.4025C13.0202 32.1165 12.8677 31.8522 12.62 31.7093C12.3723 31.5663 12.0672 31.5664 11.8196 31.7095L11.1598 32.0906C10.2629 30.3207 9.74457 28.3833 9.63806 26.4019H10.3976C10.8395 26.4019 11.1976 26.0437 11.1976 25.6019C11.1976 25.16 10.8394 24.8019 10.3976 24.8019H9.63806C9.74457 22.8205 10.2629 20.8831 11.1598 19.1132L11.8196 19.4943C12.0672 19.6374 12.3724 19.6375 12.62 19.4945C12.8676 19.3516 13.0202 19.0872 13.0201 18.8013C13.02 18.5153 12.8674 18.2511 12.6196 18.1082L11.9571 17.7256C13.046 16.0668 14.4637 14.6491 16.1225 13.5602L16.5052 14.2227C16.648 14.4705 16.9122 14.6231 17.1982 14.6232C17.4842 14.6233 17.7485 14.4707 17.8915 14.223C18.0345 13.9753 18.0344 13.6702 17.8913 13.4226L17.5102 12.7628C19.28 11.8659 21.2175 11.3476 23.1988 11.2411V12.0007C23.1988 12.4425 23.557 12.8007 23.9988 12.8007C24.4407 12.8007 24.7988 12.4427 24.7988 12.0009Z" fill="#50CBFF"/>
<path d="M23.1987 16.8009V22.5151C21.6891 22.9022 20.6793 24.3225 20.8096 25.8755C20.9399 27.4285 22.172 28.6607 23.7251 28.7909C25.2781 28.9212 26.6983 27.9115 27.0855 26.4018H30.3994C30.8413 26.4018 31.1994 26.0436 31.1994 25.6018C31.1994 25.1599 30.8413 24.8018 30.3994 24.8018H27.0855C26.7938 23.6816 25.919 22.8068 24.7989 22.5152V16.801C24.7989 16.3591 24.4407 16.001 23.9988 16.001C23.557 16.001 23.1987 16.359 23.1987 16.8009ZM25.5989 25.6018C25.5978 26.4851 24.8821 27.2009 23.9987 27.202C23.115 27.202 22.3986 26.4856 22.3986 25.6018C22.3986 24.718 23.115 24.0016 23.9987 24.0016C24.8825 24.0016 25.5989 24.718 25.5989 25.6018Z" fill="#50CBFF"/>
</g>
<defs>
<clipPath id="clip0">
<rect width="48" height="48" fill="white"/>
</clipPath>
</defs>
</svg>
