<svg width="48" height="48" viewBox="0 0 48 48" fill="none" xmlns="http://www.w3.org/2000/svg">
<g clip-path="url(#clip0)">
<path d="M47.6355 19.8591C47.5672 19.4777 47.2354 19.2001 46.848 19.2001H42.584C42.1413 17.4615 41.4506 15.7958 40.5332 14.254L43.5496 11.2376C43.8239 10.9635 43.862 10.5321 43.6398 10.2142C42.049 7.93286 40.0673 5.95099 37.7859 4.36024C37.468 4.13824 37.0366 4.17631 36.7624 4.45043L33.746 7.46683C32.2043 6.5494 30.5384 5.85874 28.7999 5.41605V1.15203C28.7999 0.764657 28.5224 0.432877 28.141 0.364533C25.4015 -0.119029 22.5985 -0.119029 19.8589 0.364533C19.8001 0.378783 19.7431 0.399783 19.6891 0.427252C17.4262 -0.366434 14.9213 -0.0425287 12.9348 1.30062C10.9483 2.64378 9.71454 4.84774 9.60814 7.24343C9.41895 7.26424 9.23333 7.29639 9.04873 7.33165C9.01498 7.33811 8.97992 7.34083 8.94626 7.34777C8.72014 7.39427 8.49814 7.45221 8.28017 7.51943C8.21127 7.54071 8.14536 7.56846 8.0773 7.5918C7.92955 7.64233 7.78199 7.69286 7.63874 7.75258C7.55755 7.78643 7.47992 7.82646 7.40033 7.86311C7.27489 7.92096 7.14927 7.97814 7.02777 8.04283C6.94461 8.08717 6.86502 8.13667 6.78374 8.18411C6.67114 8.25002 6.55846 8.31564 6.44971 8.38736C6.36899 8.44052 6.29174 8.4978 6.21327 8.55414C6.10958 8.62858 6.00655 8.70358 5.90708 8.78327C5.83096 8.8443 5.75774 8.90842 5.68415 8.97245C5.58918 9.05514 5.49543 9.13886 5.40477 9.22633C5.3339 9.29477 5.26546 9.36527 5.19749 9.43661C5.11105 9.52717 5.02668 9.61933 4.94502 9.7143C4.88062 9.78911 4.8179 9.86523 4.75677 9.94258C4.67896 10.0409 4.60424 10.1413 4.53149 10.2436C4.4743 10.3241 4.41805 10.405 4.36415 10.488C4.29534 10.5939 4.23065 10.702 4.16737 10.8116C4.11805 10.8969 4.06884 10.9821 4.0229 11.0694C3.96346 11.1828 3.90937 11.2989 3.85584 11.4157C3.81515 11.5045 3.77343 11.5927 3.73621 11.6835C3.68643 11.8052 3.64331 11.9298 3.60009 12.0547C3.56877 12.1453 3.53521 12.2347 3.50737 12.3268C3.46743 12.4592 3.43565 12.5949 3.4034 12.7302C3.38221 12.8189 3.35737 12.9062 3.33956 12.9962C3.30928 13.1485 3.28903 13.304 3.26868 13.4596C3.25865 13.5361 3.24365 13.611 3.23606 13.6882C3.21299 13.9225 3.19996 14.1597 3.19996 14.4C3.19593 15.365 3.38962 16.3206 3.76912 17.2078C3.71896 17.239 3.67546 17.2776 3.62606 17.3097C3.49593 17.395 3.37143 17.4875 3.24674 17.5801C2.95912 17.7915 2.68593 18.022 2.42906 18.2699C2.39953 18.2986 2.36746 18.3246 2.3384 18.3537C2.18812 18.5037 2.04909 18.6622 1.91193 18.8229C1.86628 18.8766 1.82043 18.9299 1.77618 18.9848C1.64278 19.15 1.51528 19.3183 1.39575 19.4932C1.36247 19.5418 1.33256 19.5924 1.30031 19.6417C0.953998 20.173 0.672936 20.7442 0.463312 21.3427C0.413343 21.4842 0.364499 21.626 0.322312 21.7709C0.284062 21.9039 0.250031 22.0378 0.218625 22.1733C0.175031 22.3588 0.139968 22.5471 0.109687 22.7373C0.0924373 22.8467 0.0722811 22.9547 0.0595311 23.0653C0.0482812 23.1609 0.0406874 23.2572 0.0329062 23.3538C0.0304687 23.3699 0.0208125 23.3828 0.0193125 23.3993C0.00121875 23.5997 0 23.7996 0 24.0001C0.00346874 26.3006 0.995248 28.4887 2.72306 30.0077C2.36906 30.5865 2.09475 31.2103 1.90753 31.8624C1.89675 31.8993 1.88597 31.9358 1.87575 31.9728C1.79334 32.2728 1.72931 32.5776 1.68422 32.8854C1.67681 32.9362 1.67212 32.9874 1.66575 33.0384C1.62384 33.3573 1.6019 33.6784 1.60003 34C1.58437 37.5404 4.0273 40.6176 7.47889 41.4055C7.50186 41.4944 7.53289 41.5795 7.55849 41.6672C7.58352 41.7526 7.60845 41.8379 7.63602 41.9221C7.69892 42.1156 7.76942 42.305 7.84499 42.492C7.86927 42.5518 7.8912 42.6125 7.9167 42.6718C8.23995 43.4229 8.6668 44.1251 9.18476 44.7579C9.21636 44.7965 9.24983 44.8334 9.28208 44.8715C9.42111 45.0358 9.56558 45.1947 9.71548 45.3482C9.76489 45.3988 9.81523 45.4481 9.86586 45.4974C10.006 45.6337 10.1505 45.765 10.2993 45.8914C10.3591 45.9424 10.4181 45.9938 10.4793 46.0432C10.6307 46.1654 10.7871 46.2808 10.9463 46.3927C11.0071 46.4355 11.0657 46.4809 11.1276 46.5222C11.3451 46.667 11.5677 46.8044 11.7978 46.9297C11.8398 46.9526 11.8843 46.971 11.9267 46.9933C12.1158 47.0924 12.3076 47.1865 12.5041 47.2718C12.6019 47.3144 12.7025 47.3506 12.8022 47.3896C12.9497 47.4474 13.0977 47.5035 13.2487 47.5534C13.358 47.5895 13.4687 47.6218 13.5798 47.6537C13.7307 47.697 13.883 47.7363 14.0367 47.7715C14.1459 47.7965 14.2549 47.8211 14.3656 47.842C14.5381 47.8746 14.7125 47.8995 14.888 47.9219C14.9827 47.9339 15.0763 47.9492 15.1719 47.9581C15.4453 47.9839 15.721 48 16.0001 48C17.1557 48.0005 18.3002 47.7719 19.367 47.3277C19.4862 47.4889 19.6621 47.5989 19.8591 47.6356C22.5984 48.1215 25.4019 48.1215 28.1412 47.6356C28.5225 47.5673 28.8001 47.2356 28.8001 46.8481V42.584C30.5387 42.1413 32.2045 41.4507 33.7462 40.5332L36.7626 43.5496C37.0365 43.8243 37.4682 43.8624 37.7861 43.6398C40.0674 42.0491 42.0492 40.0673 43.64 37.7859C43.8622 37.468 43.8241 37.0366 43.5498 36.7624L40.5334 33.746C41.4508 32.2043 42.1415 30.5385 42.5842 28.8H46.8482C47.2356 28.8 47.5673 28.5224 47.6357 28.141C48.1214 25.4017 48.1214 22.5983 47.6355 19.8591ZM16 46.4C15.7675 46.4 15.538 46.3868 15.311 46.3651C15.2292 46.3574 15.149 46.3433 15.068 46.3327C14.9253 46.3141 14.7827 46.2945 14.6425 46.2676C14.5465 46.2492 14.452 46.2259 14.3572 46.2037C14.2346 46.1749 14.1125 46.1446 13.9923 46.1097C13.895 46.0813 13.7988 46.0502 13.7031 46.0179C13.5873 45.9788 13.4729 45.9368 13.3599 45.892C13.2679 45.8556 13.1763 45.8185 13.0861 45.7784C12.9689 45.7262 12.8543 45.6698 12.7406 45.6117C12.6606 45.5709 12.5799 45.5313 12.5016 45.4876C12.3688 45.4134 12.2399 45.3331 12.1124 45.2508C12.0587 45.2162 12.0031 45.1844 11.9502 45.1484C11.5801 44.8961 11.2342 44.61 10.9169 44.2939C10.9067 44.2837 10.8973 44.2725 10.8871 44.2622C10.7409 44.1145 10.6011 43.9607 10.4678 43.801C10.4441 43.7725 10.422 43.7426 10.3986 43.7137C10.2823 43.5695 10.1706 43.4214 10.0654 43.2685C10.0384 43.2291 10.0127 43.1887 9.98623 43.1488C9.89023 43.0029 9.79929 42.8535 9.7137 42.7006C9.68689 42.6525 9.66045 42.6041 9.63457 42.5553C9.55592 42.4068 9.48336 42.2547 9.41501 42.1003C9.39054 42.0449 9.36533 41.9897 9.34226 41.9336C9.27945 41.781 9.22376 41.625 9.17126 41.4674C9.1513 41.4071 9.12917 41.3479 9.1107 41.2869C9.06073 41.1224 9.01958 40.9543 8.98133 40.785C8.96886 40.7298 8.95301 40.676 8.94186 40.6202C8.5362 38.6093 9.00814 36.5207 10.2393 34.8797C10.5034 34.5266 10.4317 34.0263 10.0791 33.7613C9.72654 33.4964 9.22601 33.5669 8.96033 33.9188C7.81245 35.4397 7.19408 37.2947 7.1998 39.2001C7.1998 39.3585 7.21527 39.5129 7.22361 39.6692C4.80674 38.8362 3.18871 36.5566 3.19987 34.0002C3.19978 33.6707 3.22649 33.3417 3.27984 33.0165C3.28546 32.982 3.29821 32.9501 3.30449 32.9158C3.47249 31.9796 3.86493 31.0981 4.44796 30.3467C4.4534 30.3396 4.45434 30.3304 4.45949 30.3232C5.21465 29.3457 6.25424 28.6263 7.43511 28.2639C7.85755 28.1341 8.09464 27.6863 7.9648 27.2639C7.83495 26.8415 7.3872 26.6044 6.96477 26.7342C5.72549 27.114 4.60405 27.8045 3.70715 28.7403C2.3684 27.5276 1.60322 25.8065 1.59984 24.0002C1.6019 23.7318 1.62056 23.4637 1.65572 23.1977C1.66631 23.1128 1.68037 23.029 1.69434 22.9452C1.72425 22.7632 1.76353 22.5843 1.80862 22.4072C1.83168 22.3176 1.851 22.2265 1.8779 22.1385C1.94447 21.9191 2.02275 21.7035 2.11265 21.4926C2.16496 21.37 2.226 21.2523 2.28571 21.1339C2.33531 21.0348 2.38668 20.9367 2.44134 20.8404C2.51484 20.7117 2.59012 20.584 2.67206 20.461C2.71921 20.3902 2.77181 20.323 2.82178 20.254C2.97749 20.0395 3.14624 19.8349 3.32709 19.6411C3.39787 19.5654 3.46771 19.4891 3.54243 19.4168C3.6404 19.3216 3.74184 19.2301 3.84562 19.1412C3.95999 19.0438 4.07924 18.9512 4.20112 18.8614C4.29759 18.7898 4.39349 18.7182 4.4939 18.6521C4.67971 18.5308 4.87162 18.4191 5.06877 18.3172C5.97402 17.8463 6.97939 17.6003 7.99977 17.6002C8.44161 17.6002 8.79973 17.242 8.79973 16.8002C8.79973 16.3583 8.44151 16.0002 7.99977 16.0002C7.04764 16.0021 6.10368 16.1752 5.21277 16.511C4.93743 15.8414 4.79708 15.1241 4.79971 14.4002C4.80008 11.8654 6.50296 9.64689 8.95142 8.99111C11.3999 8.33533 13.9836 9.40577 15.2509 11.601C15.3941 11.8484 15.6585 12.0007 15.9443 12.0004C16.2302 12.0001 16.4942 11.8473 16.6369 11.5996C16.7796 11.3519 16.7793 11.0469 16.6361 10.7995C15.4898 8.82949 13.4814 7.51577 11.2173 7.25496C11.4024 4.01468 14.1321 1.50997 17.3763 1.60344C20.6206 1.69691 23.2015 4.35471 23.1997 7.60033V12.5439L19.7263 17.4069L16.7879 16.1175C16.7898 16.0778 16.7997 16.0404 16.7997 16.0003C16.8114 14.8293 15.9845 13.8173 14.8347 13.5954C13.6848 13.3734 12.5407 14.0052 12.1159 15.0965C11.6912 16.1878 12.1071 17.4267 13.1044 18.0406C14.1018 18.6545 15.3952 18.4677 16.1782 17.597L19.0837 18.8722C19.2846 18.9601 19.5016 19.0055 19.7208 19.0054C20.239 19.0059 20.7257 18.757 21.0286 18.3367L23.1997 15.2969V21.6003H16.6523C16.2627 20.4982 15.1358 19.8372 13.9837 20.0348C12.8316 20.2325 11.9896 21.2314 11.9896 22.4002C11.9896 23.5691 12.8316 24.568 13.9837 24.7656C15.1358 24.9633 16.2627 24.3022 16.6523 23.2002H23.1997V26.4002H21.4523C21.0627 25.2981 19.9358 24.6371 18.7837 24.8347C17.6316 25.0324 16.7896 26.0313 16.7896 27.2001C16.7896 28.369 17.6316 29.3679 18.7837 29.5655C19.9358 29.7632 21.0627 29.1021 21.4523 28.0001H23.1997V31.2001H16.6556C15.8936 31.2016 15.2378 31.739 15.0869 32.486L14.5221 35.3094C13.4143 35.6466 12.7092 36.7314 12.8506 37.8807C12.992 39.0301 13.9391 39.9114 15.0956 39.97C16.2521 40.0286 17.2834 39.2475 17.5403 38.1182C17.7972 36.989 17.2053 35.8386 16.1373 35.3912L16.6555 32.8H23.1996V39.2C23.1954 43.1745 19.9745 46.3954 16 46.4ZM15.2 16C15.2 16.4419 14.8418 16.8 14.4001 16.8C13.9582 16.8 13.6001 16.4419 13.6001 16C13.6001 15.5582 13.9583 15.2001 14.4001 15.2001C14.8416 15.2006 15.1995 15.5585 15.2 16ZM15.2 22.4001C15.2 22.8419 14.8418 23.2 14.4001 23.2C13.9582 23.2 13.6001 22.8419 13.6001 22.4001C13.6001 21.9582 13.9583 21.6001 14.4001 21.6001C14.8416 21.6006 15.1995 21.9585 15.2 22.4001ZM20 27.2C20 27.6419 19.6418 28 19.2001 28C18.7583 28 18.4001 27.6419 18.4001 27.2C18.4001 26.7582 18.7582 26.4001 19.2001 26.4001C19.6416 26.4006 19.9995 26.7585 20 27.2ZM16 37.6C16 38.0418 15.6419 38.4 15.2 38.4C14.7582 38.4 14.4001 38.0418 14.4001 37.6C14.4001 37.1581 14.7582 36.8 15.2 36.8C15.6416 36.8006 15.9994 37.1584 16 37.6ZM46.1679 27.2H41.9519C41.5763 27.2 41.2512 27.4613 41.1707 27.8282C40.7355 29.8193 39.9486 31.7169 38.8468 33.4317C38.6434 33.7482 38.6881 34.1637 38.9543 34.4298L41.9371 37.4126C40.6579 39.1336 39.1335 40.658 37.4125 41.9372L34.4296 38.9544C34.1635 38.6886 33.7482 38.6439 33.4316 38.847C31.7168 39.9486 29.8192 40.7355 27.828 41.1708C27.4611 41.2514 27.1997 41.5765 27.1998 41.952V46.1681C25.2388 46.4484 23.2491 46.4661 21.2834 46.2208C23.4946 44.564 24.7973 41.9632 24.7998 39.2002V35.1597C30.6583 34.7464 35.1999 29.8733 35.1999 24.0003C35.1999 18.1272 30.6583 13.2541 24.7998 12.8409V7.60005C24.7995 5.30927 23.7642 3.1414 21.9827 1.70131C23.7209 1.54025 25.4719 1.58422 27.1998 1.83209V6.04812C27.1997 6.42377 27.4611 6.7488 27.8279 6.82933C29.8191 7.26452 31.7167 8.05146 33.4315 9.1532C33.7479 9.35702 34.1637 9.3123 34.4295 9.04577L37.4124 6.06293C39.1333 7.34214 40.6578 8.86652 41.937 10.5876L38.9542 13.5704C38.6881 13.8364 38.6434 14.2519 38.8467 14.5685C39.9484 16.2833 40.7353 18.1808 41.1706 20.172C41.2511 20.5389 41.5763 20.8003 41.9518 20.8002H46.1679C46.4772 22.9221 46.4772 25.0779 46.1679 27.2ZM29.6 24.0001C29.5952 21.2194 27.5519 18.8628 24.8 18.464V14.4406C29.7734 14.8528 33.5999 19.0096 33.5999 24.0001C33.5999 28.9906 29.7734 33.1473 24.8 33.5596V29.5362C27.5519 29.1373 29.5951 26.7808 29.6 24.0001ZM24.8 27.9192V20.081C26.6624 20.4611 28 22.0993 28 24.0001C28 25.9008 26.6624 27.539 24.8 27.9192Z" fill="#50CBFF"/>
</g>
<defs>
<clipPath id="clip0">
<rect width="48" height="48" fill="white"/>
</clipPath>
</defs>
</svg>
