<svg width="14" height="14" viewBox="0 0 14 14" fill="none" xmlns="http://www.w3.org/2000/svg">
<path d="M0.933027 0.933788C-0.28028 2.14809 -0.32566 4.11692 0.887357 5.33092L3.4084 7.85402C3.68081 8.12666 4.12248 8.12666 4.39489 7.85402C4.6673 7.58139 4.6673 7.13936 4.39489 6.86672L1.87385 4.34363C1.23042 3.69967 1.22594 2.61523 1.91952 1.92109C2.6131 1.22694 3.69666 1.23143 4.34009 1.87538L7.2813 4.81899L7.28577 4.82343C7.92473 5.46792 7.92758 6.54893 7.23562 7.24146C6.9632 7.51409 6.9632 7.95612 7.23562 8.22876C7.50803 8.50139 7.9497 8.50139 8.22211 8.22876C9.43542 7.01446 9.4808 5.04563 8.26778 3.83162L8.26242 3.82632L5.32658 0.88808C4.11356 -0.325926 2.14633 -0.280509 0.933027 0.933788Z" fill="#637F99"/>
<path d="M13.067 13.0662C11.8537 14.2805 9.88644 14.3259 8.67342 13.1119L5.73221 10.1683C5.72478 10.1609 5.71755 10.1533 5.71052 10.1456C5.70239 10.1382 5.6944 10.1306 5.68655 10.1227C4.47353 8.90872 4.51891 6.93989 5.73222 5.72559C6.00463 5.45296 6.4463 5.45296 6.71872 5.72559C6.99113 5.99823 6.99113 6.44026 6.71872 6.71289C6.02513 7.40704 6.02962 8.49148 6.67305 9.13543C6.68048 9.14287 6.68771 9.15043 6.69473 9.15811C6.70286 9.16552 6.71085 9.17315 6.7187 9.18101L9.65991 12.1246C10.3033 12.7686 11.3869 12.7731 12.0805 12.0789C12.7741 11.3848 12.7696 10.3003 12.1261 9.65637L9.60511 7.13328C9.3327 6.86064 9.3327 6.41861 9.60511 6.14598C9.87752 5.87335 10.3192 5.87335 10.5916 6.14598L13.1126 8.66908C14.3257 9.88308 14.2803 11.8519 13.067 13.0662Z" fill="#637F99"/>
</svg>
