<svg width="21" height="12" viewBox="0 0 21 12" fill="none" xmlns="http://www.w3.org/2000/svg">
<path d="M17.2834 7.22272C17.972 7.84818 18.6282 8.50837 19.2494 9.20072C19.5185 9.5133 19.7532 9.85393 19.9494 10.2167C20.2204 10.7417 19.9754 11.3167 19.5044 11.3507H16.5844C16.2367 11.3769 15.8876 11.3222 15.5645 11.1908C15.2415 11.0595 14.9533 10.8551 14.7224 10.5937C14.3174 10.1807 13.9424 9.74172 13.5524 9.31572C13.3977 9.138 13.2209 8.98073 13.0264 8.84772C12.9526 8.78257 12.8642 8.73622 12.7686 8.7126C12.6731 8.68898 12.5732 8.6888 12.4776 8.71208C12.3819 8.73535 12.2933 8.78139 12.2193 8.84627C12.1453 8.91115 12.088 8.99295 12.0524 9.08472C11.8462 9.50998 11.7408 9.97709 11.7444 10.4497C11.7134 11.1387 11.5044 11.3197 10.8134 11.3497C9.36021 11.464 7.90527 11.1511 6.62742 10.4497C5.51345 9.77858 4.55356 8.88002 3.81042 7.81272C2.34187 5.7487 1.09845 3.53341 0.101424 1.20472C-0.132576 0.683721 0.0384241 0.404723 0.613424 0.394723C1.56742 0.375723 2.52142 0.377723 3.47742 0.394723C3.65576 0.396894 3.82879 0.455701 3.97152 0.562654C4.11424 0.669607 4.21927 0.81917 4.27142 0.989724C4.77758 2.26049 5.4289 3.4685 6.21242 4.58972C6.40672 4.89997 6.65496 5.17294 6.94542 5.39572C7.00221 5.45369 7.07373 5.49506 7.15229 5.51538C7.23085 5.53571 7.31346 5.53423 7.39124 5.51108C7.46901 5.48793 7.539 5.444 7.59366 5.38403C7.64831 5.32405 7.68557 5.25031 7.70142 5.17072C7.79615 4.92961 7.85283 4.67524 7.86942 4.41672C7.9579 3.53661 7.94212 2.64913 7.82242 1.77272C7.80407 1.5229 7.701 1.28682 7.53026 1.10352C7.35951 0.920233 7.13132 0.800709 6.88342 0.764718C6.60342 0.711718 6.64542 0.607725 6.78342 0.447725C6.88424 0.304053 7.01941 0.187885 7.1766 0.109811C7.3338 0.0317374 7.50803 -0.00576645 7.68342 0.00071837H10.9894C11.5094 0.100718 11.6254 0.337719 11.6964 0.860719V4.53272C11.6904 4.73272 11.7964 5.33272 12.1624 5.47172C12.4544 5.57172 12.6474 5.33372 12.8224 5.14772C13.583 4.29296 14.2103 3.32847 14.6834 2.28672C14.9074 1.83472 15.1004 1.36472 15.2834 0.895723C15.3285 0.736553 15.4279 0.59819 15.5644 0.504663C15.7008 0.411135 15.8657 0.368348 16.0304 0.383722H19.2124C19.3064 0.381498 19.4004 0.387183 19.4934 0.40072C20.0294 0.49172 20.1764 0.722721 20.0104 1.24672C19.7088 2.04099 19.2817 2.78174 18.7454 3.44072C18.2144 4.17472 17.6454 4.88372 17.1214 5.62272C16.6384 6.29772 16.6764 6.63672 17.2764 7.22272H17.2834Z" fill="#637F99"/>
</svg>
