<svg width="24" height="32" viewBox="0 0 24 32" fill="none" xmlns="http://www.w3.org/2000/svg">
<path d="M14 8.5V0H1.5C0.66875 0 0 0.66875 0 1.5V30.5C0 31.3312 0.66875 32 1.5 32H22.5C23.3312 32 24 31.3312 24 30.5V10H15.5C14.675 10 14 9.325 14 8.5ZM17.7563 15.1562L14 21L17.7563 26.8438C18.075 27.3438 17.7188 28 17.125 28H14.9438C14.6688 28 14.4125 27.85 14.2812 27.6063C13.0562 25.3438 12 23.3125 12 23.3125C11.6 24.2375 11.375 24.5625 9.7125 27.6125C9.58125 27.8562 9.33125 28.0063 9.05625 28.0063H6.875C6.28125 28.0063 5.925 27.35 6.24375 26.85L10.0125 21.0063L6.24375 15.1625C5.91875 14.6625 6.28125 14.0063 6.875 14.0063H9.05C9.325 14.0063 9.58125 14.1562 9.7125 14.4C11.3438 17.45 10.9625 16.5 12 18.6812C12 18.6812 12.3813 17.95 14.2875 14.4C14.4188 14.1562 14.675 14.0063 14.95 14.0063H17.125C17.7188 14 18.075 14.6562 17.7563 15.1562ZM24 7.61875V8H16V0H16.3813C16.7812 0 17.1625 0.15625 17.4438 0.4375L23.5625 6.5625C23.8438 6.84375 24 7.225 24 7.61875Z" fill="#1D86E0"/>
</svg>
