<svg xmlns="http://www.w3.org/2000/svg" width="28.572" height="28.572" viewBox="0 0 28.572 28.572">
  <g id="ok-znak-PANTONE_преобразованный_" data-name="ok-znak-PANTONE [преобразованный]" transform="translate(-0.002 -0.001)">
    <path id="Subtraction_12" data-name="Subtraction 12" d="M21749.537,381.573H21724.3a1.671,1.671,0,0,1-1.666-1.67V354.666A1.668,1.668,0,0,1,21724.3,353h25.234a1.67,1.67,0,0,1,1.672,1.665V379.9h-.006A1.671,1.671,0,0,1,21749.537,381.573Zm-12.619-7.888h0l2.7,2.7a1.44,1.44,0,0,0,2.037-2.036l-2.746-2.751a9.153,9.153,0,0,0,2.855-1.179,1.441,1.441,0,0,0-1.535-2.44,6.244,6.244,0,0,1-6.621,0,1.44,1.44,0,1,0-1.529,2.44,9.07,9.07,0,0,0,2.85,1.179l-2.75,2.751a1.439,1.439,0,0,0,0,2.036,1.466,1.466,0,0,0,1.02.42,1.423,1.423,0,0,0,1.016-.42l2.7-2.7Zm0-15.923a4.916,4.916,0,1,0,4.918,4.918A4.921,4.921,0,0,0,21736.918,357.761Zm0,6.949a2.034,2.034,0,0,1-2.031-2.031,2,2,0,0,1,.59-1.436,2.018,2.018,0,0,1,1.441-.6,2.033,2.033,0,1,1,0,4.067Z" transform="translate(-21722.635 -353)" fill="#fff"/>
  </g>
</svg>
