<svg width="39" height="35" viewBox="0 0 39 35" fill="none" xmlns="http://www.w3.org/2000/svg">
<path d="M35.7581 20.598L38.9589 6.37923C39.19 5.35261 38.4171 4.375 37.3743 4.375H10.7797L10.1591 1.31182C10.0044 0.548311 9.33901 0 8.56707 0H1.625C0.727526 0 0 0.734521 0 1.64062V2.73438C0 3.64048 0.727526 4.375 1.625 4.375H6.35666L11.113 27.852C9.97513 28.5127 9.20833 29.7515 9.20833 31.1719C9.20833 33.2861 10.9059 35 13 35C15.0941 35 16.7917 33.2861 16.7917 31.1719C16.7917 30.1004 16.3552 29.1324 15.6525 28.4375H29.8474C29.1448 29.1324 28.7083 30.1004 28.7083 31.1719C28.7083 33.2861 30.4059 35 32.5 35C34.5941 35 36.2917 33.2861 36.2917 31.1719C36.2917 29.6562 35.419 28.3464 34.1535 27.7262L34.5271 26.0667C34.7581 25.0401 33.9852 24.0625 32.9425 24.0625H14.7683L14.3252 21.875H34.1735C34.9323 21.875 35.59 21.3449 35.7581 20.598Z" fill="#1D86E0"/>
</svg>
