<svg width="40" height="34" viewBox="0 0 40 34" fill="none" xmlns="http://www.w3.org/2000/svg">
<path d="M34 12.75H33L26.2013 3.72008C25.8264 3.22242 25.351 2.82068 24.8103 2.54458C24.2696 2.26847 23.6774 2.12508 23.0775 2.125H9.70813C8.0725 2.125 6.60188 3.18285 5.99438 4.79652L3 12.9001C1.2775 13.3742 0 15.0218 0 17V24.4375C0 25.0245 0.4475 25.5 1 25.5H4C4 29.0209 6.68625 31.875 10 31.875C13.3138 31.875 16 29.0209 16 25.5H24C24 29.0209 26.6863 31.875 30 31.875C33.3138 31.875 36 29.0209 36 25.5H39C39.5525 25.5 40 25.0245 40 24.4375V19.125C40 15.6041 37.3138 12.75 34 12.75ZM10 28.6875C8.34562 28.6875 7 27.2578 7 25.5C7 23.7422 8.34562 22.3125 10 22.3125C11.6544 22.3125 13 23.7422 13 25.5C13 27.2578 11.6544 28.6875 10 28.6875ZM14.5 12.75H7.30813L9.70813 6.375H14.5V12.75ZM17.5 12.75V6.375H23.0775L27.8775 12.75H17.5ZM30 28.6875C28.3456 28.6875 27 27.2578 27 25.5C27 23.7422 28.3456 22.3125 30 22.3125C31.6544 22.3125 33 23.7422 33 25.5C33 27.2578 31.6544 28.6875 30 28.6875Z" fill="#1D86E0"/>
</svg>
