<?xml version="1.0" standalone="no"?>
<!DOCTYPE svg PUBLIC "-//W3C//DTD SVG 20010904//EN"
 "http://www.w3.org/TR/2001/REC-SVG-20010904/DTD/svg10.dtd">
<svg version="1.0" xmlns="http://www.w3.org/2000/svg"
 width="79.000000pt" height="79.000000pt" viewBox="0 0 79.000000 79.000000"
 preserveAspectRatio="xMidYMid meet">
<metadata>
Created by potrace 1.11, written by Peter Selinger 2001-2013
</metadata>
<g transform="translate(0.000000,79.000000) scale(0.100000,-0.100000)"
fill="#000000" stroke="none">
<path d="M369 766 c-143 -50 -289 -182 -340 -306 -8 -20 -14 -68 -14 -110 0
-267 296 -431 549 -303 69 35 147 113 182 180 83 164 1 458 -150 535 -60 31
-146 32 -227 4z m112 -38 c58 -20 89 -50 122 -118 29 -59 32 -74 32 -160 0
-107 -12 -139 -74 -198 -181 -173 -474 -70 -476 168 0 53 5 73 27 111 55 93
156 172 252 195 66 16 76 16 117 2z"/>
</g>
</svg>
