<svg width="24" height="32" viewBox="0 0 24 32" fill="none" xmlns="http://www.w3.org/2000/svg">
<path d="M11.1991 16.0063C10.8912 15.0063 10.8974 13.075 11.0759 13.075C11.5931 13.075 11.5438 15.3813 11.1991 16.0063ZM11.0944 18.9562C10.6203 20.2188 10.0293 21.6625 9.3459 22.875C10.4726 22.4375 11.747 21.8 13.2185 21.5063C12.4366 20.9062 11.6854 20.0437 11.0944 18.9562ZM5.30093 26.7563C5.30093 26.8062 6.11362 26.4187 7.44963 24.2437C7.03713 24.6375 5.65802 25.775 5.30093 26.7563ZM15.2687 10H23.6418V30.5C23.6418 31.3312 22.983 32 22.1642 32H1.47761C0.658769 32 0 31.3312 0 30.5V1.5C0 0.66875 0.658769 0 1.47761 0H13.791V8.5C13.791 9.325 14.456 10 15.2687 10ZM14.7761 20.7375C13.5448 19.975 12.7259 18.925 12.1472 17.375C12.4243 16.2188 12.8614 14.4625 12.5289 13.3625C12.2396 11.525 9.91847 11.7063 9.58601 12.9375C9.27817 14.0813 9.56138 15.6938 10.0847 17.75C9.37052 19.475 8.31772 21.7875 7.57276 23.1125C7.5666 23.1125 7.56661 23.1187 7.56045 23.1187C5.89198 23.9875 3.0291 25.9 4.20504 27.3687C4.54981 27.8 5.19011 27.9937 5.52873 27.9937C6.63078 27.9937 7.72668 26.8687 9.29049 24.1313C10.8789 23.6 12.6213 22.9375 14.1543 22.6812C15.4903 23.4187 17.0541 23.9 18.0946 23.9C19.8924 23.9 20.0155 21.9 19.3075 21.1875C18.4517 20.3375 15.9644 20.5812 14.7761 20.7375ZM23.2108 6.5625L17.1772 0.4375C16.9002 0.15625 16.5246 0 16.1306 0H15.7612V8H23.6418V7.61875C23.6418 7.225 23.4879 6.84375 23.2108 6.5625ZM18.6487 22.5187C18.9011 22.35 18.4948 21.775 16.0136 21.9562C18.2978 22.9437 18.6487 22.5187 18.6487 22.5187Z" fill="#1D86E0"/>
</svg>
