<svg width="37" height="34" viewBox="0 0 37 34" fill="none" xmlns="http://www.w3.org/2000/svg">
<g clip-path="url(#clip0)">
<path d="M18.4997 7.63628L4.46215 20.4334C4.35808 20.5304 4.22512 20.5755 4.11077 20.6559V32.9371C4.11077 33.2189 4.21906 33.4891 4.4118 33.6884C4.60455 33.8876 4.86597 33.9996 5.13855 33.9996H31.8608C32.1334 33.9996 32.3948 33.8876 32.5875 33.6884C32.7803 33.4891 32.8886 33.2189 32.8886 32.9371V20.6585C32.7794 20.5815 32.6496 20.5377 32.5507 20.446L18.4997 7.63628ZM24.6663 24.9683C24.6663 25.1092 24.6122 25.2443 24.5158 25.344C24.4195 25.4436 24.2887 25.4996 24.1524 25.4996H20.5552V29.2183C20.5552 29.3592 20.5011 29.4943 20.4047 29.594C20.3083 29.6936 20.1776 29.7496 20.0413 29.7496H16.958C16.8217 29.7496 16.691 29.6936 16.5946 29.594C16.4983 29.4943 16.4441 29.3592 16.4441 29.2183V25.4996H12.8469C12.7106 25.4996 12.5799 25.4436 12.4835 25.344C12.3871 25.2443 12.333 25.1092 12.333 24.9683V21.7808C12.333 21.6399 12.3871 21.5048 12.4835 21.4052C12.5799 21.3055 12.7106 21.2496 12.8469 21.2496H16.4441V17.5308C16.4441 17.3899 16.4983 17.2548 16.5946 17.1552C16.691 17.0555 16.8217 16.9996 16.958 16.9996H20.0413C20.1776 16.9996 20.3083 17.0555 20.4047 17.1552C20.5011 17.2548 20.5552 17.3899 20.5552 17.5308V21.2496H24.1524C24.2887 21.2496 24.4195 21.3055 24.5158 21.4052C24.6122 21.5048 24.6663 21.6399 24.6663 21.7808V24.9683ZM36.6586 15.69L20.218 0.682218C19.7474 0.242411 19.1356 -0.00109863 18.5013 -0.00109863C17.8669 -0.00109863 17.2551 0.242411 16.7846 0.682218L0.340114 15.69C0.239662 15.7833 0.157966 15.8961 0.0996928 16.022C0.0414197 16.1479 0.00771135 16.2844 0.000493402 16.4238C-0.00672454 16.5631 0.0126894 16.7026 0.0576261 16.8342C0.102563 16.9658 0.172142 17.087 0.262388 17.1908L1.63768 18.7726C1.72789 18.8765 1.837 18.9609 1.95878 19.0212C2.08056 19.0814 2.21264 19.1162 2.34745 19.1237C2.48226 19.1312 2.61718 19.1111 2.74449 19.0646C2.8718 19.0182 2.98901 18.9463 3.08942 18.853L17.8201 5.4203C18.0078 5.24906 18.2496 5.15456 18.5 5.15456C18.7504 5.15456 18.9922 5.24906 19.1799 5.4203L33.9106 18.8523C34.011 18.9456 34.1282 19.0175 34.2555 19.064C34.3828 19.1104 34.5177 19.1305 34.6525 19.123C34.7873 19.1156 34.9194 19.0807 35.0412 19.0205C35.163 18.9602 35.2721 18.8758 35.3623 18.7719L36.7369 17.1901C36.9189 16.9805 37.0129 16.7046 36.9982 16.4233C36.9835 16.142 36.8614 15.8782 36.6586 15.69Z" fill="#1D86E0"/>
</g>
<defs>
<clipPath id="clip0">
<rect width="37" height="34" fill="white"/>
</clipPath>
</defs>
</svg>
