<svg width="37" height="35" viewBox="0 0 37 35" fill="none" xmlns="http://www.w3.org/2000/svg">
<path d="M0 20.7012C0 20.0643 0.512766 19.5481 1.1453 19.5481H5.87918C6.51171 19.5481 7.02448 20.0643 7.02448 20.7012V33.8469C7.02448 34.4837 6.51171 35 5.87918 35H1.1453C0.512766 35 0 34.4837 0 33.8469V20.7012Z" fill="#1D86E0"/>
<path d="M20.4244 21.2393H9.16236V33.4625H21.9897V33.4454L35.6751 29.0168C36.6438 28.7032 37.1979 27.6794 36.9346 26.6896L36.8368 26.3217C36.5698 25.3186 35.5596 24.7105 34.5557 24.9484L21.9897 27.9275H14.4459V27.889C13.9562 27.758 13.5953 27.3086 13.5953 26.7743C13.5953 26.2401 13.9562 25.7906 14.4459 25.6597V25.6212H20.4244C21.6261 25.6212 22.6005 24.6403 22.6005 23.4303C22.6005 22.2202 21.6261 21.2393 20.4244 21.2393Z" fill="#1D86E0"/>
<path d="M30.923 15.4737H11.5293V19.5481H22.126L22.1263 19.5489C23.6079 20.1757 24.6482 21.6505 24.6482 23.37V23.4728C24.6482 23.889 24.5873 24.2909 24.4738 24.6699L30.9231 23.1861V19.4649H30.923V15.4737Z" fill="#1D86E0"/>
<path d="M20.3979 0.35667C20.8491 -0.11889 21.6032 -0.11889 22.0544 0.35667L32.6675 11.5445C33.3636 12.2783 32.8471 13.4941 31.8393 13.4941H10.6129C9.60522 13.4941 9.0887 12.2783 9.78473 11.5445L20.3979 0.35667Z" fill="#1D86E0"/>
<path d="M29.7169 3.15589C30.3264 3.1418 30.8241 3.64294 30.8101 4.25656L30.7608 6.4203L27.5679 3.20556L29.7169 3.15589Z" fill="#1D86E0"/>
</svg>
