<svg width="26" height="35" viewBox="0 0 26 35" fill="none" xmlns="http://www.w3.org/2000/svg">
<path d="M12.9937 1.03916C13.0437 1.36045 14 7.4991 14 9.84382C14 13.419 12.2625 15.9688 9.69375 16.9942L10.5 33.2705C10.5437 34.207 9.8625 35 9 35H5C4.14375 35 3.45625 34.2139 3.5 33.2705L4.30625 16.9942C1.73125 15.9688 0 13.4122 0 9.84382C0 7.49227 0.95625 1.36045 1.00625 1.03916C1.20625 -0.348534 3.8375 -0.369042 4 1.11435V10.7667C4.08125 10.9991 4.94375 10.9854 5 10.7667C5.0875 9.03718 5.49375 1.25107 5.5 1.07334C5.70625 -0.348534 8.29375 -0.348534 8.49375 1.07334C8.50625 1.25791 8.90625 9.03718 8.99375 10.7667C9.05 10.9854 9.91875 10.9991 9.99375 10.7667V1.11435C10.1562 -0.362206 12.7937 -0.348534 12.9937 1.03916ZM20.4438 20.5694L19.5063 33.2227C19.4312 34.1797 20.125 35 21 35H24.5C25.3312 35 26 34.2686 26 33.3594V1.64072C26 0.738377 25.3312 9.76708e-05 24.5 9.76708e-05C19.3438 9.76708e-05 10.6625 12.2022 20.4438 20.5694Z" fill="#1D86E0"/>
</svg>
