<svg width="35" height="35" viewBox="0 0 35 35" fill="none" xmlns="http://www.w3.org/2000/svg">
<path d="M13.3984 6.2207C13.9652 6.2207 14.4238 5.76208 14.4238 5.19531C14.4238 4.62854 13.9652 4.16992 13.3984 4.16992H9.53921L13.8571 2.011C14.2816 1.79874 14.5059 1.25269 14.3958 0.790098C14.2877 0.327441 13.8731 0 13.3984 0H5.19531C2.36749 0 0 2.36845 0 5.19531V29.8047C0 32.6316 2.36749 35 5.19531 35H13.3984C13.8731 35 14.2877 34.6726 14.3958 34.2099C14.5059 33.7472 14.2816 33.2696 13.8571 33.0574L9.53921 30.8301H13.3984C13.9652 30.8301 14.4238 30.3715 14.4238 29.8047C14.4238 29.2379 13.9652 28.7793 13.3984 28.7793H6.2207V26.7285H13.3984C13.9652 26.7285 14.4238 26.2699 14.4238 25.7031C14.4238 25.1364 13.9652 24.6777 13.3984 24.6777H6.2207V22.627H13.3984C13.9652 22.627 14.4238 22.1683 14.4238 21.6016C14.4238 21.0348 13.9652 20.5762 13.3984 20.5762H6.2207V18.5254H13.3984C13.9652 18.5254 14.4238 18.0668 14.4238 17.5C14.4238 16.9332 13.9652 16.4746 13.3984 16.4746H6.2207V14.4238H13.3984C13.9652 14.4238 14.4238 13.9652 14.4238 13.3984C14.4238 12.8317 13.9652 12.373 13.3984 12.373H6.2207V10.3223H13.3984C13.9652 10.3223 14.4238 9.86364 14.4238 9.29688C14.4238 8.73011 13.9652 8.27148 13.3984 8.27148H6.2207V6.2207H13.3984Z" fill="#1D86E0"/>
<path d="M29.4833 23.9207C28.3193 24.4025 27.0736 24.6777 25.7718 24.6777C24.47 24.6777 23.2243 24.4025 22.0603 23.9207L21.2357 29.7005C21.0474 31.0163 21.4399 32.4155 22.3111 33.4198C23.1803 34.4242 24.442 35 25.7718 35C27.1016 35 28.3633 34.4242 29.2325 33.4198C30.1037 32.4155 30.4962 31.0163 30.3079 29.7005L29.4833 23.9207Z" fill="#1D86E0"/>
<path d="M25.7715 0C20.6826 0 16.543 5.12825 16.543 11.3477C16.543 17.5671 20.6826 22.627 25.7715 22.627C30.8604 22.627 35 17.5671 35 11.3477C35 5.12825 30.8604 0 25.7715 0Z" fill="#1D86E0"/>
</svg>
