<svg width="42" height="31" viewBox="0 0 42 31" fill="none" xmlns="http://www.w3.org/2000/svg">
<path d="M6.825 4.5625H3.675C2.80219 4.5625 2.1 5.29395 2.1 6.20312V13.3125H0.525C0.23625 13.3125 0 13.5586 0 13.8594V17.1406C0 17.4414 0.23625 17.6875 0.525 17.6875H2.1V24.7969C2.1 25.7061 2.80219 26.4375 3.675 26.4375H6.825C7.69781 26.4375 8.4 25.7061 8.4 24.7969V6.20312C8.4 5.29395 7.69781 4.5625 6.825 4.5625ZM41.475 13.3125H39.9V6.20312C39.9 5.29395 39.1978 4.5625 38.325 4.5625H35.175C34.3022 4.5625 33.6 5.29395 33.6 6.20312V24.7969C33.6 25.7061 34.3022 26.4375 35.175 26.4375H38.325C39.1978 26.4375 39.9 25.7061 39.9 24.7969V17.6875H41.475C41.7637 17.6875 42 17.4414 42 17.1406V13.8594C42 13.5586 41.7637 13.3125 41.475 13.3125ZM29.925 0.1875H26.775C25.9022 0.1875 25.2 0.918945 25.2 1.82812V13.3125H16.8V1.82812C16.8 0.918945 16.0978 0.1875 15.225 0.1875H12.075C11.2022 0.1875 10.5 0.918945 10.5 1.82812V29.1719C10.5 30.0811 11.2022 30.8125 12.075 30.8125H15.225C16.0978 30.8125 16.8 30.0811 16.8 29.1719V17.6875H25.2V29.1719C25.2 30.0811 25.9022 30.8125 26.775 30.8125H29.925C30.7978 30.8125 31.5 30.0811 31.5 29.1719V1.82812C31.5 0.918945 30.7978 0.1875 29.925 0.1875Z" fill="#1D86E0"/>
</svg>
