<svg width="33" height="35" viewBox="0 0 33 35" fill="none" xmlns="http://www.w3.org/2000/svg">
<g clip-path="url(#clip0)">
<path d="M26.8766 21.4992C31.0654 21.4992 33.9696 17.1682 32.6988 13.0197C31.2778 8.38229 25.6837 7.00936 22.4895 10.5274L20.622 12.5837L21.8892 10.0635C24.057 5.75374 21.0969 0.535522 16.4995 0.535522C11.8955 0.535522 8.94654 5.76016 11.1096 10.0634L12.3761 12.5816L10.5105 10.5273C7.31626 7.00936 1.72218 8.38229 0.301182 13.0197C-0.969576 17.1682 1.93462 21.4992 6.12343 21.4992C6.47476 21.4992 6.8279 21.4668 7.17904 21.4007L9.83586 20.9003L7.40894 22.1516C3.26731 24.2871 2.77006 30.3537 6.48933 33.2193C10.2681 36.1308 15.5052 33.6335 16.1303 28.8715L16.5 26.0554L16.8697 28.8715C17.4948 33.6335 22.7319 36.1308 26.5107 33.2193C30.23 30.3537 29.7327 24.2871 25.591 22.1516L23.1641 20.9003L25.8209 21.4007C26.1721 21.4668 26.5252 21.4992 26.8766 21.4992ZM16.4997 23.4901C13.959 23.4901 11.8919 21.2977 11.8919 18.603C11.8919 15.9079 13.959 13.7153 16.4997 13.7153C19.0408 13.7153 21.1081 15.9079 21.1081 18.603C21.1081 21.2978 19.0408 23.4901 16.4997 23.4901Z" fill="#1D86E0"/>
<path d="M16.5002 15.7665C15.0257 15.7665 13.8262 17.0389 13.8262 18.6029C13.8262 20.1667 15.0258 21.439 16.5002 21.439C17.9748 21.439 19.1746 20.1667 19.1746 18.6029C19.1746 17.0389 17.9748 15.7665 16.5002 15.7665Z" fill="#1D86E0"/>
</g>
<defs>
<clipPath id="clip0">
<rect width="33" height="35" fill="white"/>
</clipPath>
</defs>
</svg>
