<svg width="35" height="35" viewBox="0 0 35 35" fill="none" xmlns="http://www.w3.org/2000/svg">
<g clip-path="url(#clip0)">
<path d="M34.9924 11.9629C34.3703 6.79492 29.633 2.91211 24.1711 1.11426C26.6593 3.80762 28.4367 7.99121 28.4367 13.125H30.3576L22.3869 21.9775C22.216 21.9365 22.0588 21.875 21.8742 21.875H18.5929V13.125H26.2492C26.2492 5.25 21.5392 0 17.4992 0C13.4592 0 8.7492 5.25 8.7492 13.125H16.4054V21.875H13.1242C12.9396 21.875 12.7824 21.9365 12.6115 21.9775L4.64081 13.125H6.5617C6.5617 7.99121 8.33905 3.80762 10.8273 1.11426C5.36541 2.91895 0.628111 6.80176 0.00604144 11.9629C-0.0691538 12.585 0.470885 13.125 1.09979 13.125H1.69452L11.0392 23.5088C10.9914 23.6865 10.9299 23.8643 10.9299 24.0625V32.8125C10.9299 34.0225 11.9074 35 13.1174 35H21.8674C23.0773 35 24.0549 34.0225 24.0549 32.8125V24.0625C24.0549 23.8643 23.9933 23.6934 23.9455 23.5088L33.297 13.125H33.8918C34.5275 13.125 35.0675 12.5918 34.9924 11.9629Z" fill="#1D86E0"/>
</g>
<defs>
<clipPath id="clip0">
<rect width="35" height="35" fill="white"/>
</clipPath>
</defs>
</svg>
