<svg xmlns="http://www.w3.org/2000/svg" width="22.126" height="23.602" viewBox="0 0 22.126 23.602">
  <g id="Group_1182" data-name="Group 1182" transform="translate(-489 -3199.264)">
    <g id="Group_471" data-name="Group 471" transform="translate(490.488 3199.264)">
      <g id="Group_470" data-name="Group 470" transform="translate(0 0)">
        <path id="Path_179" data-name="Path 179" d="M51.227.378A3,3,0,0,0,48.3.385L59.055,10.3l3.612-3.612Z" transform="translate(-48.302 0)" fill="#fff"/>
      </g>
    </g>
    <g id="Group_473" data-name="Group 473" transform="translate(489 3200.664)">
      <g id="Group_472" data-name="Group 472">
        <path id="Path_180" data-name="Path 180" d="M16.427,30.365a2.751,2.751,0,0,0-.413,1.441V49.722a2.76,2.76,0,0,0,.385,1.406L27.212,40.314Z" transform="translate(-16.014 -30.365)" fill="#fff"/>
      </g>
    </g>
    <g id="Group_475" data-name="Group 475" transform="translate(502.325 3206.698)">
      <g id="Group_474" data-name="Group 474" transform="translate(0)">
        <path id="Path_181" data-name="Path 181" d="M312.42,163.178l-3.446-1.9-3.872,3.87,4.745,4.376,2.574-1.42a2.787,2.787,0,0,0,0-4.925Z" transform="translate(-305.102 -161.277)" fill="#fff"/>
      </g>
    </g>
    <g id="Group_477" data-name="Group 477" transform="translate(490.44 3211.613)">
      <g id="Group_476" data-name="Group 476" transform="translate(0)">
        <path id="Path_182" data-name="Path 182" d="M58.089,267.9,47.246,278.744a2.99,2.99,0,0,0,2.974.028l12.3-6.787Z" transform="translate(-47.246 -267.901)" fill="#fff"/>
      </g>
    </g>
  </g>
</svg>
