<svg id="calendar" xmlns="http://www.w3.org/2000/svg" width="17.607" height="17.607" viewBox="0 0 17.607 17.607">
  <g id="Group_769" data-name="Group 769">
    <g id="Group_768" data-name="Group 768">
      <path id="Path_263" data-name="Path 263" d="M15.544,1.376h-.825V0H13.343V1.376H4.264V0H2.889V1.376H2.063A2.066,2.066,0,0,0,0,3.439V15.544a2.066,2.066,0,0,0,2.063,2.063H15.544a2.066,2.066,0,0,0,2.063-2.063V3.439A2.066,2.066,0,0,0,15.544,1.376Zm.688,14.168a.689.689,0,0,1-.688.688H2.063a.689.689,0,0,1-.688-.688V6.465H16.232Zm0-10.454H1.376V3.439a.689.689,0,0,1,.688-.688h.825V4.127H4.264V2.751h9.079V4.127h1.376V2.751h.825a.689.689,0,0,1,.688.688Z" fill="#fff"/>
    </g>
  </g>
  <g id="Group_771" data-name="Group 771" transform="translate(2.614 7.91)">
    <g id="Group_770" data-name="Group 770">
      <rect id="Rectangle_175" data-name="Rectangle 175" width="1.376" height="1.376" fill="#fff"/>
    </g>
  </g>
  <g id="Group_773" data-name="Group 773" transform="translate(5.365 7.91)">
    <g id="Group_772" data-name="Group 772">
      <rect id="Rectangle_176" data-name="Rectangle 176" width="1.376" height="1.376" fill="#fff"/>
    </g>
  </g>
  <g id="Group_775" data-name="Group 775" transform="translate(8.116 7.91)">
    <g id="Group_774" data-name="Group 774">
      <rect id="Rectangle_177" data-name="Rectangle 177" width="1.376" height="1.376" fill="#fff"/>
    </g>
  </g>
  <g id="Group_777" data-name="Group 777" transform="translate(10.867 7.91)">
    <g id="Group_776" data-name="Group 776">
      <rect id="Rectangle_178" data-name="Rectangle 178" width="1.376" height="1.376" fill="#fff"/>
    </g>
  </g>
  <g id="Group_779" data-name="Group 779" transform="translate(13.618 7.91)">
    <g id="Group_778" data-name="Group 778">
      <rect id="Rectangle_179" data-name="Rectangle 179" width="1.376" height="1.376" fill="#fff"/>
    </g>
  </g>
  <g id="Group_781" data-name="Group 781" transform="translate(2.614 10.661)">
    <g id="Group_780" data-name="Group 780">
      <rect id="Rectangle_180" data-name="Rectangle 180" width="1.376" height="1.376" fill="#fff"/>
    </g>
  </g>
  <g id="Group_783" data-name="Group 783" transform="translate(5.365 10.661)">
    <g id="Group_782" data-name="Group 782">
      <rect id="Rectangle_181" data-name="Rectangle 181" width="1.376" height="1.376" fill="#fff"/>
    </g>
  </g>
  <g id="Group_785" data-name="Group 785" transform="translate(8.116 10.661)">
    <g id="Group_784" data-name="Group 784">
      <rect id="Rectangle_182" data-name="Rectangle 182" width="1.376" height="1.376" fill="#fff"/>
    </g>
  </g>
  <g id="Group_787" data-name="Group 787" transform="translate(10.867 10.661)">
    <g id="Group_786" data-name="Group 786">
      <rect id="Rectangle_183" data-name="Rectangle 183" width="1.376" height="1.376" fill="#fff"/>
    </g>
  </g>
  <g id="Group_789" data-name="Group 789" transform="translate(2.614 13.412)">
    <g id="Group_788" data-name="Group 788">
      <rect id="Rectangle_184" data-name="Rectangle 184" width="1.376" height="1.376" fill="#fff"/>
    </g>
  </g>
  <g id="Group_791" data-name="Group 791" transform="translate(5.365 13.412)">
    <g id="Group_790" data-name="Group 790">
      <rect id="Rectangle_185" data-name="Rectangle 185" width="1.376" height="1.376" fill="#fff"/>
    </g>
  </g>
  <g id="Group_793" data-name="Group 793" transform="translate(8.116 13.412)">
    <g id="Group_792" data-name="Group 792">
      <rect id="Rectangle_186" data-name="Rectangle 186" width="1.376" height="1.376" fill="#fff"/>
    </g>
  </g>
  <g id="Group_795" data-name="Group 795" transform="translate(10.867 13.412)">
    <g id="Group_794" data-name="Group 794">
      <rect id="Rectangle_187" data-name="Rectangle 187" width="1.376" height="1.376" fill="#fff"/>
    </g>
  </g>
  <g id="Group_797" data-name="Group 797" transform="translate(13.618 10.661)">
    <g id="Group_796" data-name="Group 796">
      <rect id="Rectangle_188" data-name="Rectangle 188" width="1.376" height="1.376" fill="#fff"/>
    </g>
  </g>
</svg>
