<svg xmlns="http://www.w3.org/2000/svg" width="17.487" height="10.424" viewBox="0 0 17.487 10.424">
  <g id="eye" transform="translate(0 -98.725)">
    <path id="Path_190" data-name="Path 190" d="M8.744,98.725c-3.341,0-6.371,1.828-8.607,4.8a.692.692,0,0,0,0,.826c2.236,2.973,5.266,4.8,8.607,4.8s6.371-1.828,8.607-4.8a.692.692,0,0,0,0-.826C15.115,100.553,12.085,98.725,8.744,98.725Zm.24,8.882a3.678,3.678,0,1,1,3.431-3.431A3.68,3.68,0,0,1,8.983,107.607Zm-.111-1.7a1.98,1.98,0,1,1,1.849-1.849A1.977,1.977,0,0,1,8.872,105.912Z" transform="translate(0 0)" fill="#fff"/>
  </g>
</svg>
