<svg xmlns="http://www.w3.org/2000/svg" width="12.325" height="7.347" viewBox="0 0 12.325 7.347">
  <g id="eye" transform="translate(0 -98.725)">
    <path id="Path_190" data-name="Path 190" d="M6.162,98.725A7.689,7.689,0,0,0,.1,102.106a.488.488,0,0,0,0,.582,7.685,7.685,0,0,0,6.066,3.383,7.689,7.689,0,0,0,6.066-3.381.488.488,0,0,0,0-.582A7.685,7.685,0,0,0,6.162,98.725Zm.169,6.26a2.592,2.592,0,1,1,2.418-2.418A2.594,2.594,0,0,1,6.331,104.985Zm-.078-1.2a1.4,1.4,0,1,1,1.3-1.3A1.394,1.394,0,0,1,6.253,103.79Z" transform="translate(0 0)" fill="#5e7b96"/>
  </g>
</svg>
