<svg xmlns="http://www.w3.org/2000/svg" width="13.094" height="13.627" viewBox="0 0 13.094 13.627">
  <path id="Subtraction_6" data-name="Subtraction 6" d="M10409.083,2156.628h-11.072a1.008,1.008,0,0,1-1.011-1v-7.294h13.094v7.294A1.008,1.008,0,0,1,10409.083,2156.628Zm-4.183-5.8a.781.781,0,0,1,.5.136.461.461,0,0,1,.173.387.774.774,0,0,1-.092.35,1.719,1.719,0,0,1-.347.423l-1.62,1.531v.63h3.174v-.792h-1.808l.967-.912a2.513,2.513,0,0,0,.559-.685,1.5,1.5,0,0,0,.145-.643,1.118,1.118,0,0,0-.2-.656,1.245,1.245,0,0,0-.546-.434,2.03,2.03,0,0,0-.818-.152,2.265,2.265,0,0,0-.99.206,1.684,1.684,0,0,0-.679.572l.708.457a.955.955,0,0,1,.373-.316A1.171,1.171,0,0,1,10404.9,2150.83Zm-3.652.036v3.42h.972v-4.2h-1.813v.781Zm8.846-3.156H10397v-2.134a1.008,1.008,0,0,1,1.011-1h.551a1.229,1.229,0,0,0,2.446,0h5.078a1.231,1.231,0,0,0,2.448,0h.549a1.008,1.008,0,0,1,1.011,1v2.133Zm-2.777-2.542a.7.7,0,0,1-.694-.692v-.789a.693.693,0,0,1,1.387.01v.779A.693.693,0,0,1,10407.316,2145.169Zm-7.54,0a.693.693,0,0,1-.691-.692v-.789a.692.692,0,1,1,1.384.01v.779A.693.693,0,0,1,10399.776,2145.169Z" transform="translate(-10397 -2143)" fill="#52afff"/>
</svg>
