<svg xmlns="http://www.w3.org/2000/svg" width="14.167" height="13.511" viewBox="0 0 14.167 13.511">
  <g id="star" transform="translate(0 -10.99)">
    <path id="Path_189" data-name="Path 189" d="M14.167,16.226q0-.315-.477-.392l-4.274-.621L7.5,11.339q-.162-.349-.417-.349t-.417.349L4.751,15.213l-4.274.621Q0,15.911,0,16.226a.649.649,0,0,0,.213.409l3.1,3.014L2.58,23.905a1.383,1.383,0,0,0-.017.17.5.5,0,0,0,.089.3.309.309,0,0,0,.268.124.722.722,0,0,0,.341-.1L7.083,22.39,10.906,24.4a.689.689,0,0,0,.34.1.3.3,0,0,0,.26-.124.5.5,0,0,0,.089-.3,1.286,1.286,0,0,0-.009-.17l-.732-4.257,3.09-3.014A.615.615,0,0,0,14.167,16.226Z" transform="translate(0 0)" fill="#52afff"/>
  </g>
</svg>
