<svg xmlns="http://www.w3.org/2000/svg" width="18.566" height="22.773" viewBox="0 0 18.566 22.773">
  <g id="Group_1180" data-name="Group 1180" transform="translate(-227 -3200.264)">
    <path id="Path_177" data-name="Path 177" d="M15.769,0h.162A4.876,4.876,0,0,1,14.7,3.675a3.807,3.807,0,0,1-3.351,1.573A4.73,4.73,0,0,1,12.6,1.687,5.4,5.4,0,0,1,15.769,0Z" transform="translate(224.896 3200.264)" fill="#fff"/>
    <path id="Path_178" data-name="Path 178" d="M20.67,16.716v.045a13.25,13.25,0,0,1-1.9,3.655c-.723,1-1.609,2.334-3.191,2.334-1.367,0-2.275-.879-3.676-.9-1.482-.024-2.3.735-3.652.926H7.793A4.126,4.126,0,0,1,5.41,21.131,14.386,14.386,0,0,1,2.1,12.855V11.836A6.674,6.674,0,0,1,5.018,6.358a4.921,4.921,0,0,1,3.3-.765,8.312,8.312,0,0,1,1.619.464,4.47,4.47,0,0,0,1.618.485A3.884,3.884,0,0,0,12.694,6.2a6.984,6.984,0,0,1,3.652-.648,5.067,5.067,0,0,1,3.723,2.22,4.778,4.778,0,0,0-2.427,4.74A4.893,4.893,0,0,0,20.67,16.716Z" transform="translate(224.896 3200.264)" fill="#fff"/>
  </g>
</svg>
