<svg xmlns="http://www.w3.org/2000/svg" width="28.998" height="28.999" viewBox="0 0 28.998 28.999">
  <path id="Subtraction_10" data-name="Subtraction 10" d="M-18847.5,907a14.4,14.4,0,0,1-10.25-4.246A14.408,14.408,0,0,1-18862,892.5a14.408,14.408,0,0,1,4.248-10.252A14.4,14.4,0,0,1-18847.5,878a14.408,14.408,0,0,1,10.254,4.248A14.406,14.406,0,0,1-18833,892.5a14.406,14.406,0,0,1-4.246,10.253A14.4,14.4,0,0,1-18847.5,907Zm-.227-11.1a1.748,1.748,0,0,0-1.24.459,1.5,1.5,0,0,0-.482,1.146,1.548,1.548,0,0,0,.492,1.16,1.7,1.7,0,0,0,1.23.478,1.728,1.728,0,0,0,1.236-.478,1.553,1.553,0,0,0,.5-1.16,1.531,1.531,0,0,0-.488-1.146A1.764,1.764,0,0,0-18847.729,895.9Zm-.5-7.361a2.355,2.355,0,0,1,1.416.388,1.238,1.238,0,0,1,.529,1.051,1.363,1.363,0,0,1-.279.838,7.515,7.515,0,0,1-.875.909,8.437,8.437,0,0,0-1.23,1.349,2.626,2.626,0,0,0-.422,1.548h2.713a1.584,1.584,0,0,1,.307-.98,8.094,8.094,0,0,1,.977-1c.354-.321.658-.62.908-.89a3.437,3.437,0,0,0,.592-.947,3.241,3.241,0,0,0,.246-1.3,2.845,2.845,0,0,0-1.254-2.447,5.682,5.682,0,0,0-3.318-.88,6.888,6.888,0,0,0-3.055.63,5.067,5.067,0,0,0-2.039,1.78l2.178,1.278a3.225,3.225,0,0,1,1.107-.98A3.159,3.159,0,0,1-18848.23,888.542Z" transform="translate(18862 -878)" fill="#8ba3b9"/>
</svg>
