<svg xmlns="http://www.w3.org/2000/svg" width="16.084" height="19.803" viewBox="0 0 16.084 19.803">
  <g id="placeholder" transform="translate(-46.647 0.2)">
    <g id="Group_798" data-name="Group 798" transform="translate(46.848)">
      <path id="Path_264" data-name="Path 264" d="M146.109,97.4a4.059,4.059,0,1,0,4.057,4.061A4.062,4.062,0,0,0,146.109,97.4Zm0,7.145a3.084,3.084,0,1,1,3.084-3.084A3.088,3.088,0,0,1,146.109,104.545Z" transform="translate(-138.273 -93.534)" fill="#fff" stroke="#fff" stroke-width="0.4"/>
      <path id="Path_265" data-name="Path 265" d="M54.684,0c-.091,0-.187,0-.278,0a7.834,7.834,0,0,0-7.419,9.3,2.484,2.484,0,0,0,.056.262,7.493,7.493,0,0,0,.524,1.54,21.7,21.7,0,0,0,6.407,8.034,1.129,1.129,0,0,0,1.437,0,21.731,21.731,0,0,0,6.4-8.019,7.7,7.7,0,0,0,.528-1.552c.024-.1.04-.175.052-.25A7.835,7.835,0,0,0,54.684,0Zm6.74,9.158c0,.008-.012.075-.04.2a7.14,7.14,0,0,1-.468,1.377,20.738,20.738,0,0,1-6.129,7.661.16.16,0,0,1-.1.036.168.168,0,0,1-.1-.036,20.781,20.781,0,0,1-6.137-7.677,6.838,6.838,0,0,1-.464-1.366c-.024-.1-.036-.167-.04-.187s0-.016,0-.024a6.991,6.991,0,0,1-.091-1.973,6.866,6.866,0,0,1,13.7.671A7.122,7.122,0,0,1,61.425,9.158Z" transform="translate(-46.848)" fill="#fff" stroke="#fff" stroke-width="0.4"/>
    </g>
  </g>
</svg>
