<svg xmlns="http://www.w3.org/2000/svg" width="16.986" height="18.686" viewBox="0 0 16.986 18.686">
  <g id="ruble-currency-sign" transform="translate(-23.19)">
    <g id="Group_1445" data-name="Group 1445" transform="translate(23.189)">
      <path id="Path_381" data-name="Path 381" d="M23.614,15.713h2.973v2.548a.409.409,0,0,0,.425.425h2.216a.419.419,0,0,0,.3-.12.4.4,0,0,0,.126-.3V15.713h6.7a.409.409,0,0,0,.425-.425v-1.7a.409.409,0,0,0-.425-.425h-6.7V11.6h4.512A5.981,5.981,0,0,0,38.5,9.98,5.549,5.549,0,0,0,40.176,5.8,5.552,5.552,0,0,0,38.5,1.619,5.986,5.986,0,0,0,34.164,0H27.011a.409.409,0,0,0-.425.425V8.772H23.614a.4.4,0,0,0-.305.126.42.42,0,0,0-.119.3v1.977a.409.409,0,0,0,.425.425h2.973v1.566H23.614a.409.409,0,0,0-.425.425v1.7a.409.409,0,0,0,.425.425ZM29.652,2.827H33.9a3.152,3.152,0,0,1,2.269.823,2.837,2.837,0,0,1,.863,2.15,2.835,2.835,0,0,1-.863,2.15,3.15,3.15,0,0,1-2.269.823H29.652Z" transform="translate(-23.189)" fill="#1d86e0"/>
    </g>
  </g>
</svg>
