<svg xmlns="http://www.w3.org/2000/svg" width="14.753" height="14.071" viewBox="0 0 14.753 14.071">
  <g id="star" transform="translate(0 -10.99)">
    <path id="Path_189" data-name="Path 189" d="M14.753,16.443q0-.328-.5-.408l-4.451-.647L7.811,11.353q-.168-.364-.434-.363t-.434.363L4.947,15.388.5,16.035q-.5.08-.5.408a.676.676,0,0,0,.222.426l3.227,3.139L2.687,24.44a1.44,1.44,0,0,0-.018.177.523.523,0,0,0,.093.315.322.322,0,0,0,.279.129.752.752,0,0,0,.355-.106l3.981-2.093,3.981,2.093a.718.718,0,0,0,.355.106.313.313,0,0,0,.271-.129.524.524,0,0,0,.093-.315,1.339,1.339,0,0,0-.009-.177L11.3,20.007l3.218-3.139A.641.641,0,0,0,14.753,16.443Z" fill="#fff"/>
  </g>
</svg>
