<svg xmlns="http://www.w3.org/2000/svg" width="11.915" height="11.364" viewBox="0 0 11.915 11.364">
  <path id="Path_189" data-name="Path 189" d="M11.915,15.394q0-.265-.4-.329l-3.594-.523L6.308,11.284q-.136-.294-.351-.294t-.351.294L4,14.542.4,15.064q-.4.065-.4.329a.546.546,0,0,0,.179.344l2.606,2.535-.616,3.58A1.163,1.163,0,0,0,2.155,22a.422.422,0,0,0,.075.254.26.26,0,0,0,.226.1.607.607,0,0,0,.286-.086l3.215-1.69,3.215,1.69a.58.58,0,0,0,.286.086.252.252,0,0,0,.219-.1A.423.423,0,0,0,9.752,22a1.082,1.082,0,0,0-.007-.143l-.616-3.58,2.6-2.535A.517.517,0,0,0,11.915,15.394Z" transform="translate(0 -10.99)" fill="#5e7b96"/>
</svg>
