<svg id="star" xmlns="http://www.w3.org/2000/svg" width="19.432" height="18.533" viewBox="0 0 19.432 18.533">
  <path id="Path_189" data-name="Path 189" d="M19.432,18.172q0-.432-.654-.537l-5.862-.852-2.628-5.314q-.222-.479-.572-.479t-.572.479L6.516,16.782l-5.863.852Q0,17.74,0,18.172a.89.89,0,0,0,.292.561l4.251,4.134-1,5.839a1.9,1.9,0,0,0-.023.234.688.688,0,0,0,.123.415.424.424,0,0,0,.368.169.991.991,0,0,0,.467-.14l5.243-2.756,5.244,2.756a.945.945,0,0,0,.467.14.412.412,0,0,0,.356-.169.69.69,0,0,0,.122-.415,1.764,1.764,0,0,0-.012-.234l-1-5.839,4.239-4.134A.844.844,0,0,0,19.432,18.172Z" transform="translate(0 -10.99)" fill="#137cd6"/>
</svg>
