<svg xmlns="http://www.w3.org/2000/svg" width="18.619" height="20.92" viewBox="0 0 18.619 20.92">
  <g id="statistical-chart" transform="translate(-20.484)">
    <g id="Group_1704" data-name="Group 1704" transform="translate(20.484)">
      <path id="Path_479" data-name="Path 479" d="M25.061,186.441H21.046a.562.562,0,0,0-.562.562v9.325a.562.562,0,0,0,.562.562h4.016a.562.562,0,0,0,.562-.562V187A.562.562,0,0,0,25.061,186.441Z" transform="translate(-20.484 -175.969)" fill="#1d86e0"/>
      <path id="Path_480" data-name="Path 480" d="M145.061,0h-4.016a.562.562,0,0,0-.562.562v19.8a.562.562,0,0,0,.562.562h4.016a.562.562,0,0,0,.562-.562V.562A.562.562,0,0,0,145.061,0Z" transform="translate(-133.744)" fill="#1d86e0"/>
      <path id="Path_481" data-name="Path 481" d="M265.061,115.257h-4.016a.562.562,0,0,0-.562.562v13.323a.562.562,0,0,0,.562.562h4.016a.562.562,0,0,0,.562-.562V115.819A.562.562,0,0,0,265.061,115.257Z" transform="translate(-247.004 -108.783)" fill="#1d86e0"/>
    </g>
  </g>
</svg>
