<svg xmlns="http://www.w3.org/2000/svg" width="18.804" height="14.764" viewBox="0 0 18.804 14.764">
  <g id="success" transform="translate(0)">
    <path id="Path_386" data-name="Path 386" d="M135.467,13.377l-.531,3.022,2.777-1.426L140.49,16.4l-.531-3.022,2.264-2.154L139.1,10.78l-1.384-2.737-1.384,2.737-3.126.443Zm0,0" transform="translate(-128.311 -7.748)" fill="#ffc400"/>
    <path id="Path_387" data-name="Path 387" d="M15.808,5.58c.014-.176.019-.355.025-.534a3.748,3.748,0,0,0,1.929-1.68c.183-.393.6-1.343-.254-3.366A4.084,4.084,0,0,0,14.73,1.969a3.864,3.864,0,0,0,.012,2.788c-.03,3.294-1.893,7.07-5.34,7.07h0c-3.314,0-5.309-3.619-5.34-7.07a3.865,3.865,0,0,0,.012-2.788A3.976,3.976,0,0,0,1.8.143L1.33,0,1.136.454a3.977,3.977,0,0,0-.06,2.912,3.69,3.69,0,0,0,1.893,1.68c.006.179.011.359.025.535A4.272,4.272,0,0,0,0,5.44,4,4,0,0,0,1.445,8.482a3.388,3.388,0,0,0,1.94.541,4.617,4.617,0,0,0,.505-.029q.164.348.353.671c-.01,0-.02,0-.03,0-.434,0-1.47.026-2.943,1.653a4,4,0,0,0,2.943,1.653,3.616,3.616,0,0,0,2.238-.933,5.712,5.712,0,0,0,.823.441A3.844,3.844,0,0,0,5.765,14.4l1.039.367a2.755,2.755,0,0,1,5.195,0l1.039-.367a3.844,3.844,0,0,0-1.51-1.922,5.705,5.705,0,0,0,.822-.44,3.616,3.616,0,0,0,2.238.933c.434,0,1.47-.026,2.943-1.653a4.006,4.006,0,0,0-2.943-1.653c-.01,0-.02,0-.03,0q.189-.323.353-.671a4.622,4.622,0,0,0,.506.029,3.5,3.5,0,0,0,1.976-.541c.356-.249,1.137-.865,1.41-3.042C16.8,4.993,16.021,5.475,15.808,5.58Zm0,0" fill="#ffc400"/>
  </g>
</svg>
