<svg id="thumb-up-black-sign" xmlns="http://www.w3.org/2000/svg" width="15.734" height="18.75" viewBox="0 0 15.734 18.75">
  <path id="Path_206" data-name="Path 206" d="M17.5,9.15c-.333-.393-3.084-4.767-3.217-5.157A25.556,25.556,0,0,1,14.348.929C14.342.311,12.394-.595,11.874.546c-.309.677-1.329,3.048-1.227,3.724s.342,2.336.588,3.581H5.487a1.364,1.364,0,0,0-1.461,1.3A1.955,1.955,0,0,0,4.916,10.9a1.31,1.31,0,0,0-.456,1.145,1.921,1.921,0,0,0,.885,1.411,1.325,1.325,0,0,0-.437,1.117,1.913,1.913,0,0,0,.89,1.443,1.355,1.355,0,0,0-.343,1.052,1.936,1.936,0,0,0,2.07,1.684l9.075,0a2.305,2.305,0,0,0,1.214-.477,1.653,1.653,0,0,1,.483-.254h1.457V10.269A10.173,10.173,0,0,1,17.5,9.15Z" transform="translate(-4.02 0)" fill="#137cd6"/>
</svg>
