<svg xmlns="http://www.w3.org/2000/svg" width="12.189" height="12.76" viewBox="0 0 12.189 12.76">
  <g id="user-silhouette" transform="translate(0.001 -1.916)">
    <g id="Group_1041" data-name="Group 1041" transform="translate(-0.001 1.916)">
      <path id="Path_304" data-name="Path 304" d="M115.576,8.314a2.994,2.994,0,0,0,2.733-3.2c0-2.45-1.224-3.2-2.733-3.2s-2.733.749-2.733,3.2A2.994,2.994,0,0,0,115.576,8.314Z" transform="translate(-109.481 -1.916)" fill="#52afff"/>
      <path id="Path_305" data-name="Path 305" d="M12.129,225.97l-1.379-3.106a.692.692,0,0,0-.312-.332L8.3,221.418a.138.138,0,0,0-.147.012,3.376,3.376,0,0,1-4.116,0,.138.138,0,0,0-.147-.012l-2.14,1.114a.692.692,0,0,0-.312.332L.059,225.97a.689.689,0,0,0,.63.969H11.5a.689.689,0,0,0,.63-.969Z" transform="translate(0.001 -214.179)" fill="#52afff"/>
    </g>
  </g>
</svg>
