<svg xmlns="http://www.w3.org/2000/svg" width="27.569" height="28.327" viewBox="0 0 27.569 28.327">
  <g id="download-folder" transform="translate(-6.5)">
    <path id="Path_191" data-name="Path 191" d="M32.5,285a1.567,1.567,0,0,1,1.574,1.574v8.568a1.567,1.567,0,0,1-1.574,1.574H8.132A1.618,1.618,0,0,1,6.5,295.142v-8.568A1.618,1.618,0,0,1,8.132,285a1.567,1.567,0,0,1,1.574,1.574v6.936H30.922v-6.936A1.567,1.567,0,0,1,32.5,285Z" transform="translate(0 -268.388)" fill="#248eea"/>
    <path id="Path_192" data-name="Path 192" d="M113.142,20.167l-6.411-6.412a1.566,1.566,0,0,1,2.215-2.215l3.73,3.672V1.574a1.574,1.574,0,0,1,3.147,0V15.213l3.672-3.672a1.584,1.584,0,0,1,2.273,0,1.516,1.516,0,0,1,0,2.215l-6.412,6.412a1.548,1.548,0,0,1-2.215,0Z" transform="translate(-93.936 0)" fill="#248eea"/>
  </g>
</svg>
