<svg xmlns="http://www.w3.org/2000/svg" width="52.074" height="44.644" viewBox="0 0 52.074 44.644">
  <g id="Group_1108" data-name="Group 1108" transform="translate(-120 -2306)">
    <g id="quote" transform="translate(172.074 2352.496) rotate(180)">
      <g id="c174_quotes" transform="translate(0 1.852)">
        <path id="Path_320" data-name="Path 320" d="M11.163,22.133c0-6.7,0-7.815,5.579-7.815V1.852C3.724,1.852,0,10.6,0,26.04V46.5H24.186V26.04H11.163Z" transform="translate(0 -1.852)" fill="#f2f7fa"/>
        <path id="Path_321" data-name="Path 321" d="M25.073,26.04V22.133c0-6.7,0-7.815,5.579-7.815V1.852c-13.018,0-16.74,8.752-16.74,24.188V46.5H38.086V26.04Z" transform="translate(13.988 -1.852)" fill="#f2f7fa"/>
      </g>
    </g>
    <g id="quote-2" data-name="quote" transform="translate(147.874 2329.95) rotate(180)">
      <g id="c174_quotes-2" data-name="c174_quotes" transform="translate(0 1.852)">
        <path id="Path_320-2" data-name="Path 320" d="M4.137,9.369c0-2.483,0-2.9,2.068-2.9V1.852C1.38,1.852,0,5.1,0,10.817V18.4H8.964V10.817H4.137Z" transform="translate(0 -1.852)" fill="#8ba3b9"/>
        <path id="Path_321-2" data-name="Path 321" d="M18.048,10.817V9.369c0-2.483,0-2.9,2.068-2.9V1.852c-4.825,0-6.2,3.244-6.2,8.965V18.4h8.959V10.817Z" transform="translate(-3.572 -1.852)" fill="#8ba3b9"/>
      </g>
    </g>
  </g>
</svg>
