<svg xmlns="http://www.w3.org/2000/svg" width="24.832" height="19.497" viewBox="0 0 24.832 19.497">
  <g id="success" transform="translate(0 0)">
    <path id="Path_386" data-name="Path 386" d="M136.193,15.086l-.7,3.991,3.667-1.883,3.667,1.883-.7-3.991,2.989-2.844-4.128-.585-1.827-3.614-1.827,3.614-4.128.585Zm0,0" transform="translate(-126.743 -7.653)" fill="#ffc400"/>
    <path id="Path_387" data-name="Path 387" d="M20.875,7.369c.019-.232.025-.469.033-.706a4.949,4.949,0,0,0,2.548-2.219c.242-.519.789-1.774-.335-4.444-1.881.58-3.09,1.356-3.669,2.6a5.1,5.1,0,0,0,.016,3.681c-.039,4.35-2.5,9.336-7.052,9.336h0c-4.376,0-7.011-4.779-7.052-9.336A5.1,5.1,0,0,0,5.377,2.6a5.251,5.251,0,0,0-3-2.41L1.756,0,1.5.6a5.252,5.252,0,0,0-.08,3.845,4.873,4.873,0,0,0,2.5,2.219c.008.236.014.474.033.706A5.642,5.642,0,0,0,0,7.183C.245,9.137.784,10.414,1.908,11.2a4.474,4.474,0,0,0,2.562.715,6.1,6.1,0,0,0,.667-.038q.217.459.467.885c-.013,0-.026,0-.039,0-.573,0-1.942.034-3.886,2.182C3,16.4,4.192,17.124,5.564,17.124a4.775,4.775,0,0,0,2.955-1.231,7.543,7.543,0,0,0,1.087.582,5.076,5.076,0,0,0-1.993,2.537l1.373.485a3.638,3.638,0,0,1,6.86,0l1.373-.485a5.076,5.076,0,0,0-1.994-2.538,7.534,7.534,0,0,0,1.086-.582,4.775,4.775,0,0,0,2.955,1.232c.573,0,1.942-.035,3.887-2.182-1.322-1.46-2.515-2.182-3.887-2.182-.014,0-.026,0-.04,0q.25-.427.466-.885a6.1,6.1,0,0,0,.668.038,4.619,4.619,0,0,0,2.61-.715c.469-.329,1.5-1.143,1.862-4.017C22.188,6.594,21.157,7.23,20.875,7.369Zm0,0" fill="#ffc400"/>
  </g>
</svg>
