<svg id="coin" xmlns="http://www.w3.org/2000/svg" width="26.327" height="26.327" viewBox="0 0 26.327 26.327">
  <g id="Group_7" data-name="Group 7">
    <g id="Group_6" data-name="Group 6">
      <path id="Path_9" data-name="Path 9" d="M22.471,3.855A13.163,13.163,0,0,0,3.855,22.471,13.163,13.163,0,0,0,22.471,3.855ZM13.163,24.784A11.621,11.621,0,1,1,24.784,13.163,11.634,11.634,0,0,1,13.163,24.784Z" fill="#1d86e0"/>
    </g>
  </g>
  <g id="Group_9" data-name="Group 9" transform="translate(9.088 4.957)">
    <g id="Group_8" data-name="Group 8">
      <path id="Path_10" data-name="Path 10" d="M181.636,103.836h-1.652a1.707,1.707,0,1,1,0-3.414h3.3a.771.771,0,0,0,0-1.543h-1.707V97.172a.771.771,0,1,0-1.543,0v1.707h-.055a3.25,3.25,0,1,0,0,6.5h1.652a1.707,1.707,0,0,1,0,3.414h-3.3a.771.771,0,1,0,0,1.543h1.707v1.707a.771.771,0,1,0,1.543,0v-1.707h.055a3.25,3.25,0,0,0,0-6.5Z" transform="translate(-176.734 -96.401)" fill="#1d86e0"/>
    </g>
  </g>
</svg>
