<svg xmlns="http://www.w3.org/2000/svg" width="15.325" height="9.135" viewBox="0 0 15.325 9.135">
  <g id="eye" transform="translate(0 -98.725)">
    <path id="Path_190" data-name="Path 190" d="M7.663,98.725a9.56,9.56,0,0,0-7.543,4.2.607.607,0,0,0,0,.724,9.555,9.555,0,0,0,7.543,4.207,9.56,9.56,0,0,0,7.543-4.2.607.607,0,0,0,0-.724A9.555,9.555,0,0,0,7.663,98.725Zm.21,7.784a3.223,3.223,0,1,1,3.006-3.006A3.225,3.225,0,0,1,7.873,106.509Zm-.1-1.486A1.736,1.736,0,1,1,9.4,103.4,1.733,1.733,0,0,1,7.775,105.023Z" fill="#52afff"/>
  </g>
</svg>
