<svg xmlns="http://www.w3.org/2000/svg" width="17.749" height="18.933" viewBox="0 0 17.749 18.933">
  <g id="google-play" transform="translate(-16.014 0)">
    <g id="Group_471" data-name="Group 471" transform="translate(17.208 0)">
      <g id="Group_470" data-name="Group 470" transform="translate(0 0)">
        <path id="Path_179" data-name="Path 179" d="M50.648.3A2.4,2.4,0,0,0,48.3.309l8.626,7.957,2.9-2.9Z" transform="translate(-48.302 0)" fill="#8ba3b9"/>
      </g>
    </g>
    <g id="Group_473" data-name="Group 473" transform="translate(16.014 1.123)">
      <g id="Group_472" data-name="Group 472">
        <path id="Path_180" data-name="Path 180" d="M16.345,30.365a2.206,2.206,0,0,0-.331,1.156V45.893a2.214,2.214,0,0,0,.309,1.128L25,38.346Z" transform="translate(-16.014 -30.365)" fill="#8ba3b9"/>
      </g>
    </g>
    <g id="Group_475" data-name="Group 475" transform="translate(26.703 5.964)">
      <g id="Group_474" data-name="Group 474" transform="translate(0)">
        <path id="Path_181" data-name="Path 181" d="M310.972,162.8l-2.764-1.525-3.106,3.1,3.806,3.511,2.065-1.139a2.236,2.236,0,0,0,0-3.951Z" transform="translate(-305.102 -161.277)" fill="#8ba3b9"/>
      </g>
    </g>
    <g id="Group_477" data-name="Group 477" transform="translate(17.169 9.906)">
      <g id="Group_476" data-name="Group 476" transform="translate(0)">
        <path id="Path_182" data-name="Path 182" d="M55.944,267.9l-8.7,8.7a2.4,2.4,0,0,0,2.385.022l9.865-5.444Z" transform="translate(-47.246 -267.901)" fill="#8ba3b9"/>
      </g>
    </g>
  </g>
</svg>
