<svg xmlns="http://www.w3.org/2000/svg" width="18.174" height="10.284" viewBox="0 0 18.174 10.284">
  <g id="Group_459" data-name="Group 459" transform="translate(0 0)">
    <path id="vk" d="M15.641,117.666a24.744,24.744,0,0,1,1.78,1.79,5.2,5.2,0,0,1,.638.919c.245.475.023,1-.4,1.026H15.008a2.044,2.044,0,0,1-1.686-.685c-.367-.373-.706-.771-1.058-1.157a2.508,2.508,0,0,0-.476-.424.553.553,0,0,0-.882.214,2.782,2.782,0,0,0-.279,1.235c-.028.623-.217.787-.843.816A6.771,6.771,0,0,1,6,120.586,8.37,8.37,0,0,1,3.447,118.2a32.132,32.132,0,0,1-3.355-5.98c-.212-.471-.057-.724.463-.733.864-.017,1.727-.016,2.592,0a.761.761,0,0,1,.719.538,16.068,16.068,0,0,0,1.757,3.255,2.777,2.777,0,0,0,.664.729.4.4,0,0,0,.685-.2,2.259,2.259,0,0,0,.152-.683,10.168,10.168,0,0,0-.043-2.393,1,1,0,0,0-.849-.913c-.253-.048-.215-.142-.093-.287a.952.952,0,0,1,.812-.4H9.943c.471.093.576.3.64.779l0,3.324c-.005.183.092.728.422.849.265.086.439-.125.6-.293A10.306,10.306,0,0,0,13.29,113.2c.2-.409.377-.834.546-1.259a.641.641,0,0,1,.676-.463l2.88,0a1.517,1.517,0,0,1,.255.015c.485.083.618.291.468.765a7.19,7.19,0,0,1-1.145,1.985c-.48.665-.994,1.306-1.47,1.975-.438.61-.4.918.141,1.448Z" transform="translate(0 -111.127)" fill="#fff"/>
  </g>
</svg>
