<svg xmlns="http://www.w3.org/2000/svg" width="13.7" height="19.21" viewBox="0 0 13.7 19.21">
  <g id="odnoklassniki" transform="translate(-76.587 0.25)">
    <g id="Group_506" data-name="Group 506" transform="translate(78.78)">
      <g id="Group_505" data-name="Group 505" transform="translate(0)">
        <path id="Path_196" data-name="Path 196" d="M132.658,0a4.656,4.656,0,1,0,4.656,4.656A4.661,4.661,0,0,0,132.658,0Zm0,6.985a2.328,2.328,0,1,1,2.328-2.328A2.331,2.331,0,0,1,132.658,6.985Z" transform="translate(-128.002)" fill="#fff" stroke="#fff" stroke-width="0.5"/>
      </g>
    </g>
    <g id="Group_508" data-name="Group 508" transform="translate(76.922 8.842)">
      <g id="Group_507" data-name="Group 507" transform="translate(0)">
        <path id="Path_197" data-name="Path 197" d="M89.611,243.405a1.163,1.163,0,0,0-1.646,0,6.412,6.412,0,0,1-9.055,0,1.164,1.164,0,0,0-1.646,1.647,8.678,8.678,0,0,0,5.177,2.489l-3.319,3.319a1.164,1.164,0,0,0,1.646,1.646l2.669-2.669,2.669,2.669a1.164,1.164,0,1,0,1.646-1.646l-3.319-3.319a8.678,8.678,0,0,0,5.177-2.489A1.165,1.165,0,0,0,89.611,243.405Z" transform="translate(-76.922 -243.064)" fill="#fff" stroke="#fff" stroke-width="0.5"/>
      </g>
    </g>
  </g>
</svg>
