<svg xmlns="http://www.w3.org/2000/svg" width="26" height="34" viewBox="0 0 19.93 26.165">
  <g id="notification" transform="translate(-61)">
    <g id="Group_5" data-name="Group 5" transform="translate(61)">
      <path id="Path_8" data-name="Path 8" d="M80.589,18.219,79.4,17.425v-6.9a8.443,8.443,0,0,0-7.665-8.4V.767a.767.767,0,0,0-1.533,0V2.13a8.443,8.443,0,0,0-7.665,8.4v6.9l-1.192.795a.766.766,0,0,0-.341.638v3.066a.767.767,0,0,0,.767.767h5.053a4.21,4.21,0,0,0,8.291,0h5.053a.767.767,0,0,0,.767-.767V18.857A.766.766,0,0,0,80.589,18.219Zm-9.624,6.412a2.692,2.692,0,0,1-2.574-1.942h5.147A2.692,2.692,0,0,1,70.965,24.632ZM79.4,21.157H62.533V19.267l1.192-.795a.766.766,0,0,0,.341-.638V10.527a6.9,6.9,0,1,1,13.8,0v7.308a.766.766,0,0,0,.341.638l1.192.795Z" transform="translate(-61)" fill="#1d86e0"/>
    </g>
  </g>
</svg>
