<svg xmlns="http://www.w3.org/2000/svg" width="16.986" height="16.395" viewBox="0 0 16.986 16.395">
  <g id="running" transform="translate(-1 -8.905)">
    <g id="Group_1481" data-name="Group 1481" transform="translate(1 8.905)">
      <g id="Group_1480" data-name="Group 1480" transform="translate(0 0)">
        <path id="Path_392" data-name="Path 392" d="M17.7,89.12l-.042-.042a1,1,0,0,0-1.42,0l-1.529,1.545a.211.211,0,0,1-.293.007L12.27,88.652a1.12,1.12,0,0,0-.763-.3H8.319a.293.293,0,0,0-.2.08L5.416,91a1.035,1.035,0,0,0-.06,1.423,1,1,0,0,0,.737.322h0a1,1,0,0,0,.733-.323L8.738,90.4h.683L4.968,95.381H2.221A1.2,1.2,0,0,0,1,96.489a1.161,1.161,0,0,0,.32.869,1.175,1.175,0,0,0,.85.365h4.1a.292.292,0,0,0,.214-.093l2.1-2.242,1.766,1.847-.533,3.407a1.169,1.169,0,0,0,1.131,1.472,1.169,1.169,0,0,0,1.14-.916L13,96.312a.293.293,0,0,0-.081-.261l-2.431-2.428L12.418,91.7l1.346,1.346a1.018,1.018,0,0,0,1.407,0L17.7,90.516a.987.987,0,0,0,0-1.4Z" transform="translate(-1 -85.719)" fill="#fff"/>
        <path id="Path_393" data-name="Path 393" d="M355.856,12.418a1.757,1.757,0,1,0-1.757-1.757A1.758,1.758,0,0,0,355.856,12.418Z" transform="translate(-342.388 -8.905)" fill="#fff"/>
      </g>
    </g>
  </g>
</svg>
