<svg xmlns="http://www.w3.org/2000/svg" width="18.682" height="18.683" viewBox="0 0 18.682 18.683">
  <g id="settings-work-tool" transform="translate(-0.003 0)">
    <g id="Group_2228" data-name="Group 2228" transform="translate(0.003 0)">
      <path id="Path_571" data-name="Path 571" d="M18.627,8.3a.608.608,0,0,0-.6-.46,2.063,2.063,0,0,1-1.412-3.59.519.519,0,0,0,.057-.7,9.244,9.244,0,0,0-1.48-1.495.52.52,0,0,0-.71.057,2.153,2.153,0,0,1-2.33.523A2.075,2.075,0,0,1,10.89.608a.518.518,0,0,0-.458-.546A9.326,9.326,0,0,0,8.33.057a.52.52,0,0,0-.463.534A2.078,2.078,0,0,1,6.588,2.584a2.159,2.159,0,0,1-2.312-.526A.521.521,0,0,0,3.571,2,9.279,9.279,0,0,0,2.059,3.493a.52.52,0,0,0,.056.71,2.07,2.07,0,0,1,.522,2.331A2.16,2.16,0,0,1,.6,7.8a.508.508,0,0,0-.54.459,9.358,9.358,0,0,0,0,2.124.618.618,0,0,0,.613.459A2.049,2.049,0,0,1,2.6,12.119a2.077,2.077,0,0,1-.522,2.31.519.519,0,0,0-.057.7,9.277,9.277,0,0,0,1.478,1.5.519.519,0,0,0,.711-.056,2.15,2.15,0,0,1,2.329-.524A2.072,2.072,0,0,1,7.8,18.075a.519.519,0,0,0,.458.546,9.3,9.3,0,0,0,2.1.006.52.52,0,0,0,.462-.535A2.076,2.076,0,0,1,12.1,16.1a2.156,2.156,0,0,1,2.313.526.522.522,0,0,0,.705.059,9.3,9.3,0,0,0,1.511-1.494.519.519,0,0,0-.056-.71,2.07,2.07,0,0,1-.523-2.33,2.091,2.091,0,0,1,1.911-1.266l.116,0a.52.52,0,0,0,.547-.458A9.35,9.35,0,0,0,18.627,8.3ZM9.359,12.477a3.116,3.116,0,1,1,3.116-3.116A3.119,3.119,0,0,1,9.359,12.477Z" transform="translate(-0.003 0)" fill="#1d86e0" fill-rule="evenodd"/>
    </g>
  </g>
</svg>
