<svg xmlns="http://www.w3.org/2000/svg" width="19.202" height="20.786" viewBox="0 0 19.202 20.786">
  <g id="shut-down" transform="translate(-12.393)">
    <path id="Path_477" data-name="Path 477" d="M30.058,41.513a9.643,9.643,0,0,0-3.978-3.482.678.678,0,0,0-.292-.072c-.126,0-.536.053-.536.738v1.134a1.032,1.032,0,0,0,.458.905,7.045,7.045,0,1,1-7.35-.049.955.955,0,0,0,.437-.872v-1.15a.606.606,0,0,0-.6-.689.779.779,0,0,0-.329.076,9.6,9.6,0,1,0,12.193,3.462Z" transform="translate(0 -35.533)" fill="#ff1432"/>
    <path id="Path_478" data-name="Path 478" d="M143.218,7.478h1.342a.64.64,0,0,0,.639-.639V.639A.64.64,0,0,0,144.56,0h-1.342a.64.64,0,0,0-.639.639v6.2A.64.64,0,0,0,143.218,7.478Z" transform="translate(-121.865)" fill="#ff1432"/>
  </g>
</svg>
