<svg xmlns="http://www.w3.org/2000/svg" width="21.737" height="20.731" viewBox="0 0 21.737 20.731">
  <path id="Path_189" data-name="Path 189" d="M21.737,19.024q0-.483-.732-.6l-6.557-.953-2.939-5.944q-.248-.536-.64-.536t-.64.536L7.289,17.469l-6.558.953Q0,18.54,0,19.024a1,1,0,0,0,.327.627l4.755,4.624L3.958,30.806a2.121,2.121,0,0,0-.026.261.77.77,0,0,0,.137.464.474.474,0,0,0,.411.19A1.108,1.108,0,0,0,5,31.564l5.865-3.083,5.866,3.083a1.057,1.057,0,0,0,.522.157.46.46,0,0,0,.4-.19.771.771,0,0,0,.137-.464,1.973,1.973,0,0,0-.013-.261l-1.123-6.531L21.4,19.651A.944.944,0,0,0,21.737,19.024Z" transform="translate(0 -10.99)" fill="#52afff"/>
</svg>
