<svg xmlns="http://www.w3.org/2000/svg" width="11.859" height="14.132" viewBox="0 0 11.859 14.132">
  <g id="thumb-up-black-sign" transform="translate(-4.02 0)">
    <path id="Path_206" data-name="Path 206" d="M14.18,6.9c-.251-.3-2.324-3.593-2.425-3.887A19.262,19.262,0,0,1,11.8.7c0-.466-1.473-1.148-1.865-.289a9.964,9.964,0,0,0-.925,2.807c.077.509.257,1.761.443,2.7H5.125a1.028,1.028,0,0,0-1.1.978A1.473,1.473,0,0,0,4.7,8.212a.988.988,0,0,0-.343.863,1.448,1.448,0,0,0,.667,1.063,1,1,0,0,0-.329.842,1.442,1.442,0,0,0,.671,1.088,1.021,1.021,0,0,0-.259.793,1.459,1.459,0,0,0,1.56,1.269l6.84,0a1.738,1.738,0,0,0,.915-.359,1.246,1.246,0,0,1,.364-.191h1.1V7.74A7.667,7.667,0,0,1,14.18,6.9Z" fill="#fff"/>
  </g>
</svg>
