<svg xmlns="http://www.w3.org/2000/svg" width="9.536" height="11.364" viewBox="0 0 9.536 11.364">
  <g id="thumb-up-black-sign" transform="translate(-4.02 0)">
    <path id="Path_206" data-name="Path 206" d="M12.189,5.545c-.2-.238-1.869-2.889-1.95-3.125a15.489,15.489,0,0,1,.04-1.857c0-.375-1.184-.923-1.5-.232a8.012,8.012,0,0,0-.744,2.257C8.1,3,8.243,4,8.392,4.758H4.909a.827.827,0,0,0-.885.786A1.185,1.185,0,0,0,4.563,6.6a.794.794,0,0,0-.276.694,1.164,1.164,0,0,0,.537.855.8.8,0,0,0-.265.677A1.159,1.159,0,0,0,5.1,9.7a.821.821,0,0,0-.208.638,1.173,1.173,0,0,0,1.255,1.02l5.5,0a1.4,1.4,0,0,0,.735-.289,1,1,0,0,1,.293-.154h.883v-4.7A6.165,6.165,0,0,1,12.189,5.545Z" transform="translate(0 0)" fill="#5e7b96"/>
  </g>
</svg>
