<svg xmlns="http://www.w3.org/2000/svg" width="21.417" height="26.4" viewBox="0 0 21.417 26.4">
  <g id="Group_674" data-name="Group 674" transform="translate(-119.8 -445.8)">
    <path id="Path_215" data-name="Path 215" d="M117.014,111.842h-3.7v-3.7a.732.732,0,1,0-1.464,0v3.7h-3.7a.732.732,0,1,0,0,1.464h3.7v3.7a.732.732,0,0,0,1.464,0v-3.7h3.7a.732.732,0,0,0,0-1.464Z" transform="translate(17.844 344.887)" fill="#fff" stroke="#fff" stroke-width="0.4"/>
    <g id="placeholder" transform="translate(73.152 446)">
      <g id="Group_673" data-name="Group 673" transform="translate(46.848)">
        <path id="Path_214" data-name="Path 214" d="M57.348,0c-.122,0-.25,0-.372.005a10.5,10.5,0,0,0-9.941,12.468,3.327,3.327,0,0,0,.074.351,10.04,10.04,0,0,0,.7,2.064c1.08,2.559,3.447,6.5,8.585,10.766a1.513,1.513,0,0,0,1.926,0c5.133-4.261,7.5-8.207,8.574-10.745a10.314,10.314,0,0,0,.707-2.08c.032-.128.053-.234.069-.335A10.5,10.5,0,0,0,57.348,0ZM66.38,12.271c0,.011-.016.1-.053.266a9.568,9.568,0,0,1-.628,1.846c-1.027,2.426-3.282,6.176-8.213,10.266a.215.215,0,0,1-.133.048.226.226,0,0,1-.133-.048C52.29,20.553,50.029,16.8,49,14.362a9.163,9.163,0,0,1-.622-1.83c-.032-.138-.048-.223-.053-.25,0-.011-.005-.021-.005-.032a9.368,9.368,0,0,1-.122-2.644,9.2,9.2,0,0,1,18.356.9A9.544,9.544,0,0,1,66.38,12.271Z" transform="translate(-46.848)" fill="#fff" stroke="#fff" stroke-width="0.4"/>
      </g>
    </g>
  </g>
</svg>
