<svg xmlns="http://www.w3.org/2000/svg" width="16.253" height="16.771" viewBox="0 0 16.253 16.771">
  <path id="Subtraction_5" data-name="Subtraction 5" d="M7.709,16.771A7.709,7.709,0,0,1,0,9.061,6.414,6.414,0,0,1,.976,5.849,11.972,11.972,0,0,1,3.441,2.934,13.514,13.514,0,0,1,6.706.817,8.388,8.388,0,0,1,10.076,0a5.314,5.314,0,0,1,4.685,2.934,12.515,12.515,0,0,1,1.492,6.127,6.581,6.581,0,0,1-.736,3,8.138,8.138,0,0,1-1.939,2.451A9.1,9.1,0,0,1,7.709,16.771ZM8.844,1.094A8.017,8.017,0,0,0,4,3.235,8.735,8.735,0,0,0,2.2,5.362a4.681,4.681,0,0,0-.712,2.344,5.631,5.631,0,0,0,5.625,5.625A6.641,6.641,0,0,0,11.4,11.684a5.289,5.289,0,0,0,1.952-3.977,9.133,9.133,0,0,0-1.089-4.471A3.878,3.878,0,0,0,8.844,1.094Z" fill="#52afff"/>
</svg>
