<svg xmlns="http://www.w3.org/2000/svg" width="12.049" height="14.459" viewBox="0 0 12.049 14.459">
  <g id="notification1" transform="translate(-42.675)">
    <g id="Group_1369" data-name="Group 1369" transform="translate(42.675)">
      <g id="Group_1368" data-name="Group 1368">
        <path id="Path_374" data-name="Path 374" d="M54.681,12.2l-1.034-1.724a5.122,5.122,0,0,1-.73-2.635V6.326A4.223,4.223,0,0,0,49.9,2.286V1.2a1.2,1.2,0,1,0-2.41,0V2.286a4.223,4.223,0,0,0-3.012,4.04v1.51a5.125,5.125,0,0,1-.73,2.635L42.718,12.2a.3.3,0,0,0,.258.457H54.423a.3.3,0,0,0,.258-.456Z" transform="translate(-42.675)" fill="#52afff"/>
      </g>
    </g>
    <g id="Group_1371" data-name="Group 1371" transform="translate(46.802 13.254)">
      <g id="Group_1370" data-name="Group 1370">
        <path id="Path_375" data-name="Path 375" d="M188.815,469.333a2.1,2.1,0,0,0,3.794,0Z" transform="translate(-188.815 -469.333)" fill="#52afff"/>
      </g>
    </g>
  </g>
</svg>
