<svg width="24" height="25" viewBox="0 0 24 25" fill="none" xmlns="http://www.w3.org/2000/svg">
<path d="M3.13881 20.5701L2.77196 21.5802C2.715 21.7367 2.75383 21.9119 2.87151 22.0297C2.9892 22.1475 3.16445 22.1865 3.32096 22.1296L4.33196 21.7636C4.34601 21.7586 4.36031 21.7543 4.37481 21.7508L12.0004 14.1252L11.3884 13.5136L10.7768 12.9016L3.1521 20.5263C3.14824 20.5413 3.14224 20.5559 3.13881 20.5701Z" fill="#8BA3B9" stroke="#8BA3B9" stroke-linejoin="round"/>
<path d="M15.3152 19.1344C15.3833 19.0665 15.4215 18.9742 15.4215 18.878C15.4215 18.7818 15.3833 18.6895 15.3152 18.6215L6.02571 9.33055C5.88239 9.19369 5.65681 9.19369 5.51349 9.33055L4.98895 9.85255C4.84743 9.99411 4.84743 10.2236 4.98895 10.3651L14.2799 19.6565C14.3479 19.7245 14.4402 19.7628 14.5364 19.7628C14.6326 19.7628 14.7249 19.7245 14.7929 19.6565L15.3152 19.1344Z" fill="#8BA3B9" stroke="#8BA3B9" stroke-linejoin="round"/>
<path d="M21.1574 10.0191C21.3269 10.181 21.5938 10.181 21.7634 10.0191L22.3809 9.40154C22.5482 9.23418 22.5482 8.96289 22.3809 8.79554L15.6652 2.08025C15.4957 1.9184 15.2288 1.9184 15.0592 2.08025L14.4421 2.69739C14.3616 2.77778 14.3164 2.88686 14.3164 3.00061C14.3164 3.11435 14.3616 3.22344 14.4421 3.30382L21.1574 10.0191Z" fill="#8BA3B9" stroke="#8BA3B9" stroke-linejoin="round"/>
<path d="M15.5439 4.26001C14.4061 5.36187 10.3865 9.12258 7.16406 10.5223L14.1703 17.5286C15.5722 14.3062 19.3325 10.2857 20.4343 9.14872L15.5439 4.26001Z" fill="#8BA3B9"/>
</svg>
