<svg xmlns="http://www.w3.org/2000/svg" width="15.438" height="15.438" viewBox="0 0 15.438 15.438">
  <g id="ruble" transform="translate(-60 -60)">
    <path id="Path_342" data-name="Path 342" d="M243.363,166H241v2.363h2.363a1.182,1.182,0,1,0,0-2.363Zm0,0" transform="translate(-173.872 -101.825)" fill="#52afff"/>
    <path id="Path_344" data-name="Path 344" d="M73.167,62.271a7.671,7.671,0,1,0,2.271,5.448A7.662,7.662,0,0,0,73.167,62.271Zm-3.676,5.448H67.128V68.9h2.954v1.182H67.128v2.363H65.947V70.082H64.765V68.9h1.182V67.719H64.765V66.538h1.182V62.993h3.545a2.363,2.363,0,1,1,0,4.726Zm0,0" fill="#52afff"/>
  </g>
</svg>
