<svg width="24" height="25" viewBox="0 0 24 25" fill="none" xmlns="http://www.w3.org/2000/svg">
<g clip-path="url(#clip0)">
<path d="M12 8.14282C9.52031 8.14282 7.5 10.1631 7.5 12.6428C7.5 15.1225 9.52031 17.1428 12 17.1428C14.4797 17.1428 16.5 15.1225 16.5 12.6428C16.5 10.1631 14.4797 8.14282 12 8.14282ZM23.55 11.9163L19.1109 9.69907L20.6813 4.99282C20.8922 4.35532 20.2875 3.75063 19.6547 3.96626L14.9484 5.53657L12.7266 1.09282C12.4266 0.492822 11.5734 0.492822 11.2734 1.09282L9.05625 5.53188L4.34531 3.96157C3.70781 3.75063 3.10313 4.35532 3.31875 4.98813L4.88906 9.69439L0.45 11.9163C-0.15 12.2163 -0.15 13.0694 0.45 13.3694L4.88906 15.5866L3.31875 20.2975C3.10781 20.935 3.7125 21.5397 4.34531 21.3241L9.05156 19.7538L11.2688 24.1928C11.5688 24.7928 12.4219 24.7928 12.7219 24.1928L14.9391 19.7538L19.6453 21.3241C20.2828 21.535 20.8875 20.9303 20.6719 20.2975L19.1016 15.5913L23.5406 13.3741C24.15 13.0694 24.15 12.2163 23.55 11.9163V11.9163ZM16.2422 16.885C13.9031 19.2241 10.0969 19.2241 7.75781 16.885C5.41875 14.5459 5.41875 10.7397 7.75781 8.40063C10.0969 6.06157 13.9031 6.06157 16.2422 8.40063C18.5813 10.7397 18.5813 14.5459 16.2422 16.885Z" fill="#8BA3B9"/>
</g>
<defs>
<clipPath id="clip0">
<rect y="0.642822" width="24" height="24" fill="white"/>
</clipPath>
</defs>
</svg>
