<svg xmlns="http://www.w3.org/2000/svg" width="14.362" height="15.035" viewBox="0 0 14.362 15.035">
  <g id="user-silhouette" transform="translate(0 -1.916)">
    <g id="Group_1041" data-name="Group 1041" transform="translate(-0.001 1.916)">
      <path id="Path_304" data-name="Path 304" d="M116.063,9.454a3.527,3.527,0,0,0,3.22-3.769c0-2.887-1.442-3.769-3.22-3.769s-3.22.882-3.22,3.769A3.527,3.527,0,0,0,116.063,9.454Z" transform="translate(-108.882 -1.916)" fill="#52afff"/>
      <path id="Path_305" data-name="Path 305" d="M14.292,226.784l-1.625-3.66a.815.815,0,0,0-.367-.391l-2.521-1.313a.162.162,0,0,0-.173.015,3.978,3.978,0,0,1-4.849,0,.163.163,0,0,0-.173-.015l-2.521,1.313a.815.815,0,0,0-.367.391L.07,226.784a.812.812,0,0,0,.742,1.142H13.549a.812.812,0,0,0,.742-1.142Z" transform="translate(0.001 -212.891)" fill="#52afff"/>
    </g>
  </g>
</svg>
