<svg width="21" height="22" viewBox="0 0 21 22" fill="none" xmlns="http://www.w3.org/2000/svg">
<path d="M-4.5897e-07 11.1429C-7.12513e-07 5.34248 4.6996 0.642883 10.5 0.642883C16.3004 0.642882 21 5.34248 21 11.1429C21 16.9433 16.3004 21.6429 10.5 21.6429C4.6996 21.6429 -2.05426e-07 16.9433 -4.5897e-07 11.1429ZM12.3629 16.0542L12.3629 11.1429L15.3647 11.1429C15.8177 11.1429 16.0464 10.5925 15.7246 10.2749L10.8599 5.43563C10.6609 5.23663 10.3433 5.23663 10.1444 5.43563L5.2754 10.2749C4.95363 10.5967 5.18226 11.1429 5.63528 11.1429L8.6371 11.1429L8.6371 16.0542C8.6371 16.3336 8.86573 16.5622 9.14516 16.5622L11.8548 16.5622C12.1343 16.5622 12.3629 16.3336 12.3629 16.0542Z" fill="#8BA3B9"/>
</svg>
