<svg xmlns="http://www.w3.org/2000/svg" width="28.699" height="28.7" viewBox="0 0 28.699 28.7">
  <path id="VK_Monochrome_Logo" d="M89.655,70.9H80.845c-8.041,0-9.945,1.9-9.945,9.945v8.811c0,8.041,1.9,9.945,9.945,9.945h8.811c8.041,0,9.945-1.9,9.945-9.945V80.845C99.6,72.8,97.676,70.9,89.655,70.9Zm4.415,20.477H91.984c-.79,0-1.033-.628-2.451-2.066-1.235-1.195-1.782-1.357-2.086-1.357-.425,0-.547.122-.547.709v1.884c0,.506-.162.81-1.5.81a8.128,8.128,0,0,1-6.38-3.828c-2.593-3.646-3.3-6.38-3.3-6.947,0-.3.122-.587.709-.587h2.086c.527,0,.729.243.932.81,1.033,2.977,2.755,5.59,3.463,5.59.263,0,.385-.122.385-.79V82.526c-.081-1.418-.83-1.539-.83-2.046a.5.5,0,0,1,.527-.486h3.281c.446,0,.608.243.608.77v4.152c0,.446.2.608.324.608.263,0,.486-.162.972-.648A17.774,17.774,0,0,0,90.749,80.6a.924.924,0,0,1,.911-.587h2.086c.628,0,.77.324.628.77C94.111,82,91.559,85.6,91.559,85.6c-.223.365-.3.527,0,.932.223.3.952.932,1.438,1.5a9.016,9.016,0,0,1,1.762,2.451C94.962,91.073,94.658,91.377,94.071,91.377Z" transform="translate(-70.9 -70.9)" fill="#fff" fill-rule="evenodd"/>
</svg>
